<svg width="1124" height="248" xmlns="http://www.w3.org/2000/svg" xmlns:xlink="http://www.w3.org/1999/xlink" xml:space="preserve" overflow="hidden"><defs><clipPath id="clip0"><rect x="136" y="172" width="1124" height="248"/></clipPath><clipPath id="clip1"><rect x="136" y="172" width="1124" height="248"/></clipPath><clipPath id="clip2"><rect x="137" y="173" width="1123" height="247"/></clipPath><clipPath id="clip3"><rect x="137" y="173" width="1123" height="247"/></clipPath></defs><g clip-path="url(#clip0)" transform="translate(-136 -172)"><g clip-path="url(#clip1)"><g clip-path="url(#clip2)"><g clip-path="url(#clip3)"><path d="M633.589 97.4887C619.731 94.8491 609.524 88.9101 605.917 85.9625L619.115 85.9625 632.313 85.9625C633.281 85.9625 632.621 84.6427 632.621 84.6427 632.621 84.6427 626.374 79.0556 625.362 78.7037 624.042 78.0438 623.734 78.7037 623.734 78.7037L619.115 82.663 601.958 82.663 601.958 73.7764C613.484 72.8086 623.03 71.7967 624.35 71.4888 617.751 67.2215 619.423 67.5294 613.792 63.922 608.205 66.2096 582.469 73.1605 567.643 74.4803L567.643 75.1402C574.902 75.4482 584.8 74.8323 593.995 74.4803L593.995 82.707 563.332 82.707 563.332 85.6546 585.064 85.6546C579.785 93.2214 569.579 102.812 562.32 105.1L562.32 105.759C567.247 104.792 571.866 103.12 576.178 101.14L576.178 128.152 583.745 128.152 583.745 125.82 612.076 125.82 612.076 128.108 619.643 128.108 619.643 102.416C623.602 104.396 626.902 105.363 627.21 104.704 627.87 102.064 627.518 99.1165 632.137 97.7967 633.237 97.7967 633.237 98.4566 633.589 97.4887ZM579.213 99.7764C586.12 95.817 591.091 91.1977 594.039 87.8982L594.039 101.756 583.833 101.756 583.833 99.7764 579.213 99.7764ZM612.164 122.873 583.833 122.873 583.833 115.614 612.164 115.614 612.164 122.873ZM612.164 112.314 583.833 112.314 583.833 105.056 612.164 105.056 612.164 112.314ZM612.164 99.7764 612.164 101.756 601.958 101.756 601.958 85.9185C604.905 92.1656 610.536 97.1368 615.464 100.436L612.164 99.7764Z" fill="#004898" fill-rule="evenodd" fill-opacity="1" transform="matrix(1.01193 0 0 1 -195.742 172.257)"/><path d="M1126.22 118.913C1125.56 121.201 1121.96 120.233 1120.28 120.541 1118.66 120.541 1116.98 120.233 1115.36 120.541 1115.05 120.849 1115.05 120.849 1115.36 121.201 1118.3 121.861 1121.3 122.169 1123.58 124.149 1124.55 125.116 1124.24 127.096 1124.55 128.416 1127.5 128.416 1129.83 128.108 1132.12 127.448 1133.09 126.48 1134.1 126.48 1134.1 123.489L1134.1 123.489 1134.1 112.93 1162.43 112.93C1163.75 112.93 1164.41 112.93 1164.72 112.93 1165.69 112.93 1165.03 111.611 1165.03 111.611 1165.03 111.611 1158.78 106.023 1157.77 105.671 1156.45 105.012 1156.14 105.671 1156.14 105.671L1151.52 109.631 1134.05 109.631 1134.05 106.991C1139.33 105.671 1149.54 102.064 1149.54 102.064 1149.54 102.064 1143.29 97.4447 1142.28 96.4769 1142.28 96.4769 1140.96 97.4447 1139.33 99.4244L1109.33 99.4244 1109.33 102.724 1136.34 102.724C1135.02 104.044 1134.05 105.012 1132.38 106.683L1126.44 106.683 1126.44 109.983 1097.76 109.983 1097.76 112.93 1126.44 112.93 1126.44 118.869 1126.22 118.869Z" fill="#004898" fill-rule="evenodd" fill-opacity="1" transform="matrix(1.01193 0 0 1 -195.742 172.257)"/><path d="M1139.11 80.6834C1139.11 80.6834 1133.83 78.3957 1133.17 78.0438 1132.21 77.7358 1132.51 78.0438 1132.51 78.3517 1132.21 79.3196 1131.19 80.3314 1130.53 81.2993 1128.91 80.6394 1127.24 79.9795 1124.95 79.9795 1124.95 79.9795 1124.64 80.2874 1124.95 80.2874 1124.95 80.2874 1126.58 81.6072 1128.25 83.8949 1124.64 87.1943 1120.33 89.8339 1120.33 89.8339 1118.7 91.4617 1124.95 89.174 1130.53 86.5344 1131.5 87.8542 1132.51 89.174 1133.48 90.4938 1135.46 92.1216 1138.1 88.2062 1136.43 85.8745 1136.12 85.5666 1135.77 84.9067 1134.8 84.2468 1135.77 83.5869 1136.43 82.927 1137.09 82.6191L1139.11 80.6834Z" fill="#004898" fill-rule="evenodd" fill-opacity="1" transform="matrix(1.01193 0 0 1 -195.742 172.257)"/><path d="M1102.51 101.096C1102.82 100.128 1103.48 98.4566 1103.17 95.1571L1155.57 95.1571C1154.25 97.4447 1152.93 100.436 1150.95 103.736 1149.98 105.363 1165.11 94.4972 1165.11 94.4972 1165.11 94.4972 1159.53 90.2299 1158.21 89.57 1158.21 89.57 1157.55 90.5378 1156.89 91.8576L1156.23 91.8576 1156.23 65.5057 1148.66 64.5379 1148.66 67.8374 1138.76 67.8374 1138.76 70.125 1148.66 70.125 1148.66 76.0641 1138.76 76.0641 1138.76 78.3517 1148.66 78.3517 1148.66 84.2908 1138.76 84.2908 1138.76 86.5784 1148.66 86.5784 1148.66 91.5057 1110.12 91.5057 1110.12 86.5784 1114.08 86.5784 1122 86.5784C1122.66 86.5784 1122 85.9185 1122 85.9185 1122 85.9185 1118.39 82.6191 1117.73 82.3111 1117.07 82.0031 1116.77 82.3111 1116.77 82.3111L1114.48 83.9388 1110.21 83.9388 1110.21 77.9998 1114.17 77.9998 1117.78 77.9998 1121.74 77.9998C1122.4 77.9998 1121.74 77.3399 1121.74 77.3399 1121.74 77.3399 1118.13 74.0404 1117.47 73.7324 1116.81 73.4245 1116.5 73.7324 1116.5 73.7324L1114.21 75.7121 1109.95 75.7121 1109.95 70.433C1112.89 70.125 1118.17 69.4651 1120.5 68.4533L1122.48 68.7612C1123.14 69.0692 1123.14 67.7934 1123.14 67.7934 1123.14 67.7934 1117.2 64.4939 1116.55 63.834 1115.89 63.1741 1115.23 64.4939 1115.23 64.4939L1109.64 68.7612 1109.64 64.4939 1102.07 64.4939 1102.07 91.1977 1101.41 91.1977C1101.1 89.8779 1100.44 88.5581 1099.78 86.9304 1099.48 86.9304 1099.48 86.9304 1099.48 86.9304 1099.48 86.9304 1098.51 92.5175 1094.55 100.128 1094.59 104.088 1100.88 104.396 1102.51 101.096Z" fill="#004898" fill-rule="evenodd" fill-opacity="1" transform="matrix(1.01193 0 0 1 -195.742 172.257)"/><path d="M1121.96 76.372C1120.33 77.9998 1125.26 76.0641 1129.87 73.4245 1130.53 74.3923 1131.19 75.7121 1131.85 76.724 1133.48 78.7037 1136.47 75.0962 1135.15 72.1047 1134.85 71.7967 1134.49 71.1369 1133.83 70.7849 1134.8 70.125 1135.81 69.4651 1136.12 68.8052L1138.1 67.1775C1138.1 67.1775 1133.17 64.8898 1132.51 64.8898 1131.55 64.5819 1131.85 64.8898 1131.85 65.1978 1131.19 66.1656 1130.53 67.1775 1129.87 68.4973 1128.56 67.8374 1126.93 67.1775 1124.6 66.8695 1124.6 66.8695 1124.29 67.1775 1124.6 67.1775 1124.6 67.1775 1125.92 68.8052 1127.9 71.1369 1125.26 74.0844 1121.96 76.372 1121.96 76.372Z" fill="#004898" fill-rule="evenodd" fill-opacity="1" transform="matrix(1.01193 0 0 1 -195.742 172.257)"/><path d="M733.761 125.16C737.06 118.561 730.461 125.16 732.133 109.015 731.825 108.355 731.473 108.707 731.473 109.015 731.473 109.015 728.834 116.274 725.534 120.541 724.566 120.541 714.008 120.541 710.049 120.541 707.409 120.541 703.45 120.849 703.802 117.902L703.802 112.622 717 112.622 717 114.91 724.566 114.91 724.566 101.712C728.174 105.012 731.165 105.979 732.485 106.639 734.773 107.299 734.465 106.639 735.125 105.671 735.785 102.724 736.093 100.744 739.392 99.7324 739.392 99.7324 739.392 99.4244 739.392 99.0725 731.473 97.4447 726.854 96.7848 721.267 90.4938L725.534 90.4938 738.732 90.4938C739.7 90.4938 739.04 89.174 739.04 89.174 739.04 89.174 732.793 83.5869 731.781 83.235 730.461 82.5751 730.154 83.235 730.154 83.235L725.534 87.1943 723.907 87.1943 723.907 76.636C725.226 76.636 735.785 76.636 737.104 76.636 738.072 76.636 737.412 75.3162 737.412 75.3162 737.412 75.3162 731.165 69.7291 730.154 69.3771 728.834 68.7172 728.526 69.3771 728.526 69.3771L724.259 72.9846 724.259 65.0658 716.692 64.098 716.692 73.3365 706.485 73.3365 706.485 64.098 698.918 64.098 698.918 73.3365 689.02 73.3365C689.02 72.6766 688.712 72.0167 688.36 71.3568 687.7 70.6969 683.741 66.0776 673.182 65.4177 673.182 65.7257 672.875 65.7257 673.182 65.7257 673.182 65.7257 677.802 69.0252 683.389 77.2519 685.017 79.5395 686.996 78.2197 688.008 76.284L690.648 76.284C687.7 86.4904 683.741 95.3771 678.462 104.968 678.154 105.627 675.822 108.267 672.875 108.267L670.235 108.575C669.927 108.575 669.575 108.883 669.927 109.543 671.555 110.203 670.895 109.235 672.215 109.851 679.122 111.171 676.834 122.697 677.494 127.008 677.186 129.648 685.413 128.636 686.38 122.081 686.072 116.802 684.401 114.514 682.421 111.215 682.421 110.907 682.729 110.247 682.729 109.895 682.729 109.895 683.037 109.895 683.389 109.895 688.668 108.927 693.287 106.287 697.247 102.988L697.247 119.133 697.247 120.453 697.247 120.761C697.907 124.72 701.206 126.348 703.494 126.348 711.061 126.348 719.639 126.348 726.238 126.348 730.461 127.14 732.749 126.788 733.761 125.16ZM705.737 77.3839 715.944 77.3839 715.944 87.9422 705.737 87.9422 705.737 77.3839ZM704.11 95.509C705.43 93.8813 706.397 92.2095 707.057 90.8898L717.264 90.8898C718.231 93.1774 719.243 94.8491 720.211 96.4769L716.912 96.1689 716.912 98.8085 703.714 98.8085 703.714 95.509 704.11 95.509ZM704.11 102.108 717.308 102.108 717.308 109.675 704.11 109.675 704.11 102.108ZM682.685 109.675C683.653 105.407 685.633 98.1486 687.612 91.2417L696.851 91.2417C695.531 95.509 691.264 105.407 682.685 109.675ZM698.171 87.9422 688.624 87.9422C689.944 83.6749 690.912 79.7155 691.572 77.3839L698.171 77.3839 698.171 87.9422Z" fill="#004898" fill-rule="evenodd" fill-opacity="1" transform="matrix(1.01193 0 0 1 -195.742 172.257)"/><path d="M678.374 93.5293C681.013 96.1689 684.621 90.5818 682.641 86.9304 681.673 85.6106 679.034 82.0031 669.443 80.9913 669.443 81.2993 669.135 81.2993 669.443 81.2993 669.487 81.6512 673.798 85.9625 678.374 93.5293Z" fill="#004898" fill-rule="evenodd" fill-opacity="1" transform="matrix(1.01193 0 0 1 -195.742 172.257)"/><path d="M903.134 110.335 903.134 114.954 930.498 114.954 930.498 118.253 903.134 118.253 903.134 122.873 930.498 122.873 930.498 126.128 903.134 126.128 903.134 128.46 895.568 128.46 895.568 105.715 903.134 105.715 903.134 107.387 930.498 107.387 930.498 110.335Z" fill="#004898" fill-rule="evenodd" fill-opacity="1" transform="matrix(1.01193 0 0 1 -195.742 172.257)"/><path d="M920.6 67.8374C922.227 66.5176 923.239 65.5497 922.579 65.5497 918.972 64.8898 914.661 64.2299 909.733 63.2621L909.425 63.57C906.786 68.1893 898.559 76.416 890.64 81.6952 887.033 84.3348 883.382 86.3145 880.434 87.2823 880.434 88.2502 885.053 87.5903 890.64 85.6546L890.64 104.088 898.207 104.088 898.207 82.663C898.867 82.3551 899.527 82.0031 900.187 81.6952L922.271 81.6952 931.818 81.6952C932.478 82.3551 933.446 82.663 934.106 83.3229L934.106 85.9625 898.207 85.9625 898.207 89.262 913.033 89.262 913.033 99.4684 909.074 99.4684C910.041 98.5006 910.701 96.1689 909.382 94.5412 908.414 93.5733 906.434 91.2417 899.483 91.2417L899.483 91.5497C899.483 91.5497 902.783 94.1892 906.742 99.1165L898.163 99.1165 898.163 102.416 934.062 102.416 934.062 104.044 941.628 104.044 941.628 86.8864C942.288 87.1943 942.596 87.1943 943.256 87.1943 945.544 87.5023 946.204 88.1622 946.864 86.5344 946.864 84.2468 947.524 83.235 949.151 81.2553 949.811 80.5954 951.791 79.2756 952.099 78.3077L952.099 77.9998C942.684 76.372 935.425 78.3517 920.6 67.8374ZM922.579 78.3517 905.114 78.6597C908.722 76.372 915.013 72.0607 918.972 69.1132 920.292 71.0929 922.579 73.3805 925.571 76.0201L922.579 78.3517ZM934.458 99.1165 921.919 99.1165C924.867 97.7967 932.786 92.8694 932.786 92.8694 932.786 92.8694 926.847 90.5818 925.879 89.9219 925.879 89.9219 924.251 93.2214 920.6 99.1605L919.28 99.1605 919.28 88.9541 934.106 88.9541 934.106 99.1605 934.458 99.1605Z" fill="#004898" fill-rule="evenodd" fill-opacity="1" transform="matrix(1.01193 0 0 1 -195.742 172.257)"/><path d="M938.417 128.46 938.417 106.067 930.498 105.056 930.806 128.46Z" fill="#004898" fill-rule="evenodd" fill-opacity="1" transform="matrix(1.01193 0 0 1 -195.742 172.257)"/><path d="M1028.38 86.9304 1043.56 86.9304C1043.56 86.9304 1055.75 86.9304 1056.76 86.9304 1057.73 86.9304 1057.07 85.6106 1057.07 85.6106 1057.07 85.6106 1050.82 80.0235 1049.81 79.6715 1048.49 79.0116 1048.18 79.6715 1048.18 79.6715L1043.56 83.279 1026.1 83.279 1026.1 64.4939 1017.52 64.4939 1017.52 83.5869 990.153 83.5869 990.153 86.8864 1017.52 86.8864C1016.86 96.4329 1013.91 118.869 988.173 127.756 988.481 128.064 988.833 128.064 989.493 128.064 1022.8 124.105 1026.05 95.1131 1026.05 87.1943 1033.31 120.497 1047.12 128.724 1052.4 128.064 1053.37 128.064 1051.44 122.125 1059.31 120.497L1059.31 119.837C1053.06 118.253 1035.6 109.323 1028.38 86.9304Z" fill="#004898" fill-rule="evenodd" fill-opacity="1" transform="matrix(1.01193 0 0 1 -195.742 172.257)"/><path d="M788.796 78.3517C791.436 81.9592 795.703 75.7121 793.724 72.1047 793.064 71.4448 789.104 66.8255 778.546 66.1656 778.546 66.4736 778.238 66.4736 778.546 66.4736 778.59 66.8255 783.209 70.125 788.796 78.3517Z" fill="#004898" fill-rule="evenodd" fill-opacity="1" transform="matrix(1.01193 0 0 1 -195.742 172.257)"/><path d="M791.744 122.873C791.436 117.594 789.764 115.306 787.785 112.006 788.092 110.027 789.104 106.419 790.424 102.108 791.084 103.736 794.691 104.396 796.671 103.076L803.27 103.076C805.25 109.323 808.549 113.942 812.157 117.594 806.878 121.553 800.631 124.852 792.712 126.832 792.712 126.832 792.712 127.492 792.712 127.14 801.95 126.832 809.517 124.193 816.116 120.893 826.323 128.46 838.201 128.812 838.201 127.8 838.509 122.521 841.808 121.201 844.14 119.881 844.448 119.221 843.832 119.221 842.82 119.221 836.573 119.529 829.622 118.561 823.375 116.582 829.314 112.314 833.581 107.695 836.573 104.044L837.893 102.064C837.893 102.064 836.573 101.096 834.945 100.084 839.212 97.4447 845.152 93.4854 845.152 93.4854 845.152 93.4854 838.905 89.526 837.585 88.5581 837.585 88.5581 836.925 89.526 835.957 91.5057L799.707 91.5057C799.707 90.5378 799.399 89.526 799.047 88.5581 798.739 88.5581 798.739 88.5581 798.739 88.5581 798.739 88.5581 796.759 93.4854 791.832 99.7764 794.471 90.5378 797.771 79.3636 798.431 75.4042 798.431 75.4042 798.739 71.1369 797.111 76.372 794.164 86.5784 790.204 95.817 784.573 105.715 784.265 106.375 781.933 109.015 778.986 109.015L776.346 109.323C776.038 109.323 775.686 109.631 776.038 110.291 777.666 110.951 777.006 109.983 778.326 110.599 785.233 111.918 782.945 123.445 783.605 127.756 782.857 130.088 791.084 129.12 791.744 122.873ZM816.468 113.634C812.201 110.995 808.241 107.695 805.25 103.076L825.355 103.076C823.067 106.727 820.119 110.335 816.468 113.634ZM799.663 95.1571 834.285 95.1571C833.625 96.1249 832.965 97.4447 832.306 98.7645 831.338 98.1046 830.326 97.4447 829.358 97.1368 829.358 97.1368 828.39 98.7645 827.378 100.084L798.695 100.084C799.355 98.8085 799.663 97.1368 799.663 95.1571Z" fill="#004898" fill-rule="evenodd" fill-opacity="1" transform="matrix(1.01193 0 0 1 -195.742 172.257)"/><path d="M784.177 93.5293C786.817 96.1689 790.424 90.5818 788.444 86.9304 787.477 85.6106 784.837 82.0031 775.247 80.9913 775.247 81.2993 774.939 81.2993 775.247 81.2993 775.29 81.6512 779.91 85.9625 784.177 93.5293Z" fill="#004898" fill-rule="evenodd" fill-opacity="1" transform="matrix(1.01193 0 0 1 -195.742 172.257)"/><path d="M826.015 88.6021 833.581 88.6021 833.581 78.7037 835.561 78.7037 844.448 78.7037C845.416 78.7037 844.448 77.7358 844.448 77.7358 844.448 77.7358 839.169 73.4685 838.509 72.8086 837.541 72.5006 837.189 72.8086 837.189 72.8086L833.889 75.4482 833.229 75.4482 833.229 65.5497 825.663 64.5819 825.663 67.8814 799.311 67.8814 799.311 70.8289 825.663 70.8289 825.663 75.7561 800.938 75.7561 800.938 78.7037 825.663 78.7037 825.663 83.6309 799.311 83.6309 799.311 86.5784 825.663 86.5784 825.663 88.5581 826.015 88.5581Z" fill="#004898" fill-rule="evenodd" fill-opacity="1" transform="matrix(1.01193 0 0 1 -195.742 172.257)"/><path d="M584.8 162.379 583.481 162.379 583.481 162.687C584.8 163.346 584.8 166.294 584.8 166.294L584.8 180.46 569.975 180.46 569.975 166.294C569.975 166.294 569.975 163.346 571.294 162.687L571.294 162.379 563.068 162.379 563.068 162.687C564.388 163.346 564.388 166.294 564.388 166.294L564.388 200.565C564.388 200.565 564.388 203.512 563.068 204.172L563.068 204.48 571.294 204.48 571.294 204.172C569.975 203.512 569.975 200.565 569.975 200.565L569.975 185.079 584.8 185.079 584.8 200.917C584.8 201.576 584.8 203.864 583.481 204.216L583.481 204.524 591.707 204.524 591.707 204.216C590.387 203.556 590.387 200.609 590.387 200.609L590.387 166.338C590.387 166.338 590.387 163.39 591.707 162.73L591.707 162.423 590.387 162.423 584.8 162.379Z" fill="#004898" fill-rule="evenodd" fill-opacity="1" transform="matrix(1.01193 0 0 1 -195.742 172.257)"/><path d="M689.592 181.824C690.912 182.483 690.912 185.431 690.912 185.431L690.912 185.431 690.912 198.937C689.944 199.597 687.304 200.917 683.345 200.917 678.418 200.917 675.778 198.629 675.778 189.39L675.778 175.225C675.778 166.338 682.025 165.986 683.697 165.986 686.996 165.678 692.276 166.954 694.255 169.593L694.255 162.994C691.968 162.335 688.008 161.367 683.697 161.675 674.81 161.675 670.499 166.954 670.499 175.533L670.499 189.39C670.499 200.917 674.766 205.536 683.697 205.536 688.976 205.536 693.243 204.216 696.543 202.236L696.543 181.824 689.592 181.824Z" fill="#004898" fill-rule="evenodd" fill-opacity="1" transform="matrix(1.01193 0 0 1 -195.742 172.257)"/><path d="M661.92 162.379 657.301 162.379 655.981 162.379 655.981 162.687C656.949 162.994 657.301 165.326 657.301 165.986L657.301 197.969 640.804 162.687 633.237 162.687 630.949 162.687 630.949 162.994C632.577 164.314 632.929 165.634 633.237 167.614L633.237 201.576C633.237 202.544 632.929 204.216 631.917 204.524L631.917 204.832 633.237 204.832 637.856 204.832 639.176 204.832 639.176 204.568C638.208 204.26 637.856 202.28 637.856 201.62L637.856 168.01C637.856 168.01 644.455 182.835 651.362 197.353 655.321 205.272 661.568 204.92 661.568 204.92L661.568 165.37C661.568 164.402 661.876 162.73 662.888 162.423L662.888 162.115 661.92 162.379Z" fill="#004898" fill-rule="evenodd" fill-opacity="1" transform="matrix(1.01193 0 0 1 -195.742 172.257)"/><path d="M611.812 161.411C602.926 161.411 598.614 166.69 598.614 175.269L598.614 189.126C598.614 200.653 602.881 205.272 611.812 205.272 620.743 205.272 625.01 200.653 625.01 189.126L625.01 175.269C625.01 166.998 620.743 161.411 611.812 161.411ZM619.731 189.082C619.731 198.321 617.091 200.609 612.164 200.609 607.237 200.609 604.597 198.321 604.597 189.082L604.597 174.917C604.597 166.03 610.536 166.03 612.164 166.03 613.792 166.03 619.731 166.338 619.731 174.917L619.731 189.082Z" fill="#004898" fill-rule="evenodd" fill-opacity="1" transform="matrix(1.01193 0 0 1 -195.742 172.257)"/><path d="M812.509 162.379C813.477 162.687 813.828 165.018 813.828 165.678L813.828 197.661 797.331 162.379 794.032 162.379 787.785 162.379 787.785 162.687C789.412 164.006 789.764 165.326 790.072 167.306L790.072 201.268C790.072 202.236 789.764 203.908 788.752 204.216L788.752 204.524 790.072 204.524 794.691 204.524 796.011 204.524 796.011 204.216C795.043 203.908 794.691 201.928 794.691 201.268L794.691 167.966C794.691 167.966 801.29 182.791 808.197 197.309 812.157 205.228 818.404 204.876 818.404 204.876L818.404 165.326C818.404 164.358 818.712 162.687 819.724 162.379L819.724 162.071 812.509 162.379Z" fill="#004898" fill-rule="evenodd" fill-opacity="1" transform="matrix(1.01193 0 0 1 -195.742 172.257)"/><path d="M749.247 200.301 736.401 181.516 751.578 162.73 750.258 162.73 743 162.73 743 163.038C745.287 164.358 741.68 167.306 739.392 170.297L730.813 181.164 730.506 181.164 730.506 165.986C730.506 165.326 730.813 163.346 731.825 162.687L731.825 162.379 723.599 162.379 723.599 162.687C724.918 163.346 724.918 165.634 724.918 165.986L724.918 200.609C724.918 200.609 724.918 203.556 723.599 204.216L723.599 204.524 724.918 204.524 730.198 204.524 731.517 204.524 731.517 204.216C730.198 203.556 730.198 200.609 730.198 200.609L730.198 182.483 730.506 182.483 743.703 202.236C744.671 204.216 745.683 204.216 749.291 204.216L753.25 204.216 753.25 203.908C751.886 202.94 750.566 201.62 749.247 200.301Z" fill="#004898" fill-rule="evenodd" fill-opacity="1" transform="matrix(1.01193 0 0 1 -195.742 172.257)"/><path d="M846.471 181.824C847.791 182.483 847.791 185.431 847.791 185.431L847.791 185.431 847.791 198.937C846.823 199.597 844.184 200.917 840.224 200.917 835.297 200.917 832.658 198.629 832.658 189.39L832.658 175.225C832.658 166.338 838.905 165.986 840.576 165.986 843.876 165.678 849.155 166.954 851.135 169.593L851.135 162.994C848.847 162.335 844.888 161.367 840.576 161.675 831.69 161.675 827.378 166.954 827.378 175.533L827.378 189.39C827.378 200.917 831.646 205.536 840.576 205.536 845.855 205.536 850.123 204.216 853.422 202.236L853.422 181.824 846.471 181.824Z" fill="#004898" fill-rule="evenodd" fill-opacity="1" transform="matrix(1.01193 0 0 1 -195.742 172.257)"/><path d="M768.692 161.719C759.805 161.719 755.494 166.998 755.494 175.576L755.494 189.434C755.494 200.961 759.761 205.58 768.692 205.58 777.622 205.58 781.889 200.961 781.889 189.434L781.889 175.576C781.889 166.998 777.578 161.411 768.692 161.719ZM768.692 200.609C763.764 200.609 761.125 198.321 761.125 189.082L761.125 174.917C761.125 166.03 767.064 166.03 768.692 166.03 770.319 166.03 776.258 166.338 776.258 174.917L776.258 189.082C776.258 198.321 773.619 200.609 768.692 200.609Z" fill="#004898" fill-rule="evenodd" fill-opacity="1" transform="matrix(1.01193 0 0 1 -195.742 172.257)"/><path d="M1023.76 162.379 1018.48 162.379 1017.16 162.379 1017.16 162.687C1018.48 163.346 1018.48 166.294 1018.48 166.294L1018.48 200.917C1018.48 200.917 1018.48 203.864 1017.16 204.524L1017.16 204.832 1025.39 204.832 1025.39 204.568C1024.42 204.26 1024.07 202.28 1024.07 201.62L1024.07 165.722C1024.07 164.754 1024.38 163.082 1025.39 162.774L1025.39 162.467 1023.76 162.467 1023.76 162.379Z" fill="#004898" fill-rule="evenodd" fill-opacity="1" transform="matrix(1.01193 0 0 1 -195.742 172.257)"/><path d="M1087.03 162.379 1063.62 162.379C1062.96 162.379 1062.65 162.379 1061.99 162.071L1060.37 168.978C1061.69 167.35 1063.01 167.35 1064.63 166.998L1071.89 166.998 1071.89 200.609C1071.89 200.609 1071.89 203.556 1070.57 204.216L1070.57 204.524 1078.8 204.524 1078.8 204.216C1077.83 203.908 1077.48 201.928 1077.48 200.917L1077.48 166.954 1085.4 166.954C1086.37 166.954 1087.38 167.262 1087.69 168.934L1089.01 162.027C1088.35 162.379 1087.69 162.379 1087.03 162.379Z" fill="#004898" fill-rule="evenodd" fill-opacity="1" transform="matrix(1.01193 0 0 1 -195.742 172.257)"/><path d="M1036.61 172.277C1036.61 167.658 1039.91 166.03 1043.21 166.03 1043.87 166.03 1044.84 166.03 1044.84 166.03L1044.84 166.03C1047.12 166.03 1052.1 166.998 1053.72 169.329L1053.41 162.73C1051.44 162.071 1046.82 161.411 1044.53 161.411L1044.53 162.071 1044.53 161.411C1044.22 161.411 1043.56 161.411 1043.21 161.411 1036.3 161.411 1031.02 165.37 1031.02 172.937 1031.02 185.475 1050.47 184.463 1050.47 193.702 1050.47 198.321 1047.17 200.301 1043.21 200.301L1040.57 200.301C1037.27 200.301 1033.66 198.981 1031.02 196.341L1032.34 203.6C1034.63 204.568 1039.6 205.228 1042.55 205.228 1049.15 205.536 1056.05 202.28 1056.05 193.702 1056.36 180.196 1036.61 181.516 1036.61 172.277Z" fill="#004898" fill-rule="evenodd" fill-opacity="1" transform="matrix(1.01193 0 0 1 -195.742 172.257)"/><path d="M1010.26 162.379 986.193 162.379 985.886 162.379C985.226 162.379 984.918 162.379 984.258 162.071L982.63 168.978C983.95 167.35 985.578 167.35 987.557 167.35L994.156 167.35 994.156 201.312C994.156 201.972 993.848 204.26 992.836 204.612L992.836 204.92 1001.06 204.92 1001.06 204.568C999.743 203.908 999.743 201.928 999.743 201.268L999.743 166.998 1006.65 166.998C1007.97 166.998 1009.6 166.998 1010.26 168.978L1011.58 162.071C1010.92 162.379 1010.57 162.379 1010.26 162.379Z" fill="#004898" fill-rule="evenodd" fill-opacity="1" transform="matrix(1.01193 0 0 1 -195.742 172.257)"/><path d="M900.187 182.483 900.187 182.483C905.466 180.856 907.446 177.556 907.446 172.277 907.446 171.617 907.138 168.978 905.818 166.69 904.19 164.402 902.211 162.423 896.58 162.423L883.074 162.423 881.754 162.423 881.754 162.73C882.722 163.038 883.074 165.018 883.074 166.03L883.074 201.312C883.074 201.972 882.766 203.952 881.754 204.612L881.754 204.92 889.981 204.92 896.58 204.92C901.199 204.92 909.117 203.952 909.117 193.042 908.766 186.795 906.434 183.143 900.187 182.483ZM888.309 166.998 895.876 166.998C900.495 166.998 902.475 169.945 902.475 173.245 902.475 177.204 900.495 179.844 896.228 179.844L888.309 179.844 888.309 166.998ZM895.568 199.641 888.001 199.641 888.001 184.815 893.588 184.815C899.175 184.815 903.134 186.135 903.134 192.734 903.486 195.681 901.507 199.641 895.568 199.641Z" fill="#004898" fill-rule="evenodd" fill-opacity="1" transform="matrix(1.01193 0 0 1 -195.742 172.257)"/><path d="M967.056 162.379 954.518 162.379 952.539 162.379 952.539 162.687C954.166 163.654 954.518 165.986 954.518 168.274L954.518 170.253 954.518 170.561 954.518 200.873C954.518 201.532 954.21 203.512 953.199 204.172L953.199 204.48 961.425 204.48 961.425 204.172C960.106 203.512 960.106 200.565 960.106 200.565L960.106 185.739 967.012 185.739C971.28 185.739 978.891 183.759 978.891 174.213 978.935 164.358 972.688 162.379 967.056 162.379ZM966.089 181.164 960.15 181.164 960.15 166.998 967.408 166.998C968.728 166.998 973.347 167.658 973.347 173.905 973.347 180.504 968.068 181.164 966.089 181.164Z" fill="#004898" fill-rule="evenodd" fill-opacity="1" transform="matrix(1.01193 0 0 1 -195.742 172.257)"/><path d="M944.356 196.033 944.356 196.033 933.49 162.423 926.583 162.423 924.603 162.423 924.603 162.73C925.923 163.39 925.923 164.358 925.571 165.678L925.263 166.998C925.263 167.306 924.955 167.966 924.955 168.318L914.749 199.949C914.089 201.576 913.121 203.248 911.801 204.216L911.801 204.524 921.04 204.524 921.04 204.216C919.72 203.556 919.412 202.896 919.72 201.928L923.019 190.71 937.185 190.71 940.485 201.576C940.793 202.896 940.485 203.204 939.165 204.216L939.165 204.524 948.711 204.524 948.711 204.216C947.392 203.248 946.424 201.576 945.764 199.949L944.356 196.033ZM924.251 186.135 929.838 167.35 935.425 186.135 924.251 186.135Z" fill="#004898" fill-rule="evenodd" fill-opacity="1" transform="matrix(1.01193 0 0 1 -195.742 172.257)"/><path d="M1194.81 162.379 1189.53 162.379 1188.21 162.379 1188.21 162.687C1189.18 162.994 1189.53 164.666 1189.53 165.634L1189.53 201.532C1189.53 202.5 1189.22 203.82 1188.21 204.48L1188.21 204.788 1196.44 204.788 1196.44 204.568C1195.47 204.26 1195.12 202.28 1195.12 201.62L1195.12 166.03C1195.12 165.37 1195.42 163.082 1196.44 162.73L1196.44 162.423 1194.81 162.423 1194.81 162.379Z" fill="#004898" fill-rule="evenodd" fill-opacity="1" transform="matrix(1.01193 0 0 1 -195.742 172.257)"/><path d="M1226.44 162.379 1226.44 162.379C1227.1 162.687 1227.1 163.346 1227.1 163.698L1217.55 198.629 1208.01 162.379 1202.07 162.379 1201.1 162.379 1201.1 162.687C1202.07 163.654 1202.73 164.974 1203.08 166.294L1204.05 169.241C1204.05 169.901 1204.36 170.209 1204.36 170.869L1211.26 194.933C1213.55 202.5 1215.88 204.172 1219.84 205.14L1222.79 194.933 1232.33 162.643 1227.72 162.643 1226.44 162.379Z" fill="#004898" fill-rule="evenodd" fill-opacity="1" transform="matrix(1.01193 0 0 1 -195.742 172.257)"/><path d="M1256.4 199.641 1255.74 199.641 1255.43 199.641 1245.22 199.641 1245.22 185.123 1258.42 185.123C1259.08 185.123 1260.05 185.431 1260.4 186.443L1260.4 180.196C1259.74 180.504 1259.08 180.504 1258.42 180.504L1256.14 180.504 1245.27 180.504 1245.27 166.998 1259.13 166.998C1259.79 166.998 1260.45 167.306 1261.41 168.626L1261.41 162.027C1261.11 162.335 1260.75 162.335 1260.45 162.335L1259.48 162.335 1240.03 162.335 1238.71 162.335 1238.71 162.643C1239.68 162.95 1240.03 164.93 1240.03 165.59L1240.03 201.18C1240.03 202.148 1239.73 203.82 1238.71 204.128L1238.71 204.436 1246.94 204.436 1260.45 204.436 1261.41 204.436 1263.39 196.869C1260.71 198.981 1258.73 199.641 1256.4 199.641Z" fill="#004898" fill-rule="evenodd" fill-opacity="1" transform="matrix(1.01193 0 0 1 -195.742 172.257)"/><path d="M1338.8 162.379 1333.52 162.379 1332.2 162.379 1332.2 162.687C1333.17 162.994 1333.52 164.666 1333.52 165.634L1333.52 201.532C1333.52 202.5 1333.21 203.82 1332.2 204.48L1332.2 204.788 1340.43 204.788 1340.43 204.568C1339.46 204.26 1339.11 202.28 1339.11 201.62L1339.11 165.722C1339.11 164.754 1339.41 163.082 1340.43 162.774L1340.43 162.467 1338.8 162.467 1338.8 162.379Z" fill="#004898" fill-rule="evenodd" fill-opacity="1" transform="matrix(1.01193 0 0 1 -195.742 172.257)"/><path d="M1403.07 162.379 1403.07 162.379 1400.12 162.379 1400.12 162.687C1402.1 164.006 1401.75 165.986 1401.09 167.306L1394.49 182.791 1387.89 166.954 1386.57 164.006C1385.91 162.687 1383.94 162.687 1382.62 162.687L1378.66 162.687C1380.64 164.006 1380.94 165.326 1382.26 167.614L1391.5 188.378 1391.5 201.224C1391.5 202.192 1391.19 203.864 1390.18 204.172L1390.18 204.48 1391.5 204.48 1396.78 204.48 1398.1 204.48 1398.1 204.172C1397.13 203.864 1396.78 202.192 1396.78 201.224L1396.78 188.378 1405.67 167.966 1407.96 162.687 1403.03 162.687 1403.03 162.379Z" fill="#004898" fill-rule="evenodd" fill-opacity="1" transform="matrix(1.01193 0 0 1 -195.742 172.257)"/><path d="M1373.07 162.379 1349.36 162.379 1348.7 162.379C1348.04 162.379 1347.73 162.071 1347.07 162.071L1345.44 168.978C1346.76 167.35 1348.39 167.35 1350.37 167.35L1356.97 167.35 1356.97 200.961C1356.97 200.961 1356.97 203.908 1355.65 204.568L1355.65 204.876 1363.87 204.876 1363.87 204.568C1362.91 204.26 1362.55 202.28 1362.55 201.62L1362.55 166.998 1369.46 166.998C1370.78 166.998 1372.41 166.69 1373.07 168.978L1373.38 166.998 1373.38 166.69 1374.34 162.071C1374.08 162.379 1373.73 162.379 1373.07 162.379Z" fill="#004898" fill-rule="evenodd" fill-opacity="1" transform="matrix(1.01193 0 0 1 -195.742 172.257)"/><path d="M1306.82 172.629C1306.82 168.01 1310.11 166.382 1313.41 166.382 1314.07 166.382 1315.04 166.382 1315.04 166.382L1315.04 166.382C1317.33 166.382 1322.3 167.35 1323.93 169.681L1323.62 163.082C1321.64 162.423 1317.02 161.763 1314.73 161.763L1314.73 162.423 1314.73 161.763C1314.43 161.763 1313.77 161.763 1313.41 161.763 1306.51 161.763 1301.23 165.722 1301.23 173.289 1301.23 185.827 1320.67 184.815 1320.67 194.054 1320.67 198.673 1317.37 200.653 1313.41 200.653L1310.77 200.653C1307.48 200.653 1303.87 199.333 1301.23 196.693L1302.55 203.952C1305.19 204.92 1310.77 205.58 1313.41 205.58 1320.01 205.272 1325.95 202.28 1325.95 194.054 1326.26 180.504 1306.82 181.824 1306.82 172.629Z" fill="#004898" fill-rule="evenodd" fill-opacity="1" transform="matrix(1.01193 0 0 1 -195.742 172.257)"/><path d="M1179.63 162.379 1175.01 162.379 1173.69 162.379 1173.69 162.687C1174.66 162.994 1175.01 165.326 1175.01 165.986L1175.01 197.969 1158.51 162.687 1150.95 162.687 1148.66 162.687 1148.66 162.994C1150.29 164.314 1150.64 165.634 1150.95 167.614L1150.95 201.576C1150.95 202.544 1150.64 204.216 1149.63 204.524L1149.63 204.832 1150.95 204.832 1155.57 204.832 1156.89 204.832 1156.89 204.568C1155.92 204.26 1155.57 202.588 1155.57 201.62L1155.57 168.01C1155.57 168.01 1162.17 182.835 1169.07 197.353 1173.03 205.272 1179.28 204.92 1179.28 204.92L1179.28 165.37C1179.28 164.402 1179.59 162.73 1180.6 162.423L1180.6 162.115 1179.63 162.379Z" fill="#004898" fill-rule="evenodd" fill-opacity="1" transform="matrix(1.01193 0 0 1 -195.742 172.257)"/><path d="M1141.09 162.379 1135.81 162.379 1134.49 162.379 1134.49 162.687C1135.46 162.994 1135.81 164.666 1135.81 165.634L1135.81 189.346C1135.81 198.585 1133.17 200.873 1127.9 200.873 1122.97 200.873 1119.98 198.585 1119.98 189.346L1119.98 165.942C1119.98 164.974 1120.28 163.302 1121.3 162.643L1121.3 162.335 1119.98 162.335 1114.7 162.335 1113.38 162.335 1113.38 162.643C1114.7 163.302 1114.7 166.25 1114.7 166.25L1114.7 188.994C1114.7 200.521 1118.96 205.14 1127.9 205.14 1136.78 205.14 1141.09 200.521 1141.09 188.994L1141.09 166.25C1141.09 166.25 1141.09 163.302 1142.41 162.643L1142.41 162.335 1141.09 162.335 1141.09 162.379Z" fill="#004898" fill-rule="evenodd" fill-opacity="1" transform="matrix(1.01193 0 0 1 -195.742 172.257)"/><path d="M1293.31 199.641 1285.39 185.123C1290.98 183.803 1293.97 178.524 1293.97 173.905 1293.97 168.626 1290.36 162.687 1282.75 162.687L1276.5 162.687 1270.92 162.687 1269.95 162.687 1268.63 162.687 1268.63 162.994C1269.95 163.654 1269.95 165.634 1269.95 166.294L1269.95 200.917C1269.95 200.917 1269.95 203.864 1268.63 204.524L1268.63 204.832 1276.86 204.832 1276.86 204.568C1275.54 203.908 1275.54 200.961 1275.54 200.961L1275.54 185.475 1279.8 185.475 1288.69 202.28C1289.66 204.568 1291.99 204.568 1294.28 204.568L1298.24 204.568 1298.24 204.26C1295.64 202.588 1294.63 201.928 1293.31 199.641ZM1275.18 180.504 1275.18 167.306 1281.78 167.306C1286.71 167.306 1288.69 170.913 1288.69 173.905 1288.69 177.204 1286.71 180.504 1281.78 180.504L1275.18 180.504Z" fill="#004898" fill-rule="evenodd" fill-opacity="1" transform="matrix(1.01193 0 0 1 -195.742 172.257)"/><path d="M452.645 188.422C452.645 188.422 422.334 176.896 384.412 182.483L384.412 77.0319C413.095 68.4533 437.819 79.9795 437.819 79.9795L437.819 61.5464C437.819 61.5464 403.549 46.7207 365.011 65.8137L365.011 85.9185 365.011 205.228C407.2 190.05 448.07 206.856 448.07 206.856 506.405 229.6 538.036 217.722 538.036 217.722L538.036 190.71C538.344 190.754 511.64 207.559 452.645 188.422Z" fill="#004898" fill-rule="evenodd" fill-opacity="1" transform="matrix(1.01193 0 0 1 -195.742 172.257)"/><path d="M518.899 182.175 518.899 42.1014C518.899 42.1014 479.349 24.2842 437.819 42.4094L437.819 61.5024C459.904 49.9762 483.616 51.6039 499.762 54.9034L499.762 158.375C485.904 156.088 465.799 155.076 446.046 161.323L446.046 74.3923C449.654 73.0725 454.625 71.4448 459.244 69.7731 462.192 68.8052 471.43 66.4736 471.782 76.0201 471.782 80.6394 471.782 82.927 471.782 89.218 471.782 90.8458 471.122 92.1656 469.494 92.8255 468.175 93.4854 463.907 94.1452 463.907 94.1452L463.907 102.372C463.907 102.372 464.215 102.372 468.175 101.712 470.814 101.404 471.474 103.032 471.474 105.671 471.474 111.611 471.474 123.489 471.474 123.489 471.474 123.489 471.474 125.776 470.154 127.448 468.835 129.076 463.555 129.076 463.555 129.076L463.555 136.995C463.555 136.995 469.802 136.687 472.794 135.367 473.762 135.059 477.413 133.387 478.381 130.44 479.701 126.48 479.701 110.027 479.041 102.416 478.733 97.4887 474.114 96.4769 474.114 96.4769 474.114 96.4769 479.041 94.1892 479.041 88.9101L479.041 72.4127C479.041 61.1944 468.483 57.587 458.628 60.5345 448.422 62.8222 437.203 67.7934 437.203 67.7934L437.203 183.451C473.41 162.73 518.899 182.175 518.899 182.175Z" fill="#004898" fill-rule="evenodd" fill-opacity="1" transform="matrix(1.01193 0 0 1 -195.742 172.257)"/><path d="M452.645 78.0438 452.645 144.957 452.645 152.876C452.645 152.876 454.933 152.216 459.244 151.556 466.151 150.236 478.997 149.269 493.207 150.896L493.207 144.297 493.207 60.5785C493.207 60.5785 488.939 59.2587 484.98 59.6107L484.98 142.67C474.774 142.362 466.547 142.978 460.608 143.637L460.608 75.4042C460.916 75.4042 456.297 76.0641 452.645 78.0438Z" fill="#004898" fill-rule="evenodd" fill-opacity="1" transform="matrix(1.01193 0 0 1 -195.742 172.257)"/><path d="M1779.96 63.878 1789.46 63.878 1789.46 73.3805 1779.96 73.3805Z" fill="#1B75BB" fill-rule="nonzero" fill-opacity="1" transform="matrix(1.01193 0 0 1 -195.742 172.257)"/><path d="M1792.5 49.5362 1805.43 49.5362 1805.43 62.4702 1792.5 62.4702Z" fill="#1B75BB" fill-rule="nonzero" fill-opacity="1" transform="matrix(1.01193 0 0 1 -195.742 172.257)"/><path d="M1744.11 198.849 1744.11 187.807C1744.11 187.807 1743.27 181.999 1736.58 181.692L1677.81 182.263 1647.01 182.263C1636.15 182.263 1628.23 180.636 1623.26 177.336 1618.29 174.037 1615.82 170.121 1615.82 165.546L1615.82 89.8339C1615.82 85.1267 1618.29 81.1673 1623.26 77.9118 1628.18 74.7003 1636.1 73.0725 1647.01 73.0725L1674.51 73.0286C1680.54 58.5988 1696.24 50.4601 1725.72 49.5362L1646.27 49.8882C1609.66 49.8882 1591.36 63.1741 1591.36 89.7899L1591.36 165.502C1591.36 192.118 1609.66 205.404 1646.27 205.404L1677.81 205.404 1736.54 205.58C1740.15 205.624 1744.15 201.532 1744.11 198.849Z" fill="#1B75BB" fill-rule="nonzero" fill-opacity="1" transform="matrix(1.01193 0 0 1 -195.742 172.257)"/><path d="M1785.02 114.646 1734.38 114.646C1721.8 114.646 1712.92 113.018 1707.68 109.719 1702.45 106.419 1699.85 102.504 1699.85 97.9287L1699.85 89.57C1699.85 84.8627 1702.45 80.9033 1707.68 77.6478 1712.92 74.4363 1716.44 73.3365 1734.08 73.3365L1756.38 73.3365C1759.81 73.3365 1762.14 71.8407 1763.2 69.905 1764.26 67.9693 1764.83 65.0658 1764.83 61.2384 1764.83 57.367 1764.3 54.4635 1763.2 52.5718 1762.14 50.6361 1759.86 49.5802 1756.42 49.5802L1735.26 49.5802C1731.92 49.5362 1728.71 49.5362 1725.67 49.6242 1696.15 50.5041 1680.45 58.6868 1674.47 73.1165 1672.49 77.9118 1671.52 83.4109 1671.52 89.614L1671.52 97.9726C1671.52 124.588 1692.68 137.874 1735 137.874L1785.64 137.874C1798.22 137.874 1807.1 139.502 1812.34 142.802 1817.58 146.101 1820.17 150.016 1820.17 154.592L1820.17 165.326C1820.17 170.033 1817.58 173.993 1812.34 177.248 1807.1 180.46 1798.22 182.087 1785.64 182.087L1737.46 181.78 1736.94 181.78 1736.54 181.78C1736.58 181.78 1736.58 181.78 1736.58 181.78 1743.27 182.087 1744.11 187.895 1744.11 187.895L1744.11 198.937C1744.15 201.664 1740.15 205.712 1736.54 205.756 1736.54 205.756 1736.54 205.756 1736.5 205.756L1736.63 205.756 1737.46 205.756 1784.58 205.184C1827.3 205.272 1848.46 191.986 1848.46 165.37L1848.46 154.636C1848.5 127.932 1827.34 114.646 1785.02 114.646Z" fill="#FAAF40" fill-rule="nonzero" fill-opacity="1" transform="matrix(1.01193 0 0 1 -195.742 172.257)"/><path d="M1914.27 142.318C1911.15 142.978 1907.89 143.33 1904.51 143.33 1894.74 143.33 1889.86 140.162 1889.86 133.871L1889.86 117.33C1889.86 110.687 1894.74 107.343 1904.51 107.343 1907.76 107.343 1910.93 107.695 1914.05 108.355L1914.05 112.226C1910.62 111.347 1907.45 110.951 1904.59 110.951 1903.23 110.951 1902.04 111.039 1900.99 111.171 1899.93 111.347 1898.92 111.611 1897.91 112.006 1896.89 112.402 1896.15 113.062 1895.62 113.942 1895.09 114.822 1894.83 115.922 1894.83 117.242L1894.83 133.563C1894.83 137.566 1898.17 139.59 1904.81 139.59 1907.67 139.59 1910.84 139.15 1914.27 138.314L1914.27 142.318Z" fill="#1B75BB" fill-rule="nonzero" fill-opacity="1" transform="matrix(1.01193 0 0 1 -195.742 172.257)"/><path d="M1949.55 117.33 1949.55 133.871C1949.55 135.763 1949.11 137.39 1948.19 138.71 1947.27 140.03 1946.04 140.998 1944.45 141.614 1942.87 142.23 1941.33 142.67 1939.79 142.934 1938.25 143.198 1936.58 143.33 1934.82 143.33 1925.09 143.33 1920.21 140.162 1920.21 133.871L1920.21 117.374C1920.21 110.731 1925.09 107.387 1934.82 107.387 1944.67 107.387 1949.55 110.731 1949.55 117.33ZM1944.54 133.827 1944.54 117.242C1944.54 112.93 1941.33 110.819 1934.86 110.819 1933.5 110.819 1932.31 110.907 1931.25 111.083 1930.2 111.259 1929.23 111.567 1928.26 112.006 1927.29 112.446 1926.55 113.106 1926.02 113.986 1925.49 114.866 1925.23 115.966 1925.23 117.286L1925.23 133.871C1925.23 137.874 1928.48 139.898 1934.95 139.898 1941.33 139.81 1944.54 137.83 1944.54 133.827Z" fill="#1B75BB" fill-rule="nonzero" fill-opacity="1" transform="matrix(1.01193 0 0 1 -195.742 172.257)"/><path d="M1994.82 142.758 1990.25 142.758 1990.25 113.282 1989.98 113.282 1978.77 142.758 1974.1 142.758 1962.58 113.282 1962.31 113.282 1962.31 142.758 1957.65 142.758 1957.65 107.915 1965.44 107.915 1976.61 136.907 1976.79 136.951 1987.34 107.915 1994.87 107.915 1994.87 142.758Z" fill="#1B75BB" fill-rule="nonzero" fill-opacity="1" transform="matrix(1.01193 0 0 1 -195.742 172.257)"/><path d="M2027.51 114.822 2027.51 122.081C2027.51 125.072 2026.37 127.14 2024.03 128.372 2021.75 129.604 2018.45 130.22 2014.22 130.22L2009.03 130.22 2009.03 142.758 2003.84 142.758 2003.84 107.915 2015.24 107.915C2016.69 107.915 2017.92 107.959 2018.93 108.003 2019.99 108.091 2021.09 108.267 2022.23 108.531 2023.37 108.795 2024.34 109.191 2025 109.675 2025.71 110.159 2026.28 110.819 2026.76 111.698 2027.25 112.578 2027.51 113.59 2027.51 114.822ZM2022.41 121.773 2022.41 115.438C2022.41 114.47 2022.14 113.678 2021.66 113.062 2021.18 112.446 2020.43 112.006 2019.5 111.742 2018.58 111.479 2017.79 111.347 2017.17 111.303 2016.56 111.259 2015.76 111.215 2014.84 111.215L2008.99 111.215 2008.99 126.964 2014.93 126.964C2017 126.964 2018.76 126.568 2020.21 125.82 2021.7 125.028 2022.41 123.709 2022.41 121.773Z" fill="#1B75BB" fill-rule="nonzero" fill-opacity="1" transform="matrix(1.01193 0 0 1 -195.742 172.257)"/><path d="M2061.65 107.959 2061.65 133.871C2061.65 140.162 2057.12 143.33 2048.01 143.33 2046.21 143.33 2044.58 143.198 2043.13 142.978 2041.68 142.758 2040.27 142.318 2038.9 141.702 2037.5 141.086 2036.4 140.118 2035.65 138.798 2034.86 137.478 2034.46 135.851 2034.46 133.915L2034.46 108.003 2039.43 108.003 2039.43 133.871C2039.43 136.159 2040.18 137.742 2041.72 138.578 2043.26 139.458 2045.37 139.854 2048.1 139.854 2050.83 139.854 2052.94 139.414 2054.39 138.578 2055.89 137.698 2056.63 136.159 2056.63 133.871L2056.63 108.003 2061.65 108.003Z" fill="#1B75BB" fill-rule="nonzero" fill-opacity="1" transform="matrix(1.01193 0 0 1 -195.742 172.257)"/><path d="M2096.32 111.611 2084.57 111.611 2084.57 142.802 2079.29 142.802 2079.29 111.611 2067.5 111.611 2067.5 107.959 2096.32 107.959 2096.32 111.611Z" fill="#1B75BB" fill-rule="nonzero" fill-opacity="1" transform="matrix(1.01193 0 0 1 -195.742 172.257)"/><path d="M2126.05 142.758 2102.12 142.758 2102.12 107.915 2125.53 107.915 2125.53 111.567 2107.31 111.567 2107.31 122.961 2123.72 122.961 2123.72 126.612 2107.31 126.612 2107.31 139.106 2126.05 139.106 2126.05 142.758Z" fill="#1B75BB" fill-rule="nonzero" fill-opacity="1" transform="matrix(1.01193 0 0 1 -195.742 172.257)"/><path d="M2159.84 142.758 2153.46 142.758 2143.48 127.888 2138.42 127.888 2138.42 142.758 2133.23 142.758 2133.23 107.915 2145.46 107.915C2149.81 107.915 2152.93 108.355 2154.83 109.235 2156.72 110.115 2157.69 111.962 2157.69 114.734L2157.69 120.761C2157.69 122.917 2156.81 124.544 2155.05 125.6 2153.29 126.7 2151.18 127.228 2148.67 127.228L2159.84 142.758ZM2152.49 120.145 2152.49 115.306C2152.49 112.71 2150.25 111.391 2145.72 111.391L2138.42 111.391 2138.42 124.5 2145.24 124.5C2147.7 124.5 2149.55 124.193 2150.69 123.577 2151.92 122.961 2152.49 121.817 2152.49 120.145Z" fill="#1B75BB" fill-rule="nonzero" fill-opacity="1" transform="matrix(1.01193 0 0 1 -195.742 172.257)"/><path d="M2201.5 130.967 2201.5 133.475C2201.5 137.214 2200.45 139.766 2198.34 141.174 2196.22 142.582 2192.92 143.286 2188.48 143.286 2185.62 143.286 2182.06 142.978 2177.83 142.406L2177.83 138.05C2182.06 138.93 2185.71 139.37 2188.79 139.37 2191.25 139.37 2193.14 139.106 2194.46 138.534 2195.78 137.962 2196.44 136.863 2196.44 135.191L2196.44 130.66C2196.44 129.208 2196 128.152 2195.17 127.536 2194.33 126.92 2192.84 126.612 2190.64 126.612L2186.55 126.612C2183.03 126.612 2180.61 125.908 2179.2 124.5 2177.83 123.093 2177.13 121.025 2177.13 118.253L2177.13 115.482C2177.13 112.71 2178.1 110.687 2180.03 109.367 2181.97 108.047 2185.58 107.387 2190.81 107.387 2193.32 107.387 2196.31 107.607 2199.79 107.959L2199.79 111.874C2195.83 111.259 2192.7 110.951 2190.46 110.951 2187.12 110.951 2184.92 111.303 2183.82 111.962 2182.72 112.622 2182.19 113.722 2182.19 115.306L2182.19 119.265C2182.19 120.497 2182.63 121.377 2183.47 121.905 2184.3 122.477 2185.84 122.741 2188.04 122.741L2192.22 122.741C2195.83 122.741 2198.29 123.401 2199.57 124.72 2200.89 126.084 2201.5 128.152 2201.5 130.967Z" fill="#1B75BB" fill-rule="nonzero" fill-opacity="1" transform="matrix(1.01193 0 0 1 -195.742 172.257)"/><path d="M2232.3 142.318C2229.17 142.978 2225.92 143.33 2222.53 143.33 2212.77 143.33 2207.88 140.162 2207.88 133.871L2207.88 117.33C2207.88 110.687 2212.77 107.343 2222.53 107.343 2225.79 107.343 2228.95 107.695 2232.08 108.355L2232.08 112.226C2228.65 111.347 2225.48 110.951 2222.62 110.951 2221.26 110.951 2220.07 111.039 2219.01 111.171 2217.96 111.347 2216.94 111.611 2215.93 112.006 2214.92 112.402 2214.17 113.062 2213.65 113.942 2213.12 114.822 2212.85 115.922 2212.85 117.242L2212.85 133.563C2212.85 137.566 2216.2 139.59 2222.84 139.59 2225.7 139.59 2228.87 139.15 2232.3 138.314L2232.3 142.318Z" fill="#1B75BB" fill-rule="nonzero" fill-opacity="1" transform="matrix(1.01193 0 0 1 -195.742 172.257)"/><path d="M2244.44 142.758 2239.25 142.758 2239.25 107.915 2244.44 107.915 2244.44 142.758Z" fill="#1B75BB" fill-rule="nonzero" fill-opacity="1" transform="matrix(1.01193 0 0 1 -195.742 172.257)"/><path d="M2277.39 142.758 2253.46 142.758 2253.46 107.915 2276.86 107.915 2276.86 111.567 2258.65 111.567 2258.65 122.961 2275.06 122.961 2275.06 126.612 2258.65 126.612 2258.65 139.106 2277.39 139.106 2277.39 142.758Z" fill="#1B75BB" fill-rule="nonzero" fill-opacity="1" transform="matrix(1.01193 0 0 1 -195.742 172.257)"/><path d="M2314.39 142.758 2308.1 142.758 2289.14 113.502 2289.14 142.758 2284.56 142.758 2284.56 107.915 2290.85 107.915 2309.81 136.687 2309.81 107.915 2314.39 107.915 2314.39 142.758Z" fill="#1B75BB" fill-rule="nonzero" fill-opacity="1" transform="matrix(1.01193 0 0 1 -195.742 172.257)"/><path d="M2346.77 142.318C2343.64 142.978 2340.39 143.33 2337 143.33 2327.24 143.33 2322.35 140.162 2322.35 133.871L2322.35 117.33C2322.35 110.687 2327.24 107.343 2337 107.343 2340.26 107.343 2343.42 107.695 2346.55 108.355L2346.55 112.226C2343.12 111.347 2339.95 110.951 2337.09 110.951 2335.73 110.951 2334.54 111.039 2333.48 111.171 2332.43 111.347 2331.41 111.611 2330.4 112.006 2329.39 112.402 2328.64 113.062 2328.12 113.942 2327.59 114.822 2327.32 115.922 2327.32 117.242L2327.32 133.563C2327.32 137.566 2330.67 139.59 2337.31 139.59 2340.17 139.59 2343.34 139.15 2346.77 138.314L2346.77 142.318Z" fill="#1B75BB" fill-rule="nonzero" fill-opacity="1" transform="matrix(1.01193 0 0 1 -195.742 172.257)"/><path d="M2377.61 142.758 2353.68 142.758 2353.68 107.915 2377.08 107.915 2377.08 111.567 2358.87 111.567 2358.87 122.961 2375.28 122.961 2375.28 126.612 2358.87 126.612 2358.87 139.106 2377.61 139.106 2377.61 142.758Z" fill="#1B75BB" fill-rule="nonzero" fill-opacity="1" transform="matrix(1.01193 0 0 1 -195.742 172.257)"/><path d="M1915.99 62.6902 1915.99 75.8881C1915.99 81.2993 1911.81 83.9828 1903.49 83.9828L1891.57 83.9828 1891.57 54.1115 1903.45 54.1115C1911.81 54.1555 1915.99 56.9711 1915.99 62.6902ZM1911.68 75.8001 1911.68 62.6462C1911.68 61.5024 1911.46 60.5785 1910.97 59.8306 1910.53 59.0827 1909.87 58.5108 1909.04 58.1589 1908.2 57.8069 1907.32 57.543 1906.44 57.411 1905.56 57.279 1904.51 57.191 1903.36 57.191L1896.01 57.191 1896.01 80.9473 1903.14 80.9473C1908.86 80.9473 1911.68 79.2316 1911.68 75.8001Z" fill="#6D6E70" fill-rule="nonzero" fill-opacity="1" transform="matrix(1.01193 0 0 1 -195.742 172.257)"/><path d="M1943.31 83.9828 1922.81 83.9828 1922.81 54.1115 1942.87 54.1115 1942.87 57.235 1927.25 57.235 1927.25 67.0015 1941.33 67.0015 1941.33 70.125 1927.25 70.125 1927.25 80.8593 1943.31 80.8593 1943.31 83.9828Z" fill="#6D6E70" fill-rule="nonzero" fill-opacity="1" transform="matrix(1.01193 0 0 1 -195.742 172.257)"/><path d="M1969.75 60.0066 1969.75 66.2096C1969.75 68.7612 1968.78 70.5649 1966.8 71.6208 1964.82 72.6766 1962 73.2045 1958.4 73.2045L1953.95 73.2045 1953.95 83.9828 1949.51 83.9828 1949.51 54.1115 1959.28 54.1115C1960.51 54.1115 1961.56 54.1555 1962.44 54.1995 1963.32 54.2435 1964.29 54.4195 1965.26 54.6394 1966.27 54.8594 1967.06 55.2113 1967.64 55.6073 1968.25 56.0032 1968.74 56.5751 1969.18 57.323 1969.53 58.1149 1969.75 58.9948 1969.75 60.0066ZM1965.39 65.9897 1965.39 60.5785C1965.39 59.7426 1965.17 59.0827 1964.73 58.5108 1964.29 57.9829 1963.68 57.587 1962.88 57.367 1962.09 57.147 1961.43 57.0151 1960.9 56.9711 1960.38 56.9271 1959.72 56.8831 1958.88 56.8831L1953.87 56.8831 1953.87 70.345 1958.97 70.345C1960.73 70.345 1962.27 70.037 1963.5 69.3771 1964.78 68.7612 1965.39 67.6174 1965.39 65.9897Z" fill="#6D6E70" fill-rule="nonzero" fill-opacity="1" transform="matrix(1.01193 0 0 1 -195.742 172.257)"/><path d="M1997.64 83.9828 1992.98 83.9828 1989.59 74.9203 1976.79 74.9203 1973.44 83.9828 1969.04 83.9828 1980.92 54.1115 1986.07 54.1115 1997.64 83.9828ZM1988.49 71.8407 1983.43 58.3789 1983.03 58.3789 1977.97 71.8407 1988.49 71.8407Z" fill="#6D6E70" fill-rule="nonzero" fill-opacity="1" transform="matrix(1.01193 0 0 1 -195.742 172.257)"/><path d="M2025 83.9828 2019.55 83.9828 2010.97 71.2248 2006.66 71.2248 2006.66 83.9828 2002.21 83.9828 2002.21 54.1115 2012.68 54.1115C2016.42 54.1115 2019.11 54.5075 2020.74 55.2553 2022.36 56.0032 2023.16 57.587 2023.16 59.9626L2023.16 65.1098C2023.16 66.9575 2022.41 68.3213 2020.91 69.2891 2019.42 70.213 2017.57 70.6969 2015.46 70.6969L2025 83.9828ZM2018.71 64.5819 2018.71 60.4465C2018.71 58.2029 2016.78 57.1031 2012.9 57.1031L2006.66 57.1031 2006.66 68.3213 2012.51 68.3213C2014.62 68.3213 2016.2 68.0573 2017.22 67.5294 2018.18 67.0015 2018.71 66.0337 2018.71 64.5819Z" fill="#6D6E70" fill-rule="nonzero" fill-opacity="1" transform="matrix(1.01193 0 0 1 -195.742 172.257)"/><path d="M2052.28 57.279 2042.2 57.279 2042.2 84.0268 2037.72 84.0268 2037.72 57.279 2027.6 57.279 2027.6 54.1555 2052.32 54.1555 2052.32 57.279Z" fill="#6D6E70" fill-rule="nonzero" fill-opacity="1" transform="matrix(1.01193 0 0 1 -195.742 172.257)"/><path d="M2089.14 83.9828 2085.23 83.9828 2085.23 58.7308 2085.01 58.7308 2075.37 83.9828 2071.37 83.9828 2061.47 58.7308 2061.25 58.7308 2061.25 83.9828 2057.25 83.9828 2057.25 54.1115 2063.94 54.1115 2073.53 78.9676 2073.66 79.0116 2082.72 54.1115 2089.14 54.1115 2089.14 83.9828Z" fill="#6D6E70" fill-rule="nonzero" fill-opacity="1" transform="matrix(1.01193 0 0 1 -195.742 172.257)"/><path d="M2117.39 83.9828 2096.89 83.9828 2096.89 54.1115 2116.95 54.1115 2116.95 57.235 2101.33 57.235 2101.33 67.0015 2115.41 67.0015 2115.41 70.125 2101.33 70.125 2101.33 80.8593 2117.39 80.8593 2117.39 83.9828Z" fill="#6D6E70" fill-rule="nonzero" fill-opacity="1" transform="matrix(1.01193 0 0 1 -195.742 172.257)"/><path d="M2149.06 83.9828 2143.7 83.9828 2127.46 58.9068 2127.46 83.9828 2123.55 83.9828 2123.55 54.1115 2128.91 54.1115 2145.15 78.7916 2145.15 54.1115 2149.06 54.1115 2149.06 83.9828Z" fill="#6D6E70" fill-rule="nonzero" fill-opacity="1" transform="matrix(1.01193 0 0 1 -195.742 172.257)"/><path d="M2178.76 57.279 2168.68 57.279 2168.68 84.0268 2164.2 84.0268 2164.2 57.279 2154.08 57.279 2154.08 54.1555 2178.8 54.1555 2178.8 57.279Z" fill="#6D6E70" fill-rule="nonzero" fill-opacity="1" transform="matrix(1.01193 0 0 1 -195.742 172.257)"/><path d="M2218.62 62.2063 2218.62 76.372C2218.62 77.9998 2218.22 79.3636 2217.43 80.5074 2216.64 81.6512 2215.58 82.4871 2214.22 83.015 2212.85 83.5429 2211.53 83.9388 2210.21 84.1588 2208.89 84.3788 2207.49 84.4668 2205.95 84.4668 2197.59 84.4668 2193.45 81.7832 2193.45 76.372L2193.45 62.2502C2193.45 56.5311 2197.63 53.6716 2205.95 53.6716 2214.44 53.6716 2218.62 56.5311 2218.62 62.2063ZM2214.3 76.328 2214.3 62.1183C2214.3 58.4228 2211.53 56.5751 2206.03 56.5751 2204.89 56.5751 2203.83 56.6631 2202.95 56.7951 2202.07 56.9271 2201.2 57.191 2200.36 57.587 2199.52 57.9829 2198.91 58.5548 2198.42 59.3027 2197.98 60.0506 2197.72 61.0184 2197.72 62.1183L2197.72 76.328C2197.72 79.7595 2200.49 81.4752 2206.03 81.4752 2211.58 81.4752 2214.3 79.7595 2214.3 76.328Z" fill="#6D6E70" fill-rule="nonzero" fill-opacity="1" transform="matrix(1.01193 0 0 1 -195.742 172.257)"/><path d="M2246.07 57.279 2230.01 57.279 2230.01 67.0455 2244.53 67.0455 2244.53 70.169 2230.01 70.169 2230.01 84.0268 2225.57 84.0268 2225.57 54.1555 2246.07 54.1555 2246.07 57.279Z" fill="#6D6E70" fill-rule="nonzero" fill-opacity="1" transform="matrix(1.01193 0 0 1 -195.742 172.257)"/><path d="M1892.19 200.213 1894.56 200.213 1894.56 197.573 1902 197.573 1902 199.861 1904.37 199.861 1904.37 186.575 1892.19 186.575 1892.19 200.213ZM1902 188.774 1902 195.241 1894.56 195.241 1894.56 188.774 1902 188.774Z" fill="#1B75BB" fill-rule="nonzero" fill-opacity="1" transform="matrix(1.01193 0 0 1 -195.742 172.257)"/><path d="M1916.78 163.434 1914.23 163.434 1914.23 176.544 1905.65 176.544 1905.65 178.964 1914.23 178.964 1914.23 200.961 1916.78 200.961 1916.78 178.964 1927.07 178.964 1927.07 176.544 1916.78 176.544Z" fill="#1B75BB" fill-rule="nonzero" fill-opacity="1" transform="matrix(1.01193 0 0 1 -195.742 172.257)"/><path d="M1891.4 175.445 1904.59 175.445 1904.59 177.688 1891.4 177.688Z" fill="#1B75BB" fill-rule="nonzero" fill-opacity="1" transform="matrix(1.01193 0 0 1 -195.742 172.257)"/><path d="M1891.4 181.076 1904.59 181.076 1904.59 183.275 1891.4 183.275Z" fill="#1B75BB" fill-rule="nonzero" fill-opacity="1" transform="matrix(1.01193 0 0 1 -195.742 172.257)"/><path d="M1906.62 169.989 1898.92 169.989 1900.33 168.978 1900.19 168.714C1899.18 166.822 1897.95 165.062 1896.54 163.522L1896.37 163.302 1894.39 164.578 1894.65 164.886C1896.01 166.514 1897.11 168.23 1897.95 169.989L1889.68 169.989 1889.68 172.233 1906.66 172.233 1906.66 169.989Z" fill="#1B75BB" fill-rule="nonzero" fill-opacity="1" transform="matrix(1.01193 0 0 1 -195.742 172.257)"/><path d="M1962.75 188.95 1968.65 188.95 1968.65 173.113 1967.55 173.113 1969.31 171.749 1969.04 171.485C1968.3 170.693 1967.46 169.945 1966.58 169.197L1974.15 169.197 1974.15 166.954 1961.34 166.954C1961.87 166.118 1962.36 165.238 1962.75 164.314L1962.88 163.962 1960.68 163.346 1960.55 163.61C1960.02 164.842 1959.19 166.162 1958.05 167.614 1956.95 169.021 1955.67 170.341 1954.22 171.441L1953.91 171.705 1955.58 173.113 1951.31 173.113 1953.07 171.793 1952.85 171.529C1952.19 170.737 1951.45 169.989 1950.7 169.241L1956.55 169.241 1956.55 166.998 1946.26 166.998C1946.74 166.162 1947.22 165.238 1947.62 164.358L1947.75 164.006 1945.55 163.39 1945.42 163.654C1944.8 165.194 1943.79 166.866 1942.38 168.626 1941.06 170.385 1939.48 171.969 1937.72 173.377L1937.41 173.641 1939.17 175.137 1939.39 174.961C1941.06 173.597 1942.69 171.925 1944.19 170.077 1944.41 169.813 1944.58 169.549 1944.76 169.285L1947.49 169.285C1948.81 170.517 1949.95 171.793 1950.96 173.069L1951.05 173.201 1943.84 173.201 1943.84 189.038 1949.73 189.038C1949.69 189.918 1949.6 190.754 1949.47 191.502L1938.2 191.502 1938.2 193.746 1948.72 193.746C1948.63 193.878 1948.59 193.966 1948.5 194.054 1947.75 195.065 1946.56 195.945 1944.94 196.693 1943.26 197.485 1941.02 198.145 1938.34 198.673L1937.9 198.761 1939.08 200.829 1939.3 200.785C1942.25 200.169 1944.67 199.377 1946.56 198.409 1948.45 197.573 1949.82 196.473 1950.7 195.241 1951.01 194.845 1951.27 194.318 1951.49 193.746L1960.51 193.746 1960.51 200.785 1962.88 200.785 1962.88 193.746 1974.89 193.746 1974.89 191.502 1962.88 191.502 1962.88 188.95ZM1955.93 173.069C1957.25 172.013 1958.49 170.737 1959.72 169.241L1963.24 169.241C1964.73 170.473 1966.1 171.749 1967.2 173.025L1967.28 173.113 1955.85 173.113 1955.93 173.069ZM1960.38 188.95 1960.38 191.414 1951.89 191.414C1951.97 190.71 1952.06 189.874 1952.11 188.95L1960.38 188.95ZM1966.27 184.375 1966.27 186.707 1946.21 186.707 1946.21 184.375 1966.27 184.375ZM1966.27 179.844 1966.27 182.131 1946.21 182.131 1946.21 179.844 1966.27 179.844ZM1966.27 175.357 1966.27 177.6 1946.21 177.6 1946.21 175.357 1966.27 175.357Z" fill="#1B75BB" fill-rule="nonzero" fill-opacity="1" transform="matrix(1.01193 0 0 1 -195.742 172.257)"/><path d="M2020.69 193.614C2020.56 195.549 2020.34 196.869 2020.08 197.529 2019.99 197.749 2019.81 197.969 2019.64 197.969 2019.02 197.969 2017.92 197.353 2015.98 194.45 2015.76 194.142 2015.54 193.79 2015.32 193.394 2016.82 191.986 2018.18 190.402 2019.37 188.642L2019.59 188.334 2017.61 187.191 2017.44 187.455C2016.51 188.818 2015.46 190.138 2014.31 191.282 2013.7 190.006 2013.17 188.598 2012.68 187.059L2022.93 187.059 2022.93 184.991 2019.28 184.991C2018.32 183.715 2017.22 182.571 2016.07 181.604 2017.44 181.428 2018.71 181.208 2019.86 180.9 2020.3 181.692 2020.69 182.571 2021 183.451L2021.13 183.847 2022.85 182.615 2022.76 182.351C2021.84 180.064 2020.65 177.952 2019.28 176.016L2019.11 175.752 2017.44 176.984 2017.66 177.248C2018.05 177.732 2018.45 178.304 2018.8 178.92 2017.66 179.228 2016.38 179.404 2014.97 179.536 2015.98 178.304 2016.95 176.94 2017.88 175.488 2019.24 173.377 2020.34 171.309 2021.09 169.329L2021.22 169.021 2019.2 168.186 2019.06 168.494C2018.58 169.637 2018.05 170.781 2017.39 171.969 2016.29 172.101 2015.15 172.233 2014 172.365 2014.62 171.529 2015.19 170.605 2015.72 169.637 2016.6 168.098 2017.3 166.558 2017.83 165.15L2017.92 164.842 2015.85 163.874 2015.72 164.226C2015.19 165.766 2014.49 167.306 2013.65 168.846 2012.95 170.121 2012.16 171.397 2011.23 172.541 2010.92 172.585 2010.57 172.585 2010.27 172.629L2010.09 172.629C2009.91 169.945 2009.83 166.998 2009.78 163.786L2009.78 163.434 2007.41 163.434 2007.41 163.786C2007.41 165.678 2007.45 167.482 2007.49 169.197L2005.82 168.494 2005.69 168.802C2005.25 169.857 2004.72 170.957 2004.15 172.013 2003.14 172.189 2002.08 172.365 2001.03 172.497 2001.55 171.705 2002.08 170.825 2002.61 169.813 2003.49 168.23 2004.15 166.734 2004.68 165.326L2004.77 165.018 2002.7 164.05 2002.57 164.402C2002.04 165.942 2001.38 167.482 2000.54 168.978 1999.84 170.253 1999.05 171.485 1998.21 172.717L1997.33 172.761 1997.33 171.353 1993.55 171.353 1993.55 163.39 1991.17 163.39 1991.17 171.353 1986.02 171.353 1986.02 173.597 1990.86 173.597C1990.51 176.28 1989.85 178.964 1989.02 181.56 1987.96 184.771 1986.77 187.455 1985.5 189.654L1985.36 189.918 1987.3 191.59 1987.52 191.238C1988.75 188.95 1989.76 186.575 1990.51 184.243 1990.78 183.539 1991 182.747 1991.22 181.955L1991.22 200.961 1993.59 200.961 1993.59 178.48C1994.56 180.284 1995.35 182.175 1995.92 184.155L1996.06 184.595 1998.21 183.099 1998.12 182.879C1998.03 182.659 1997.99 182.483 1997.9 182.263L1998.12 182.263C2001.16 182.175 2003.8 181.868 2005.91 181.252 2006.13 181.824 2006.35 182.439 2006.53 183.099L2006.61 183.451 2008.81 182.791 2008.73 182.483C2008.02 180.284 2007.05 178.26 2005.73 176.5L2005.56 176.28 2003.58 177.16C2003.89 176.72 2004.15 176.324 2004.46 175.884 2005.73 173.949 2006.75 172.101 2007.58 170.341 2007.85 176.412 2008.46 181.34 2009.52 185.035L2009.56 185.167 2003.84 185.167C2003.97 184.419 2004.06 183.671 2004.15 182.835L2004.19 182.483 2001.69 182.483 2001.64 182.791C2001.55 183.583 2001.47 184.375 2001.33 185.167L1995.66 185.167 1995.66 187.235 2001.03 187.235C2000.85 188.027 2000.67 188.774 2000.5 189.478 1999.88 191.634 1999.05 193.526 1998.12 195.065 1997.2 196.561 1996.14 197.749 1994.91 198.629L1994.65 198.805 1995.79 200.785 1996.1 200.565C1997.55 199.597 1998.83 198.189 1999.93 196.473 2000.85 195.021 2001.64 193.262 2002.35 191.238 2003.97 192.25 2005.6 193.482 2007.23 194.845L2007.49 195.065 2008.77 193.306 2008.55 193.086C2007.05 191.722 2005.16 190.314 2002.96 188.906 2003.09 188.334 2003.23 187.719 2003.36 187.103L2010.04 187.103C2010.7 189.258 2011.5 191.238 2012.33 192.954 2011.85 193.394 2011.28 193.834 2010.7 194.186 2008.46 195.681 2005.47 197.089 2001.82 198.321L2001.47 198.453 2002.52 200.477 2002.79 200.389C2006.7 199.069 2009.91 197.573 2012.29 195.945 2012.68 195.681 2013.08 195.373 2013.48 195.021 2013.74 195.417 2014 195.857 2014.27 196.253 2016.38 199.157 2018.1 200.565 2019.55 200.565 2020.43 200.565 2021.18 200.169 2021.7 199.465 2022.36 198.541 2022.8 196.825 2023.02 194.318L2023.07 194.054 2020.69 193.262 2020.69 193.614ZM1993.55 173.641 1997.11 173.641 1997.51 174.873 1997.77 174.873C1999.49 174.741 2001.2 174.565 2002.87 174.257 2002.74 174.477 2002.61 174.653 2002.48 174.873 2001.33 176.588 2000.06 178.348 1998.61 179.976L1997.33 179.976 1997.68 181.824C1996.98 179.976 1996.14 178.26 1995.18 176.676L1995 176.368 1993.5 177.336 1993.5 173.641ZM2003.75 177.38C2004.15 177.952 2004.55 178.568 2004.94 179.184 2003.89 179.448 2002.7 179.668 2001.42 179.8 2002.17 178.964 2002.87 178.04 2003.53 177.072L2003.75 177.38ZM2011.5 181.911C2012.82 181.868 2014.05 181.824 2015.24 181.692L2013.92 182.615 2014.22 182.879C2015.02 183.539 2015.72 184.243 2016.38 184.991L2011.94 184.991C2011.85 184.639 2011.76 184.287 2011.63 183.891 2011.45 183.275 2011.32 182.615 2011.19 181.955L2011.5 181.911ZM2010.48 174.697 2010.75 174.697C2012.55 174.565 2014.36 174.389 2016.12 174.125 2016.03 174.257 2015.94 174.433 2015.85 174.565 2014.8 176.28 2013.56 177.996 2012.2 179.668L2010.84 179.668C2010.57 177.908 2010.35 175.884 2010.18 173.685L2010.48 174.697Z" fill="#1B75BB" fill-rule="nonzero" fill-opacity="1" transform="matrix(1.01193 0 0 1 -195.742 172.257)"/><path d="M2050.12 178.436C2052.76 180.24 2055.27 182.483 2057.69 185.123L2057.95 185.431 2059.63 183.319 2059.41 183.099C2057.03 180.592 2054.39 178.436 2051.53 176.632L2051.27 176.456 2049.77 178.216 2050.12 178.436Z" fill="#1B75BB" fill-rule="nonzero" fill-opacity="1" transform="matrix(1.01193 0 0 1 -195.742 172.257)"/><path d="M2059.54 175.708 2059.8 176.016 2061.47 173.861 2061.25 173.641C2058.97 171.265 2056.37 169.153 2053.55 167.35L2053.29 167.174 2051.75 168.934 2052.06 169.153C2054.7 170.957 2057.21 173.157 2059.54 175.708Z" fill="#1B75BB" fill-rule="nonzero" fill-opacity="1" transform="matrix(1.01193 0 0 1 -195.742 172.257)"/><path d="M2065.12 186.663 2065.12 163.566 2062.57 163.566 2062.57 187.059 2047 189.742 2047.13 192.118 2062.57 189.478 2062.57 200.961 2065.12 200.961 2065.12 189.038 2070.98 188.071 2070.76 185.695Z" fill="#1B75BB" fill-rule="nonzero" fill-opacity="1" transform="matrix(1.01193 0 0 1 -195.742 172.257)"/><path d="M2047.31 186.927 2049.46 185.431 2049.33 185.167C2048.19 182.615 2046.78 180.284 2045.06 178.216L2044.89 177.996 2043.3 179.052 2043.3 176.544 2050.17 176.544 2050.17 174.301 2043.3 174.301 2043.3 168.318C2045.33 167.79 2047.31 167.218 2049.16 166.514L2049.51 166.382 2048.5 164.226 2048.23 164.314C2044.01 165.766 2039.34 166.866 2034.33 167.57L2033.93 167.614 2034.86 169.989 2035.12 169.945C2037.14 169.637 2039.08 169.241 2040.93 168.846L2040.93 174.301 2034.07 174.301 2034.07 176.544 2040.53 176.544C2040.05 178.832 2039.26 181.076 2038.16 183.275 2036.75 186.003 2035.21 188.334 2033.54 190.226L2033.32 190.49 2035.25 192.206 2035.47 191.942C2037.14 189.962 2038.51 187.939 2039.48 185.915 2040 184.947 2040.49 183.935 2040.93 182.791L2040.93 200.917 2043.3 200.917 2043.3 179.668C2044.93 181.824 2046.25 184.155 2047.18 186.531L2047.31 186.927Z" fill="#1B75BB" fill-rule="nonzero" fill-opacity="1" transform="matrix(1.01193 0 0 1 -195.742 172.257)"/><path d="M2101.15 190.798C2105.2 189.566 2108.77 188.027 2111.76 186.223L2111.93 186.135 2111.93 184.199 2088.88 184.199 2088.88 186.443 2106.96 186.443C2104.94 187.323 2102.65 188.071 2100.23 188.774 2100.1 188.51 2099.88 188.247 2099.66 187.983L2099.48 187.807 2097.5 188.73 2097.77 189.082C2098.25 189.698 2098.6 190.402 2098.91 191.194L2082.06 191.194 2082.06 193.394 2099.61 193.394C2099.83 194.318 2099.92 195.373 2099.92 196.517 2099.92 197.925 2099.66 198.145 2099.57 198.189 2099.44 198.277 2099.22 198.365 2098.69 198.365 2097.5 198.365 2096.14 198.057 2094.56 197.397L2094.03 197.177 2094.29 199.817 2094.51 199.905C2096.14 200.477 2097.68 200.741 2099.13 200.741 2100.05 200.741 2100.8 200.521 2101.33 200.081 2101.99 199.509 2102.3 198.321 2102.3 196.517 2102.3 195.549 2102.17 194.494 2101.95 193.394L2118.71 193.394 2118.71 191.194 2101.33 191.194C2101.24 190.974 2101.2 190.886 2101.15 190.798Z" fill="#1B75BB" fill-rule="nonzero" fill-opacity="1" transform="matrix(1.01193 0 0 1 -195.742 172.257)"/><path d="M2085.67 182.219 2115.01 182.219 2115.01 186.267 2117.34 186.267 2117.34 180.02 2114.75 180.02 2115.54 165.458 2106.08 165.458 2106.08 167.702 2113.03 167.702 2112.86 170.297 2105.91 170.297 2105.91 172.585 2112.77 172.585 2112.64 175.049 2105.25 175.049 2105.25 177.292 2112.55 177.292 2112.37 180.064 2104.19 180.064 2105.64 178.524 2105.42 178.304C2104.59 177.468 2103.66 176.676 2102.74 175.884 2103.57 175.093 2104.32 174.169 2105.03 173.201L2105.2 172.981 2104.32 172.057 2105.69 170.561 2105.47 170.341C2104.67 169.593 2103.88 168.89 2103 168.23 2103.97 167.306 2104.85 166.294 2105.64 165.15L2105.82 164.93 2104.37 163.302 2104.1 163.654C2103.31 164.798 2102.39 165.854 2101.29 166.866 2100.05 165.986 2098.78 165.106 2097.5 164.314L2097.24 164.138 2095.92 165.766 2096.23 165.986C2097.33 166.69 2098.43 167.438 2099.57 168.274 2098.38 169.109 2097.06 169.901 2095.61 170.561L2095.48 170.605 2095.48 170.253 2087.96 170.253 2087.91 168.714C2090.55 168.23 2093.02 167.438 2095.26 166.338L2095.61 166.162 2094.29 164.05 2094.07 164.182C2091.52 165.282 2088.79 166.074 2085.89 166.558L2085.58 166.602 2085.93 179.976 2083.29 179.976 2083.29 186.223 2085.67 186.223 2085.67 182.219ZM2096.58 179.976C2098.21 179.228 2099.7 178.348 2101.07 177.292 2101.99 178.084 2102.91 178.964 2103.84 179.888L2103.93 179.976 2096.54 179.976 2096.58 179.976ZM2095.52 171.001 2096.49 172.497 2096.76 172.365C2098.43 171.573 2099.97 170.605 2101.33 169.549 2102.03 170.209 2102.78 170.913 2103.53 171.661L2103.49 171.705C2102.78 172.673 2101.99 173.597 2101.02 174.521 2099.92 173.729 2098.82 172.937 2097.68 172.233L2097.42 172.057 2096.1 173.729 2096.4 173.905C2097.37 174.477 2098.34 175.137 2099.31 175.884 2098.16 176.764 2096.89 177.512 2095.44 178.172L2095.08 178.348 2096.23 180.02 2088.09 180.02 2088.04 177.116 2095.74 177.116 2095.74 174.873 2088 174.873 2087.96 172.585 2095.44 172.585 2095.44 171.001Z" fill="#1B75BB" fill-rule="nonzero" fill-opacity="1" transform="matrix(1.01193 0 0 1 -195.742 172.257)"/><path d="M2163.84 188.378 2164.11 188.686 2165.78 186.575 2165.6 186.355C2162.83 183.099 2159.71 180.24 2156.37 177.864L2156.15 177.688 2154.56 179.36 2154.87 179.58C2156.06 180.46 2157.25 181.516 2158.48 182.615 2152.98 183.099 2147.88 183.451 2143.17 183.671 2145.9 182.263 2148.58 180.68 2151.04 178.964 2155 176.192 2158.08 173.641 2160.19 171.397L2160.46 171.133 2158.04 169.153 2157.82 169.417C2156.06 171.353 2153.99 173.333 2151.7 175.225 2148.71 175.357 2145.41 175.445 2141.89 175.533 2144.36 173.377 2146.51 171.089 2148.36 168.758 2149.15 168.67 2149.94 168.582 2150.82 168.45 2155.53 167.79 2159.84 166.866 2163.67 165.678L2164.15 165.546 2162.44 163.434 2162.22 163.522C2158.61 164.622 2154.61 165.458 2150.29 166.074 2145.63 166.734 2139.69 167.262 2132.61 167.702L2132.08 167.746 2133.31 170.121 2133.53 170.121C2137.19 169.945 2141.01 169.681 2144.84 169.285 2143.04 171.485 2140.92 173.641 2138.46 175.708L2135.16 175.708 2135.6 178.084 2135.87 178.084C2140.75 178.084 2144.97 177.952 2148.54 177.732 2148.45 177.82 2148.32 177.908 2148.23 177.996 2144.75 180.328 2141.36 182.351 2138.2 184.023 2135.95 184.111 2133.8 184.155 2131.82 184.155L2131.42 184.155 2131.86 186.707 2132.17 186.707C2137.54 186.575 2142.68 186.355 2147.48 186.091L2147.48 196.209C2147.48 196.957 2147.26 197.925 2145.41 197.925 2144.14 197.925 2142.82 197.705 2141.5 197.265L2141.01 197.089 2141.23 199.861 2141.45 199.905C2142.68 200.257 2144 200.433 2145.41 200.433 2149.2 200.433 2149.99 198.365 2149.99 196.649L2149.99 185.871C2153.68 185.607 2157.29 185.299 2160.72 184.903 2161.69 185.915 2162.79 187.103 2163.84 188.378Z" fill="#1B75BB" fill-rule="nonzero" fill-opacity="1" transform="matrix(1.01193 0 0 1 -195.742 172.257)"/><path d="M2165.87 195.373C2162.79 192.426 2159.31 189.83 2155.49 187.675L2155.22 187.543 2153.73 189.302 2154.08 189.522C2157.6 191.678 2160.99 194.362 2164.2 197.485L2164.46 197.749 2166.09 195.593 2165.87 195.373Z" fill="#1B75BB" fill-rule="nonzero" fill-opacity="1" transform="matrix(1.01193 0 0 1 -195.742 172.257)"/><path d="M2142.64 189.214 2141.19 187.103 2140.88 187.411C2137.71 190.93 2134.46 193.57 2131.29 195.329L2130.98 195.505 2132.21 197.837 2132.52 197.661C2136.17 195.549 2139.52 192.822 2142.46 189.478L2142.64 189.214Z" fill="#1B75BB" fill-rule="nonzero" fill-opacity="1" transform="matrix(1.01193 0 0 1 -195.742 172.257)"/></g></g></g></g></svg>