<svg width="1125" height="250" xmlns="http://www.w3.org/2000/svg" xmlns:xlink="http://www.w3.org/1999/xlink" xml:space="preserve" overflow="hidden"><defs><clipPath id="clip0"><rect x="141" y="258" width="1125" height="250"/></clipPath><clipPath id="clip1"><rect x="141" y="258" width="1125" height="250"/></clipPath><clipPath id="clip2"><rect x="142" y="259" width="1124" height="248"/></clipPath><clipPath id="clip3"><rect x="141" y="264" width="1125" height="243"/></clipPath></defs><g clip-path="url(#clip0)" transform="translate(-141 -258)"><g clip-path="url(#clip1)"><g clip-path="url(#clip2)"><g clip-path="url(#clip3)"><g><path d="M636.16 97.8844C622.246 95.2341 611.999 89.2709 608.376 86.3114L621.628 86.3114 634.879 86.3114C635.851 86.3114 635.189 84.9863 635.189 84.9863 635.189 84.9863 628.916 79.3765 627.9 79.0231 626.575 78.3605 626.266 79.0231 626.266 79.0231L621.628 82.9986 604.401 82.9986 604.401 74.0759C615.974 73.1041 625.559 72.0882 626.884 71.779 620.259 67.4943 621.937 67.8035 616.283 64.1814 610.673 66.4784 584.833 73.4575 569.947 74.7826L569.947 75.4452C577.235 75.7544 587.174 75.136 596.406 74.7826L596.406 83.0427 565.618 83.0427 565.618 86.0022 587.439 86.0022C582.138 93.5998 571.891 103.229 564.602 105.526L564.602 106.189C569.55 105.217 574.188 103.538 578.516 101.551L578.516 128.672 586.114 128.672 586.114 126.331 614.56 126.331 614.56 128.628 622.158 128.628 622.158 102.832C626.133 104.819 629.446 105.791 629.756 105.129 630.418 102.478 630.065 99.5188 634.703 98.1936 635.807 98.1936 635.807 98.8562 636.16 97.8844ZM581.564 100.181C588.499 96.2059 593.491 91.5679 596.45 88.255L596.45 102.169 586.202 102.169 586.202 100.181 581.564 100.181ZM614.649 123.371 586.202 123.371 586.202 116.083 614.649 116.083 614.649 123.371ZM614.649 112.77 586.202 112.77 586.202 105.482 614.649 105.482 614.649 112.77ZM614.649 100.181 614.649 102.169 604.401 102.169 604.401 86.2673C607.36 92.5397 613.014 97.5311 617.962 100.844L614.649 100.181Z" fill="#004898" fill-rule="evenodd" fill-opacity="1" transform="matrix(1.00873 0 0 1 -1308.35 264.957)"/><path d="M1130.79 119.396C1130.13 121.693 1126.51 120.721 1124.83 121.03 1123.2 121.03 1121.52 120.721 1119.88 121.03 1119.58 121.34 1119.58 121.34 1119.88 121.693 1122.84 122.356 1125.85 122.665 1128.14 124.652 1129.12 125.624 1128.81 127.612 1129.12 128.937 1132.08 128.937 1134.42 128.628 1136.71 127.965 1137.69 126.994 1138.7 126.994 1138.7 123.99L1138.7 123.99 1138.7 113.389 1167.15 113.389C1168.47 113.389 1169.14 113.389 1169.45 113.389 1170.42 113.389 1169.75 112.064 1169.75 112.064 1169.75 112.064 1163.48 106.454 1162.47 106.1 1161.14 105.438 1160.83 106.1 1160.83 106.1L1156.19 110.076 1138.66 110.076 1138.66 107.426C1143.96 106.1 1154.21 102.478 1154.21 102.478 1154.21 102.478 1147.93 97.8402 1146.92 96.8685 1146.92 96.8685 1145.59 97.8402 1143.96 99.828L1113.83 99.828 1113.83 103.141 1140.95 103.141C1139.63 104.466 1138.66 105.438 1136.98 107.116L1131.02 107.116 1131.02 110.429 1102.22 110.429 1102.22 113.389 1131.02 113.389 1131.02 119.352 1130.79 119.352Z" fill="#004898" fill-rule="evenodd" fill-opacity="1" transform="matrix(1.00873 0 0 1 -1308.35 264.957)"/><path d="M1143.74 81.0108C1143.74 81.0108 1138.44 78.7139 1137.77 78.3605 1136.8 78.0513 1137.11 78.3605 1137.11 78.6697 1136.8 79.6415 1135.79 80.6575 1135.12 81.6292 1133.49 80.9667 1131.81 80.3041 1129.51 80.3041 1129.51 80.3041 1129.2 80.6133 1129.51 80.6133 1129.51 80.6133 1131.15 81.9384 1132.83 84.2354 1129.2 87.5483 1124.88 90.1986 1124.88 90.1986 1123.24 91.8329 1129.51 89.536 1135.12 86.8857 1136.1 88.2108 1137.11 89.536 1138.08 90.8611 1140.07 92.4955 1142.72 88.5642 1141.04 86.2231 1140.73 85.9139 1140.38 85.2513 1139.41 84.5888 1140.38 83.9262 1141.04 83.2636 1141.71 82.9544L1143.74 81.0108Z" fill="#004898" fill-rule="evenodd" fill-opacity="1" transform="matrix(1.00873 0 0 1 -1308.35 264.957)"/><path d="M1106.99 101.507C1107.3 100.535 1107.96 98.8562 1107.65 95.5433L1160.26 95.5433C1158.93 97.8402 1157.61 100.844 1155.62 104.157 1154.65 105.791 1169.84 94.8808 1169.84 94.8808 1169.84 94.8808 1164.23 90.5961 1162.91 89.9335 1162.91 89.9335 1162.24 90.9053 1161.58 92.2304L1160.92 92.2304 1160.92 65.7716 1153.32 64.7998 1153.32 68.1127 1143.38 68.1127 1143.38 70.4096 1153.32 70.4096 1153.32 76.3728 1143.38 76.3728 1143.38 78.6697 1153.32 78.6697 1153.32 84.6329 1143.38 84.6329 1143.38 86.9299 1153.32 86.9299 1153.32 91.8771 1114.63 91.8771 1114.63 86.9299 1118.6 86.9299 1126.55 86.9299C1127.22 86.9299 1126.55 86.2673 1126.55 86.2673 1126.55 86.2673 1122.93 82.9544 1122.27 82.6452 1121.61 82.336 1121.3 82.6452 1121.3 82.6452L1119 84.2795 1114.72 84.2795 1114.72 78.3164 1118.69 78.3164 1122.31 78.3164 1126.29 78.3164C1126.95 78.3164 1126.29 77.6538 1126.29 77.6538 1126.29 77.6538 1122.67 74.3409 1122 74.0317 1121.34 73.7225 1121.03 74.0317 1121.03 74.0317L1118.74 76.0194 1114.45 76.0194 1114.45 70.7188C1117.41 70.4096 1122.71 69.7471 1125.05 68.7311L1127.04 69.0403C1127.7 69.3495 1127.7 68.0685 1127.7 68.0685 1127.7 68.0685 1121.74 64.7557 1121.08 64.0931 1120.41 63.4305 1119.75 64.7557 1119.75 64.7557L1114.14 69.0403 1114.14 64.7557 1106.54 64.7557 1106.54 91.5679 1105.88 91.5679C1105.57 90.2427 1104.91 88.9176 1104.25 87.2832 1103.94 87.2832 1103.94 87.2832 1103.94 87.2832 1103.94 87.2832 1102.97 92.893 1098.99 100.535 1099.04 104.51 1105.35 104.819 1106.99 101.507Z" fill="#004898" fill-rule="evenodd" fill-opacity="1" transform="matrix(1.00873 0 0 1 -1308.35 264.957)"/><path d="M1126.51 76.682C1124.88 78.3164 1129.82 76.3728 1134.46 73.7225 1135.12 74.6943 1135.79 76.0194 1136.45 77.0354 1138.08 79.0231 1141.09 75.401 1139.76 72.3974 1139.45 72.0882 1139.1 71.4256 1138.44 71.0722 1139.41 70.4096 1140.42 69.7471 1140.73 69.0845L1142.72 67.4501C1142.72 67.4501 1137.77 65.1532 1137.11 65.1532 1136.14 64.844 1136.45 65.1532 1136.45 65.4624 1135.79 66.4342 1135.12 67.4501 1134.46 68.7753 1133.14 68.1127 1131.5 67.4501 1129.16 67.1409 1129.16 67.1409 1128.85 67.4501 1129.16 67.4501 1129.16 67.4501 1130.49 69.0845 1132.47 71.4256 1129.82 74.3851 1126.51 76.682 1126.51 76.682Z" fill="#004898" fill-rule="evenodd" fill-opacity="1" transform="matrix(1.00873 0 0 1 -1308.35 264.957)"/><path d="M736.739 125.668C740.052 119.043 733.426 125.668 735.105 109.457 734.796 108.795 734.442 109.148 734.442 109.457 734.442 109.457 731.792 116.746 728.479 121.03 727.507 121.03 716.906 121.03 712.931 121.03 710.281 121.03 706.305 121.34 706.658 118.38L706.658 113.079 719.91 113.079 719.91 115.376 727.507 115.376 727.507 102.125C731.13 105.438 734.133 106.41 735.458 107.072 737.755 107.735 737.446 107.072 738.109 106.1 738.771 103.141 739.08 101.153 742.393 100.137 742.393 100.137 742.393 99.828 742.393 99.4746 734.442 97.8402 729.804 97.1777 724.195 90.8611L728.479 90.8611 741.731 90.8611C742.703 90.8611 742.04 89.536 742.04 89.536 742.04 89.536 735.768 83.9262 734.752 83.5728 733.426 82.9102 733.117 83.5728 733.117 83.5728L728.479 87.5483 726.845 87.5483 726.845 76.9471C728.17 76.9471 738.771 76.9471 740.096 76.9471 741.068 76.9471 740.406 75.6219 740.406 75.6219 740.406 75.6219 734.133 70.0121 733.117 69.6587 731.792 68.9961 731.483 69.6587 731.483 69.6587L727.198 73.2808 727.198 65.3299 719.601 64.3581 719.601 73.6342 709.353 73.6342 709.353 64.3581 701.755 64.3581 701.755 73.6342 691.817 73.6342C691.817 72.9716 691.508 72.309 691.154 71.6464 690.492 70.9839 686.516 66.3459 675.915 65.6833 675.915 65.9925 675.606 65.9925 675.915 65.9925 675.915 65.9925 680.553 69.3054 686.163 77.5655 687.797 79.8624 689.785 78.5372 690.801 76.5937L693.451 76.5937C690.492 86.8415 686.516 95.7642 681.216 105.394 680.906 106.056 678.565 108.706 675.606 108.706L672.955 109.016C672.646 109.016 672.293 109.325 672.646 109.987 674.281 110.65 673.618 109.678 674.943 110.297 681.878 111.622 679.581 123.195 680.244 127.524 679.935 130.174 688.195 129.158 689.166 122.576 688.857 117.276 687.179 114.979 685.191 111.666 685.191 111.357 685.5 110.694 685.5 110.341 685.5 110.341 685.809 110.341 686.163 110.341 691.463 109.369 696.101 106.719 700.077 103.406L700.077 119.617 700.077 120.942 700.077 121.251C700.739 125.227 704.052 126.861 706.349 126.861 713.947 126.861 722.56 126.861 729.186 126.861 733.426 127.656 735.723 127.303 736.739 125.668ZM708.602 77.698 718.85 77.698 718.85 88.2992 708.602 88.2992 708.602 77.698ZM706.968 95.8967C708.293 94.2624 709.265 92.5838 709.927 91.2587L720.175 91.2587C721.147 93.5556 722.163 95.2341 723.134 96.8685L719.822 96.5593 719.822 99.2096 706.57 99.2096 706.57 95.8967 706.968 95.8967ZM706.968 102.522 720.219 102.522 720.219 110.12 706.968 110.12 706.968 102.522ZM685.456 110.12C686.428 105.835 688.416 98.547 690.403 91.612L699.679 91.612C698.354 95.8967 694.07 105.835 685.456 110.12ZM701.004 88.2992 691.419 88.2992C692.744 84.0145 693.716 80.0391 694.379 77.698L701.004 77.698 701.004 88.2992Z" fill="#004898" fill-rule="evenodd" fill-opacity="1" transform="matrix(1.00873 0 0 1 -1308.35 264.957)"/><path d="M681.127 93.909C683.777 96.5593 687.4 90.9495 685.412 87.2832 684.44 85.9581 681.79 82.336 672.16 81.32 672.16 81.6292 671.851 81.6292 672.16 81.6292 672.204 81.9826 676.533 86.3114 681.127 93.909Z" fill="#004898" fill-rule="evenodd" fill-opacity="1" transform="matrix(1.00873 0 0 1 -1308.35 264.957)"/><path d="M906.8 110.783 906.8 115.421 934.275 115.421 934.275 118.733 906.8 118.733 906.8 123.371 934.275 123.371 934.275 126.64 906.8 126.64 906.8 128.981 899.203 128.981 899.203 106.145 906.8 106.145 906.8 107.823 934.275 107.823 934.275 110.783Z" fill="#004898" fill-rule="evenodd" fill-opacity="1" transform="matrix(1.00873 0 0 1 -1308.35 264.957)"/><path d="M924.336 68.1127C925.971 66.7876 926.987 65.8158 926.324 65.8158 922.702 65.1532 918.373 64.4906 913.426 63.5189L913.117 63.8281C910.466 68.4661 902.206 76.7262 894.255 82.0268 890.633 84.6771 886.967 86.6648 884.008 87.6366 884.008 88.6084 888.646 87.9458 894.255 86.0022L894.255 104.51 901.853 104.51 901.853 82.9986C902.516 82.6894 903.178 82.336 903.841 82.0268L926.015 82.0268 935.6 82.0268C936.263 82.6894 937.234 82.9986 937.897 83.6611L937.897 86.3114 901.853 86.3114 901.853 89.6243 916.739 89.6243 916.739 99.8722 912.763 99.8722C913.735 98.9004 914.398 96.5593 913.073 94.9249 912.101 93.9531 910.113 91.612 903.134 91.612L903.134 91.9212C903.134 91.9212 906.447 94.5715 910.422 99.5188L901.809 99.5188 901.809 102.832 937.853 102.832 937.853 104.466 945.45 104.466 945.45 87.2391C946.113 87.5483 946.422 87.5483 947.085 87.5483 949.382 87.8575 950.044 88.52 950.707 86.8857 950.707 84.5888 951.37 83.5728 953.004 81.5851 953.666 80.9225 955.654 79.5974 955.963 78.6256L955.963 78.3164C946.511 76.682 939.222 78.6697 924.336 68.1127ZM926.324 78.6697 908.788 78.9789C912.41 76.682 918.727 72.3532 922.702 69.3937 924.027 71.3814 926.324 73.6784 929.328 76.3287L926.324 78.6697ZM938.25 99.5188 925.662 99.5188C928.621 98.1936 936.572 93.2464 936.572 93.2464 936.572 93.2464 930.609 90.9495 929.637 90.2869 929.637 90.2869 928.003 93.5998 924.336 99.563L923.011 99.563 923.011 89.3151 937.897 89.3151 937.897 99.563 938.25 99.563Z" fill="#004898" fill-rule="evenodd" fill-opacity="1" transform="matrix(1.00873 0 0 1 -1308.35 264.957)"/><path d="M942.226 128.981 942.226 106.498 934.275 105.482 934.584 128.981Z" fill="#004898" fill-rule="evenodd" fill-opacity="1" transform="matrix(1.00873 0 0 1 -1308.35 264.957)"/><path d="M1032.56 87.2832 1047.8 87.2832C1047.8 87.2832 1060.03 87.2832 1061.05 87.2832 1062.02 87.2832 1061.36 85.9581 1061.36 85.9581 1061.36 85.9581 1055.08 80.3483 1054.07 79.9949 1052.74 79.3323 1052.43 79.9949 1052.43 79.9949L1047.8 83.617 1030.26 83.617 1030.26 64.7557 1021.65 64.7557 1021.65 83.9262 994.172 83.9262 994.172 87.2391 1021.65 87.2391C1020.98 96.8243 1018.02 119.352 992.184 128.275 992.493 128.584 992.847 128.584 993.509 128.584 1026.95 124.608 1030.22 95.4992 1030.22 87.5483 1037.5 120.986 1051.37 129.246 1056.67 128.584 1057.65 128.584 1055.7 122.621 1063.61 120.986L1063.61 120.324C1057.34 118.733 1039.8 109.767 1032.56 87.2832Z" fill="#004898" fill-rule="evenodd" fill-opacity="1" transform="matrix(1.00873 0 0 1 -1308.35 264.957)"/><path d="M791.998 78.6697C794.648 82.2918 798.933 76.0194 796.945 72.3974 796.283 71.7348 792.307 67.0968 781.706 66.4342 781.706 66.7434 781.397 66.7434 781.706 66.7434 781.75 67.0968 786.388 70.4096 791.998 78.6697Z" fill="#004898" fill-rule="evenodd" fill-opacity="1" transform="matrix(1.00873 0 0 1 -1308.35 264.957)"/><path d="M794.958 123.371C794.648 118.071 792.97 115.774 790.982 112.461 791.291 110.473 792.307 106.851 793.632 102.522 794.295 104.157 797.917 104.819 799.905 103.494L806.531 103.494C808.518 109.767 811.831 114.405 815.453 118.071 810.153 122.046 803.88 125.359 795.929 127.347 795.929 127.347 795.929 128.01 795.929 127.656 805.205 127.347 812.803 124.697 819.429 121.384 829.677 128.981 841.603 129.335 841.603 128.319 841.912 123.018 845.225 121.693 847.566 120.368 847.875 119.705 847.257 119.705 846.241 119.705 839.969 120.014 832.989 119.043 826.717 117.055 832.68 112.77 836.965 108.132 839.969 104.466L841.294 102.478C841.294 102.478 839.969 101.507 838.334 100.491 842.619 97.8402 848.582 93.8648 848.582 93.8648 848.582 93.8648 842.31 89.8894 840.984 88.9176 840.984 88.9176 840.322 89.8894 839.35 91.8771L802.953 91.8771C802.953 90.9053 802.643 89.8894 802.29 88.9176 801.981 88.9176 801.981 88.9176 801.981 88.9176 801.981 88.9176 799.993 93.8648 795.046 100.181 797.696 90.9053 801.009 79.6857 801.672 75.7102 801.672 75.7102 801.981 71.4256 800.347 76.682 797.387 86.9299 793.412 96.2059 787.758 106.145 787.448 106.807 785.107 109.457 782.148 109.457L779.497 109.767C779.188 109.767 778.835 110.076 779.188 110.738 780.823 111.401 780.16 110.429 781.485 111.048 788.42 112.373 786.123 123.946 786.786 128.275 786.035 130.616 794.295 129.644 794.958 123.371ZM819.782 114.095C815.497 111.445 811.522 108.132 808.518 103.494L828.705 103.494C826.408 107.16 823.448 110.783 819.782 114.095ZM802.909 95.5433 837.672 95.5433C837.009 96.5151 836.346 97.8402 835.684 99.1654 834.712 98.5028 833.696 97.8402 832.724 97.5311 832.724 97.5311 831.753 99.1654 830.737 100.491L801.937 100.491C802.599 99.2096 802.909 97.5311 802.909 95.5433Z" fill="#004898" fill-rule="evenodd" fill-opacity="1" transform="matrix(1.00873 0 0 1 -1308.35 264.957)"/><path d="M787.36 93.909C790.01 96.5593 793.632 90.9495 791.645 87.2832 790.673 85.9581 788.023 82.336 778.393 81.32 778.393 81.6292 778.084 81.6292 778.393 81.6292 778.437 81.9826 783.075 86.3114 787.36 93.909Z" fill="#004898" fill-rule="evenodd" fill-opacity="1" transform="matrix(1.00873 0 0 1 -1308.35 264.957)"/><path d="M829.367 88.9617 836.965 88.9617 836.965 79.0231 838.953 79.0231 847.875 79.0231C848.847 79.0231 847.875 78.0513 847.875 78.0513 847.875 78.0513 842.575 73.7667 841.912 73.1041 840.94 72.7949 840.587 73.1041 840.587 73.1041L837.274 75.7544 836.611 75.7544 836.611 65.8158 829.014 64.844 829.014 68.1569 802.555 68.1569 802.555 71.1164 829.014 71.1164 829.014 76.0636 804.189 76.0636 804.189 79.0231 829.014 79.0231 829.014 83.9704 802.555 83.9704 802.555 86.9299 829.014 86.9299 829.014 88.9176 829.367 88.9176Z" fill="#004898" fill-rule="evenodd" fill-opacity="1" transform="matrix(1.00873 0 0 1 -1308.35 264.957)"/><path d="M587.174 163.038 585.849 163.038 585.849 163.347C587.174 164.009 587.174 166.969 587.174 166.969L587.174 181.192 572.288 181.192 572.288 166.969C572.288 166.969 572.288 164.009 573.613 163.347L573.613 163.038 565.353 163.038 565.353 163.347C566.678 164.009 566.678 166.969 566.678 166.969L566.678 201.379C566.678 201.379 566.678 204.338 565.353 205.001L565.353 205.31 573.613 205.31 573.613 205.001C572.288 204.338 572.288 201.379 572.288 201.379L572.288 185.83 587.174 185.83 587.174 201.732C587.174 202.395 587.174 204.692 585.849 205.045L585.849 205.354 594.109 205.354 594.109 205.045C592.784 204.382 592.784 201.423 592.784 201.423L592.784 167.013C592.784 167.013 592.784 164.054 594.109 163.391L594.109 163.082 592.784 163.082 587.174 163.038Z" fill="#004898" fill-rule="evenodd" fill-opacity="1" transform="matrix(1.00873 0 0 1 -1308.35 264.957)"/><path d="M692.391 182.562C693.716 183.224 693.716 186.184 693.716 186.184L693.716 186.184 693.716 199.744C692.744 200.407 690.094 201.732 686.119 201.732 681.171 201.732 678.521 199.435 678.521 190.159L678.521 175.936C678.521 167.013 684.793 166.66 686.472 166.66 689.785 166.351 695.085 167.632 697.073 170.282L697.073 163.656C694.776 162.993 690.801 162.022 686.472 162.331 677.549 162.331 673.22 167.632 673.22 176.245L673.22 190.159C673.22 201.732 677.505 206.37 686.472 206.37 691.773 206.37 696.057 205.045 699.37 203.057L699.37 182.562 692.391 182.562Z" fill="#004898" fill-rule="evenodd" fill-opacity="1" transform="matrix(1.00873 0 0 1 -1308.35 264.957)"/><path d="M664.607 163.038 659.969 163.038 658.644 163.038 658.644 163.347C659.616 163.656 659.969 165.997 659.969 166.66L659.969 198.773 643.405 163.347 635.807 163.347 633.51 163.347 633.51 163.656C635.144 164.981 635.498 166.306 635.807 168.294L635.807 202.395C635.807 203.366 635.498 205.045 634.482 205.354L634.482 205.663 635.807 205.663 640.445 205.663 641.77 205.663 641.77 205.398C640.798 205.089 640.445 203.101 640.445 202.439L640.445 168.692C640.445 168.692 647.071 183.577 654.006 198.154 657.981 206.105 664.254 205.752 664.254 205.752L664.254 166.041C664.254 165.07 664.563 163.391 665.579 163.082L665.579 162.773 664.607 163.038Z" fill="#004898" fill-rule="evenodd" fill-opacity="1" transform="matrix(1.00873 0 0 1 -1308.35 264.957)"/><path d="M614.295 162.066C605.373 162.066 601.044 167.366 601.044 175.98L601.044 189.894C601.044 201.467 605.329 206.105 614.295 206.105 623.262 206.105 627.547 201.467 627.547 189.894L627.547 175.98C627.547 167.676 623.262 162.066 614.295 162.066ZM622.246 189.85C622.246 199.126 619.596 201.423 614.649 201.423 609.702 201.423 607.051 199.126 607.051 189.85L607.051 175.627C607.051 166.704 613.014 166.704 614.649 166.704 616.283 166.704 622.246 167.013 622.246 175.627L622.246 189.85Z" fill="#004898" fill-rule="evenodd" fill-opacity="1" transform="matrix(1.00873 0 0 1 -1308.35 264.957)"/><path d="M815.807 163.038C816.778 163.347 817.132 165.688 817.132 166.351L817.132 198.463 800.567 163.038 797.255 163.038 790.982 163.038 790.982 163.347C792.617 164.672 792.97 165.997 793.279 167.985L793.279 202.085C793.279 203.057 792.97 204.736 791.954 205.045L791.954 205.354 793.279 205.354 797.917 205.354 799.242 205.354 799.242 205.045C798.27 204.736 797.917 202.748 797.917 202.085L797.917 168.647C797.917 168.647 804.543 183.533 811.478 198.11 815.453 206.061 821.726 205.707 821.726 205.707L821.726 165.997C821.726 165.025 822.035 163.347 823.051 163.038L823.051 162.728 815.807 163.038Z" fill="#004898" fill-rule="evenodd" fill-opacity="1" transform="matrix(1.00873 0 0 1 -1308.35 264.957)"/><path d="M752.288 201.114 739.39 182.252 754.629 163.391 753.304 163.391 746.015 163.391 746.015 163.7C748.312 165.025 744.69 167.985 742.393 170.989L733.78 181.899 733.471 181.899 733.471 166.66C733.471 165.997 733.78 164.009 734.796 163.347L734.796 163.038 726.536 163.038 726.536 163.347C727.861 164.009 727.861 166.306 727.861 166.66L727.861 201.423C727.861 201.423 727.861 204.382 726.536 205.045L726.536 205.354 727.861 205.354 733.161 205.354 734.487 205.354 734.487 205.045C733.161 204.382 733.161 201.423 733.161 201.423L733.161 183.224 733.471 183.224 746.722 203.057C747.694 205.045 748.71 205.045 752.332 205.045L756.307 205.045 756.307 204.736C754.938 203.764 753.613 202.439 752.288 201.114Z" fill="#004898" fill-rule="evenodd" fill-opacity="1" transform="matrix(1.00873 0 0 1 -1308.35 264.957)"/><path d="M849.907 182.562C851.232 183.224 851.232 186.184 851.232 186.184L851.232 186.184 851.232 199.744C850.261 200.407 847.61 201.732 843.635 201.732 838.688 201.732 836.037 199.435 836.037 190.159L836.037 175.936C836.037 167.013 842.31 166.66 843.988 166.66 847.301 166.351 852.602 167.632 854.589 170.282L854.589 163.656C852.292 162.993 848.317 162.022 843.988 162.331 835.065 162.331 830.737 167.632 830.737 176.245L830.737 190.159C830.737 201.732 835.021 206.37 843.988 206.37 849.289 206.37 853.573 205.045 856.886 203.057L856.886 182.562 849.907 182.562Z" fill="#004898" fill-rule="evenodd" fill-opacity="1" transform="matrix(1.00873 0 0 1 -1308.35 264.957)"/><path d="M771.812 162.375C762.889 162.375 758.56 167.676 758.56 176.289L758.56 190.203C758.56 201.776 762.845 206.414 771.812 206.414 780.778 206.414 785.063 201.776 785.063 190.203L785.063 176.289C785.063 167.676 780.734 162.066 771.812 162.375ZM771.812 201.423C766.864 201.423 764.214 199.126 764.214 189.85L764.214 175.627C764.214 166.704 770.177 166.704 771.812 166.704 773.446 166.704 779.409 167.013 779.409 175.627L779.409 189.85C779.409 199.126 776.759 201.423 771.812 201.423Z" fill="#004898" fill-rule="evenodd" fill-opacity="1" transform="matrix(1.00873 0 0 1 -1308.35 264.957)"/><path d="M1027.92 163.038 1022.62 163.038 1021.29 163.038 1021.29 163.347C1022.62 164.009 1022.62 166.969 1022.62 166.969L1022.62 201.732C1022.62 201.732 1022.62 204.692 1021.29 205.354L1021.29 205.663 1029.55 205.663 1029.55 205.398C1028.58 205.089 1028.23 203.101 1028.23 202.439L1028.23 166.395C1028.23 165.423 1028.54 163.744 1029.55 163.435L1029.55 163.126 1027.92 163.126 1027.92 163.038Z" fill="#004898" fill-rule="evenodd" fill-opacity="1" transform="matrix(1.00873 0 0 1 -1308.35 264.957)"/><path d="M1091.44 163.038 1067.94 163.038C1067.28 163.038 1066.97 163.038 1066.3 162.728L1064.67 169.663C1065.99 168.029 1067.32 168.029 1068.95 167.676L1076.24 167.676 1076.24 201.423C1076.24 201.423 1076.24 204.382 1074.92 205.045L1074.92 205.354 1083.18 205.354 1083.18 205.045C1082.21 204.736 1081.85 202.748 1081.85 201.732L1081.85 167.632 1089.8 167.632C1090.78 167.632 1091.79 167.941 1092.1 169.619L1093.43 162.684C1092.76 163.038 1092.1 163.038 1091.44 163.038Z" fill="#004898" fill-rule="evenodd" fill-opacity="1" transform="matrix(1.00873 0 0 1 -1308.35 264.957)"/><path d="M1040.82 172.976C1040.82 168.338 1044.13 166.704 1047.44 166.704 1048.11 166.704 1049.08 166.704 1049.08 166.704L1049.08 166.704C1051.37 166.704 1056.37 167.676 1058 170.017L1057.69 163.391C1055.7 162.728 1051.06 162.066 1048.77 162.066L1048.77 162.728 1048.77 162.066C1048.46 162.066 1047.8 162.066 1047.44 162.066 1040.51 162.066 1035.21 166.041 1035.21 173.639 1035.21 186.228 1054.73 185.212 1054.73 194.488 1054.73 199.126 1051.42 201.114 1047.44 201.114L1044.79 201.114C1041.48 201.114 1037.86 199.788 1035.21 197.138L1036.53 204.426C1038.83 205.398 1043.82 206.061 1046.78 206.061 1053.41 206.37 1060.34 203.101 1060.34 194.488 1060.65 180.927 1040.82 182.252 1040.82 172.976Z" fill="#004898" fill-rule="evenodd" fill-opacity="1" transform="matrix(1.00873 0 0 1 -1308.35 264.957)"/><path d="M1014.36 163.038 990.196 163.038 989.887 163.038C989.225 163.038 988.915 163.038 988.253 162.728L986.618 169.663C987.944 168.029 989.578 168.029 991.566 168.029L998.191 168.029 998.191 202.13C998.191 202.792 997.882 205.089 996.866 205.442L996.866 205.752 1005.13 205.752 1005.13 205.398C1003.8 204.736 1003.8 202.748 1003.8 202.085L1003.8 167.676 1010.74 167.676C1012.06 167.676 1013.7 167.676 1014.36 169.663L1015.68 162.728C1015.02 163.038 1014.67 163.038 1014.36 163.038Z" fill="#004898" fill-rule="evenodd" fill-opacity="1" transform="matrix(1.00873 0 0 1 -1308.35 264.957)"/><path d="M903.841 183.224 903.841 183.224C909.141 181.59 911.129 178.277 911.129 172.976 911.129 172.314 910.82 169.663 909.495 167.366 907.86 165.07 905.873 163.082 900.219 163.082L886.658 163.082 885.333 163.082 885.333 163.391C886.305 163.7 886.658 165.688 886.658 166.704L886.658 202.13C886.658 202.792 886.349 204.78 885.333 205.442L885.333 205.752 893.593 205.752 900.219 205.752C904.857 205.752 912.808 204.78 912.808 193.825 912.454 187.553 910.113 183.887 903.841 183.224ZM891.914 167.676 899.512 167.676C904.15 167.676 906.138 170.635 906.138 173.948 906.138 177.923 904.15 180.574 899.865 180.574L891.914 180.574 891.914 167.676ZM899.203 200.451 891.605 200.451 891.605 185.565 897.215 185.565C902.825 185.565 906.8 186.89 906.8 193.516 907.154 196.476 905.166 200.451 899.203 200.451Z" fill="#004898" fill-rule="evenodd" fill-opacity="1" transform="matrix(1.00873 0 0 1 -1308.35 264.957)"/><path d="M970.982 163.038 958.393 163.038 956.405 163.038 956.405 163.347C958.039 164.319 958.393 166.66 958.393 168.957L958.393 170.944 958.393 171.254 958.393 201.688C958.393 202.35 958.084 204.338 957.068 205.001L957.068 205.31 965.328 205.31 965.328 205.001C964.003 204.338 964.003 201.379 964.003 201.379L964.003 186.493 970.938 186.493C975.222 186.493 982.864 184.505 982.864 174.92 982.908 165.025 976.636 163.038 970.982 163.038ZM970.01 181.899 964.047 181.899 964.047 167.676 971.335 167.676C972.66 167.676 977.298 168.338 977.298 174.611 977.298 181.236 971.998 181.899 970.01 181.899Z" fill="#004898" fill-rule="evenodd" fill-opacity="1" transform="matrix(1.00873 0 0 1 -1308.35 264.957)"/><path d="M948.189 196.829 948.189 196.829 937.279 163.082 930.344 163.082 928.356 163.082 928.356 163.391C929.681 164.054 929.681 165.025 929.328 166.351L929.019 167.676C929.019 167.985 928.709 168.647 928.709 169.001L918.462 200.76C917.799 202.395 916.827 204.073 915.502 205.045L915.502 205.354 924.778 205.354 924.778 205.045C923.453 204.382 923.144 203.72 923.453 202.748L926.766 191.484 940.989 191.484 944.302 202.395C944.611 203.72 944.302 204.029 942.977 205.045L942.977 205.354 952.562 205.354 952.562 205.045C951.237 204.073 950.265 202.395 949.603 200.76L948.189 196.829ZM928.003 186.89 933.612 168.029 939.222 186.89 928.003 186.89Z" fill="#004898" fill-rule="evenodd" fill-opacity="1" transform="matrix(1.00873 0 0 1 -1308.35 264.957)"/><path d="M1199.66 163.038 1194.36 163.038 1193.03 163.038 1193.03 163.347C1194 163.656 1194.36 165.335 1194.36 166.306L1194.36 202.35C1194.36 203.322 1194.05 204.647 1193.03 205.31L1193.03 205.619 1201.29 205.619 1201.29 205.398C1200.32 205.089 1199.97 203.101 1199.97 202.439L1199.97 166.704C1199.97 166.041 1200.28 163.744 1201.29 163.391L1201.29 163.082 1199.66 163.082 1199.66 163.038Z" fill="#004898" fill-rule="evenodd" fill-opacity="1" transform="matrix(1.00873 0 0 1 -1308.35 264.957)"/><path d="M1231.42 163.038 1231.42 163.038C1232.08 163.347 1232.08 164.009 1232.08 164.363L1222.5 199.435 1212.91 163.038 1206.95 163.038 1205.97 163.038 1205.97 163.347C1206.95 164.319 1207.61 165.644 1207.96 166.969L1208.93 169.928C1208.93 170.591 1209.24 170.9 1209.24 171.563L1216.18 195.725C1218.48 203.322 1220.82 205.001 1224.79 205.973L1227.75 195.725 1237.34 163.303 1232.7 163.303 1231.42 163.038Z" fill="#004898" fill-rule="evenodd" fill-opacity="1" transform="matrix(1.00873 0 0 1 -1308.35 264.957)"/><path d="M1261.5 200.451 1260.84 200.451 1260.53 200.451 1250.28 200.451 1250.28 185.874 1263.53 185.874C1264.19 185.874 1265.17 186.184 1265.52 187.2L1265.52 180.927C1264.86 181.236 1264.19 181.236 1263.53 181.236L1261.23 181.236 1250.32 181.236 1250.32 167.676 1264.24 167.676C1264.9 167.676 1265.56 167.985 1266.53 169.31L1266.53 162.684C1266.23 162.993 1265.87 162.993 1265.56 162.993L1264.59 162.993 1245.07 162.993 1243.74 162.993 1243.74 163.303C1244.71 163.612 1245.07 165.6 1245.07 166.262L1245.07 201.997C1245.07 202.969 1244.76 204.647 1243.74 204.957L1243.74 205.266 1252 205.266 1265.56 205.266 1266.53 205.266 1268.52 197.668C1265.83 199.788 1263.84 200.451 1261.5 200.451Z" fill="#004898" fill-rule="evenodd" fill-opacity="1" transform="matrix(1.00873 0 0 1 -1308.35 264.957)"/><path d="M1344.23 163.038 1338.93 163.038 1337.61 163.038 1337.61 163.347C1338.58 163.656 1338.93 165.335 1338.93 166.306L1338.93 202.35C1338.93 203.322 1338.62 204.647 1337.61 205.31L1337.61 205.619 1345.87 205.619 1345.87 205.398C1344.89 205.089 1344.54 203.101 1344.54 202.439L1344.54 166.395C1344.54 165.423 1344.85 163.744 1345.87 163.435L1345.87 163.126 1344.23 163.126 1344.23 163.038Z" fill="#004898" fill-rule="evenodd" fill-opacity="1" transform="matrix(1.00873 0 0 1 -1308.35 264.957)"/><path d="M1408.77 163.038 1408.77 163.038 1405.81 163.038 1405.81 163.347C1407.8 164.672 1407.44 166.66 1406.78 167.985L1400.15 183.533 1393.53 167.632 1392.2 164.672C1391.54 163.347 1389.55 163.347 1388.23 163.347L1384.25 163.347C1386.24 164.672 1386.55 165.997 1387.87 168.294L1397.15 189.143 1397.15 202.041C1397.15 203.013 1396.84 204.692 1395.82 205.001L1395.82 205.31 1397.15 205.31 1402.45 205.31 1403.78 205.31 1403.78 205.001C1402.8 204.692 1402.45 203.013 1402.45 202.041L1402.45 189.143 1411.37 168.647 1413.67 163.347 1408.72 163.347 1408.72 163.038Z" fill="#004898" fill-rule="evenodd" fill-opacity="1" transform="matrix(1.00873 0 0 1 -1308.35 264.957)"/><path d="M1378.64 163.038 1354.83 163.038 1354.17 163.038C1353.51 163.038 1353.2 162.728 1352.54 162.728L1350.9 169.663C1352.23 168.029 1353.86 168.029 1355.85 168.029L1362.48 168.029 1362.48 201.776C1362.48 201.776 1362.48 204.736 1361.15 205.398L1361.15 205.707 1369.41 205.707 1369.41 205.398C1368.44 205.089 1368.09 203.101 1368.09 202.439L1368.09 167.676 1375.02 167.676C1376.35 167.676 1377.98 167.366 1378.64 169.663L1378.95 167.676 1378.95 167.366 1379.92 162.728C1379.66 163.038 1379.3 163.038 1378.64 163.038Z" fill="#004898" fill-rule="evenodd" fill-opacity="1" transform="matrix(1.00873 0 0 1 -1308.35 264.957)"/><path d="M1312.12 173.33C1312.12 168.692 1315.43 167.057 1318.75 167.057 1319.41 167.057 1320.38 167.057 1320.38 167.057L1320.38 167.057C1322.68 167.057 1327.67 168.029 1329.3 170.37L1328.99 163.744C1327.01 163.082 1322.37 162.419 1320.07 162.419L1320.07 163.082 1320.07 162.419C1319.76 162.419 1319.1 162.419 1318.75 162.419 1311.81 162.419 1306.51 166.395 1306.51 173.992 1306.51 186.581 1326.03 185.565 1326.03 194.841 1326.03 199.479 1322.72 201.467 1318.75 201.467L1316.09 201.467C1312.78 201.467 1309.16 200.142 1306.51 197.492L1307.83 204.78C1310.49 205.752 1316.09 206.414 1318.75 206.414 1325.37 206.105 1331.33 203.101 1331.33 194.841 1331.64 181.236 1312.12 182.562 1312.12 173.33Z" fill="#004898" fill-rule="evenodd" fill-opacity="1" transform="matrix(1.00873 0 0 1 -1308.35 264.957)"/><path d="M1184.42 163.038 1179.78 163.038 1178.46 163.038 1178.46 163.347C1179.43 163.656 1179.78 165.997 1179.78 166.66L1179.78 198.773 1163.22 163.347 1155.62 163.347 1153.32 163.347 1153.32 163.656C1154.96 164.981 1155.31 166.306 1155.62 168.294L1155.62 202.395C1155.62 203.366 1155.31 205.045 1154.29 205.354L1154.29 205.663 1155.62 205.663 1160.26 205.663 1161.58 205.663 1161.58 205.398C1160.61 205.089 1160.26 203.411 1160.26 202.439L1160.26 168.692C1160.26 168.692 1166.88 183.577 1173.82 198.154 1177.79 206.105 1184.07 205.752 1184.07 205.752L1184.07 166.041C1184.07 165.07 1184.38 163.391 1185.39 163.082L1185.39 162.773 1184.42 163.038Z" fill="#004898" fill-rule="evenodd" fill-opacity="1" transform="matrix(1.00873 0 0 1 -1308.35 264.957)"/><path d="M1145.72 163.038 1140.42 163.038 1139.1 163.038 1139.1 163.347C1140.07 163.656 1140.42 165.335 1140.42 166.306L1140.42 190.115C1140.42 199.391 1137.77 201.688 1132.47 201.688 1127.53 201.688 1124.52 199.391 1124.52 190.115L1124.52 166.616C1124.52 165.644 1124.83 163.965 1125.85 163.303L1125.85 162.993 1124.52 162.993 1119.22 162.993 1117.9 162.993 1117.9 163.303C1119.22 163.965 1119.22 166.925 1119.22 166.925L1119.22 189.762C1119.22 201.334 1123.51 205.973 1132.47 205.973 1141.4 205.973 1145.72 201.334 1145.72 189.762L1145.72 166.925C1145.72 166.925 1145.72 163.965 1147.05 163.303L1147.05 162.993 1145.72 162.993 1145.72 163.038Z" fill="#004898" fill-rule="evenodd" fill-opacity="1" transform="matrix(1.00873 0 0 1 -1308.35 264.957)"/><path d="M1298.56 200.451 1290.61 185.874C1296.22 184.549 1299.22 179.249 1299.22 174.611 1299.22 169.31 1295.6 163.347 1287.96 163.347L1281.69 163.347 1276.08 163.347 1275.1 163.347 1273.78 163.347 1273.78 163.656C1275.1 164.319 1275.1 166.306 1275.1 166.969L1275.1 201.732C1275.1 201.732 1275.1 204.692 1273.78 205.354L1273.78 205.663 1282.04 205.663 1282.04 205.398C1280.71 204.736 1280.71 201.776 1280.71 201.776L1280.71 186.228 1285 186.228 1293.92 203.101C1294.89 205.398 1297.23 205.398 1299.53 205.398L1303.51 205.398 1303.51 205.089C1300.9 203.411 1299.88 202.748 1298.56 200.451ZM1280.36 181.236 1280.36 167.985 1286.99 167.985C1291.93 167.985 1293.92 171.607 1293.92 174.611 1293.92 177.923 1291.93 181.236 1286.99 181.236L1280.36 181.236Z" fill="#004898" fill-rule="evenodd" fill-opacity="1" transform="matrix(1.00873 0 0 1 -1308.35 264.957)"/><path d="M454.482 189.187C454.482 189.187 424.048 177.614 385.972 183.224L385.972 77.3446C414.772 68.7311 439.596 80.3041 439.596 80.3041L439.596 61.7962C439.596 61.7962 405.187 46.9103 366.492 66.0808L366.492 86.2673 366.492 206.061C408.853 190.822 449.888 207.695 449.888 207.695 508.46 230.532 540.22 218.606 540.22 218.606L540.22 191.484C540.529 191.528 513.717 208.402 454.482 189.187Z" fill="#004898" fill-rule="evenodd" fill-opacity="1" transform="matrix(1.00873 0 0 1 -1308.35 264.957)"/><path d="M521.005 182.915 521.005 42.2723C521.005 42.2723 481.295 24.3828 439.596 42.5815L439.596 61.752C461.771 50.179 485.579 51.8134 501.79 55.1262L501.79 159.018C487.876 156.721 467.69 155.705 447.857 161.978L447.857 74.6943C451.479 73.3691 456.47 71.7348 461.108 70.0563 464.068 69.0845 473.344 66.7434 473.697 76.3287 473.697 80.9667 473.697 83.2636 473.697 89.5802 473.697 91.2145 473.034 92.5397 471.4 93.2022 470.075 93.8648 465.79 94.5274 465.79 94.5274L465.79 102.787C465.79 102.787 466.099 102.787 470.075 102.125 472.725 101.816 473.388 103.45 473.388 106.1 473.388 112.064 473.388 123.99 473.388 123.99 473.388 123.99 473.388 126.287 472.063 127.965 470.738 129.6 465.437 129.6 465.437 129.6L465.437 137.551C465.437 137.551 471.709 137.241 474.713 135.916 475.685 135.607 479.351 133.929 480.323 130.969 481.648 126.994 481.648 110.473 480.985 102.832 480.676 97.8844 476.038 96.8685 476.038 96.8685 476.038 96.8685 480.985 94.5715 480.985 89.2709L480.985 72.7066C480.985 61.4428 470.384 57.8207 460.49 60.7802 450.242 63.0771 438.978 68.0685 438.978 68.0685L438.978 184.196C475.331 163.391 521.005 182.915 521.005 182.915Z" fill="#004898" fill-rule="evenodd" fill-opacity="1" transform="matrix(1.00873 0 0 1 -1308.35 264.957)"/><path d="M454.482 78.3605 454.482 145.546 454.482 153.497C454.482 153.497 456.779 152.834 461.108 152.171 468.043 150.846 480.941 149.874 495.209 151.509L495.209 144.883 495.209 60.8244C495.209 60.8244 490.924 59.4992 486.948 59.8526L486.948 143.249C476.701 142.94 468.441 143.558 462.477 144.221L462.477 75.7102C462.787 75.7102 458.149 76.3728 454.482 78.3605Z" fill="#004898" fill-rule="evenodd" fill-opacity="1" transform="matrix(1.00873 0 0 1 -1308.35 264.957)"/><path d="M1787.19 64.1373 1796.73 64.1373 1796.73 73.6784 1787.19 73.6784Z" fill="#1B75BB" fill-rule="nonzero" fill-opacity="1" transform="matrix(1.00873 0 0 1 -1308.35 264.957)"/><path d="M1799.77 49.7373 1812.76 49.7373 1812.76 62.7238 1799.77 62.7238Z" fill="#1B75BB" fill-rule="nonzero" fill-opacity="1" transform="matrix(1.00873 0 0 1 -1308.35 264.957)"/><path d="M1751.19 199.656 1751.19 188.569C1751.19 188.569 1750.35 182.738 1743.63 182.429L1684.62 183.003 1653.7 183.003C1642.79 183.003 1634.84 181.369 1629.85 178.056 1624.85 174.743 1622.38 170.812 1622.38 166.218L1622.38 90.1986C1622.38 85.4722 1624.85 81.4967 1629.85 78.228 1634.79 75.0035 1642.74 73.3691 1653.7 73.3691L1681.31 73.325C1687.36 58.8367 1703.13 50.6649 1732.72 49.7373L1652.95 50.0907C1616.2 50.0907 1597.82 63.4305 1597.82 90.1544L1597.82 166.174C1597.82 192.898 1616.2 206.238 1652.95 206.238L1684.62 206.238 1743.59 206.414C1747.21 206.458 1751.23 202.35 1751.19 199.656Z" fill="#1B75BB" fill-rule="nonzero" fill-opacity="1" transform="matrix(1.00873 0 0 1 -1308.35 264.957)"/><path d="M1792.27 115.111 1741.42 115.111C1728.79 115.111 1719.87 113.477 1714.61 110.164 1709.36 106.851 1706.75 102.92 1706.75 98.3261L1706.75 89.9335C1706.75 85.2072 1709.36 81.2317 1714.61 77.963 1719.87 74.7385 1723.4 73.6342 1741.11 73.6342L1763.51 73.6342C1766.96 73.6342 1769.3 72.1323 1770.36 70.1888 1771.42 68.2452 1771.99 65.3299 1771.99 61.487 1771.99 57.5999 1771.46 54.6845 1770.36 52.7851 1769.3 50.8416 1767 49.7815 1763.55 49.7815L1742.31 49.7815C1738.95 49.7373 1735.73 49.7373 1732.68 49.8256 1703.04 50.7091 1687.27 58.925 1681.26 73.4133 1679.27 78.228 1678.3 83.7495 1678.3 89.9777L1678.3 98.3703C1678.3 125.094 1699.55 138.434 1742.04 138.434L1792.88 138.434C1805.52 138.434 1814.44 140.068 1819.7 143.381 1824.95 146.694 1827.56 150.625 1827.56 155.219L1827.56 165.997C1827.56 170.724 1824.95 174.699 1819.7 177.968 1814.44 181.192 1805.52 182.827 1792.88 182.827L1744.52 182.517 1743.99 182.517 1743.59 182.517C1743.63 182.517 1743.63 182.517 1743.63 182.517 1750.35 182.827 1751.19 188.657 1751.19 188.657L1751.19 199.744C1751.23 202.483 1747.21 206.547 1743.59 206.591 1743.59 206.591 1743.59 206.591 1743.54 206.591L1743.68 206.591 1744.52 206.591 1791.82 206.017C1834.71 206.105 1855.96 192.765 1855.96 166.041L1855.96 155.263C1856.01 128.451 1834.76 115.111 1792.27 115.111Z" fill="#FAAF40" fill-rule="nonzero" fill-opacity="1" transform="matrix(1.00873 0 0 1 -1308.35 264.957)"/><path d="M1922.04 142.895C1918.91 143.558 1915.64 143.911 1912.24 143.911 1902.43 143.911 1897.53 140.731 1897.53 134.414L1897.53 117.806C1897.53 111.136 1902.43 107.779 1912.24 107.779 1915.5 107.779 1918.68 108.132 1921.82 108.795L1921.82 112.682C1918.38 111.799 1915.2 111.401 1912.32 111.401 1910.95 111.401 1909.76 111.489 1908.7 111.622 1907.64 111.799 1906.63 112.064 1905.61 112.461 1904.59 112.859 1903.84 113.521 1903.31 114.405 1902.78 115.288 1902.52 116.392 1902.52 117.718L1902.52 134.105C1902.52 138.125 1905.88 140.157 1912.55 140.157 1915.42 140.157 1918.6 139.715 1922.04 138.876L1922.04 142.895Z" fill="#1B75BB" fill-rule="nonzero" fill-opacity="1" transform="matrix(1.00873 0 0 1 -1308.35 264.957)"/><path d="M1957.47 117.806 1957.47 134.414C1957.47 136.314 1957.03 137.948 1956.1 139.273 1955.17 140.598 1953.93 141.57 1952.34 142.189 1950.75 142.807 1949.21 143.249 1947.66 143.514 1946.12 143.779 1944.44 143.911 1942.67 143.911 1932.91 143.911 1928.01 140.731 1928.01 134.414L1928.01 117.85C1928.01 111.18 1932.91 107.823 1942.67 107.823 1952.56 107.823 1957.47 111.18 1957.47 117.806ZM1952.43 134.37 1952.43 117.718C1952.43 113.389 1949.21 111.268 1942.71 111.268 1941.34 111.268 1940.15 111.357 1939.09 111.533 1938.03 111.71 1937.06 112.019 1936.09 112.461 1935.12 112.903 1934.37 113.565 1933.84 114.449 1933.31 115.332 1933.04 116.437 1933.04 117.762L1933.04 134.414C1933.04 138.434 1936.31 140.466 1942.8 140.466 1949.21 140.378 1952.43 138.39 1952.43 134.37Z" fill="#1B75BB" fill-rule="nonzero" fill-opacity="1" transform="matrix(1.00873 0 0 1 -1308.35 264.957)"/><path d="M2002.92 143.337 1998.33 143.337 1998.33 113.742 1998.06 113.742 1986.8 143.337 1982.12 143.337 1970.54 113.742 1970.28 113.742 1970.28 143.337 1965.6 143.337 1965.6 108.353 1973.41 108.353 1984.63 137.462 1984.81 137.506 1995.41 108.353 2002.96 108.353 2002.96 143.337Z" fill="#1B75BB" fill-rule="nonzero" fill-opacity="1" transform="matrix(1.00873 0 0 1 -1308.35 264.957)"/><path d="M2035.74 115.288 2035.74 122.576C2035.74 125.58 2034.59 127.656 2032.25 128.893 2029.95 130.13 2026.64 130.748 2022.4 130.748L2017.19 130.748 2017.19 143.337 2011.98 143.337 2011.98 108.353 2023.42 108.353C2024.87 108.353 2026.11 108.397 2027.13 108.441 2028.19 108.53 2029.29 108.706 2030.44 108.972 2031.59 109.237 2032.56 109.634 2033.22 110.12 2033.93 110.606 2034.5 111.268 2034.99 112.152 2035.47 113.035 2035.74 114.051 2035.74 115.288ZM2030.62 122.267 2030.62 115.906C2030.62 114.935 2030.35 114.14 2029.86 113.521 2029.38 112.903 2028.63 112.461 2027.7 112.196 2026.77 111.931 2025.98 111.799 2025.36 111.754 2024.74 111.71 2023.95 111.666 2023.02 111.666L2017.14 111.666 2017.14 127.479 2023.11 127.479C2025.18 127.479 2026.95 127.082 2028.41 126.331 2029.91 125.536 2030.62 124.211 2030.62 122.267Z" fill="#1B75BB" fill-rule="nonzero" fill-opacity="1" transform="matrix(1.00873 0 0 1 -1308.35 264.957)"/><path d="M2070.02 108.397 2070.02 134.414C2070.02 140.731 2065.47 143.911 2056.32 143.911 2054.51 143.911 2052.88 143.779 2051.42 143.558 2049.96 143.337 2048.55 142.895 2047.18 142.277 2045.77 141.659 2044.66 140.687 2043.91 139.362 2043.12 138.036 2042.72 136.402 2042.72 134.459L2042.72 108.441 2047.71 108.441 2047.71 134.414C2047.71 136.711 2048.46 138.301 2050.01 139.141 2051.55 140.024 2053.67 140.422 2056.41 140.422 2059.15 140.422 2061.27 139.98 2062.73 139.141 2064.23 138.257 2064.98 136.711 2064.98 134.414L2064.98 108.441 2070.02 108.441Z" fill="#1B75BB" fill-rule="nonzero" fill-opacity="1" transform="matrix(1.00873 0 0 1 -1308.35 264.957)"/><path d="M2104.82 112.064 2093.03 112.064 2093.03 143.381 2087.73 143.381 2087.73 112.064 2075.89 112.064 2075.89 108.397 2104.82 108.397 2104.82 112.064Z" fill="#1B75BB" fill-rule="nonzero" fill-opacity="1" transform="matrix(1.00873 0 0 1 -1308.35 264.957)"/><path d="M2134.68 143.337 2110.66 143.337 2110.66 108.353 2134.15 108.353 2134.15 112.019 2115.87 112.019 2115.87 123.46 2132.34 123.46 2132.34 127.126 2115.87 127.126 2115.87 139.671 2134.68 139.671 2134.68 143.337Z" fill="#1B75BB" fill-rule="nonzero" fill-opacity="1" transform="matrix(1.00873 0 0 1 -1308.35 264.957)"/><path d="M2168.61 143.337 2162.2 143.337 2152.18 128.407 2147.1 128.407 2147.1 143.337 2141.88 143.337 2141.88 108.353 2154.16 108.353C2158.54 108.353 2161.67 108.795 2163.57 109.678 2165.47 110.562 2166.44 112.417 2166.44 115.2L2166.44 121.251C2166.44 123.416 2165.56 125.05 2163.79 126.11 2162.03 127.214 2159.91 127.744 2157.39 127.744L2168.61 143.337ZM2161.23 120.633 2161.23 115.774C2161.23 113.168 2158.98 111.843 2154.43 111.843L2147.1 111.843 2147.1 125.006 2153.94 125.006C2156.42 125.006 2158.27 124.697 2159.42 124.078 2160.66 123.46 2161.23 122.311 2161.23 120.633Z" fill="#1B75BB" fill-rule="nonzero" fill-opacity="1" transform="matrix(1.00873 0 0 1 -1308.35 264.957)"/><path d="M2210.44 131.499 2210.44 134.017C2210.44 137.771 2209.38 140.333 2207.26 141.747 2205.14 143.16 2201.83 143.867 2197.36 143.867 2194.49 143.867 2190.92 143.558 2186.67 142.984L2186.67 138.611C2190.92 139.494 2194.58 139.936 2197.67 139.936 2200.15 139.936 2202.05 139.671 2203.37 139.097 2204.7 138.522 2205.36 137.418 2205.36 135.74L2205.36 131.19C2205.36 129.732 2204.92 128.672 2204.08 128.054 2203.24 127.435 2201.74 127.126 2199.53 127.126L2195.42 127.126C2191.89 127.126 2189.46 126.419 2188.04 125.006 2186.67 123.592 2185.97 121.516 2185.97 118.733L2185.97 115.951C2185.97 113.168 2186.94 111.136 2188.88 109.811 2190.83 108.486 2194.45 107.823 2199.71 107.823 2202.22 107.823 2205.23 108.044 2208.72 108.397L2208.72 112.329C2204.74 111.71 2201.6 111.401 2199.35 111.401 2195.99 111.401 2193.79 111.754 2192.68 112.417 2191.58 113.079 2191.05 114.184 2191.05 115.774L2191.05 119.749C2191.05 120.986 2191.49 121.87 2192.33 122.4 2193.17 122.974 2194.71 123.239 2196.92 123.239L2201.12 123.239C2204.74 123.239 2207.21 123.902 2208.5 125.227 2209.82 126.596 2210.44 128.672 2210.44 131.499Z" fill="#1B75BB" fill-rule="nonzero" fill-opacity="1" transform="matrix(1.00873 0 0 1 -1308.35 264.957)"/><path d="M2241.36 142.895C2238.22 143.558 2234.95 143.911 2231.55 143.911 2221.75 143.911 2216.84 140.731 2216.84 134.414L2216.84 117.806C2216.84 111.136 2221.75 107.779 2231.55 107.779 2234.82 107.779 2238 108.132 2241.14 108.795L2241.14 112.682C2237.69 111.799 2234.51 111.401 2231.64 111.401 2230.27 111.401 2229.08 111.489 2228.02 111.622 2226.96 111.799 2225.94 112.064 2224.93 112.461 2223.91 112.859 2223.16 113.521 2222.63 114.405 2222.1 115.288 2221.84 116.392 2221.84 117.718L2221.84 134.105C2221.84 138.125 2225.19 140.157 2231.86 140.157 2234.73 140.157 2237.91 139.715 2241.36 138.876L2241.36 142.895Z" fill="#1B75BB" fill-rule="nonzero" fill-opacity="1" transform="matrix(1.00873 0 0 1 -1308.35 264.957)"/><path d="M2253.55 143.337 2248.34 143.337 2248.34 108.353 2253.55 108.353 2253.55 143.337Z" fill="#1B75BB" fill-rule="nonzero" fill-opacity="1" transform="matrix(1.00873 0 0 1 -1308.35 264.957)"/><path d="M2286.63 143.337 2262.61 143.337 2262.61 108.353 2286.1 108.353 2286.1 112.019 2267.82 112.019 2267.82 123.46 2284.29 123.46 2284.29 127.126 2267.82 127.126 2267.82 139.671 2286.63 139.671 2286.63 143.337Z" fill="#1B75BB" fill-rule="nonzero" fill-opacity="1" transform="matrix(1.00873 0 0 1 -1308.35 264.957)"/><path d="M2323.78 143.337 2317.47 143.337 2298.43 113.963 2298.43 143.337 2293.83 143.337 2293.83 108.353 2300.15 108.353 2319.19 137.241 2319.19 108.353 2323.78 108.353 2323.78 143.337Z" fill="#1B75BB" fill-rule="nonzero" fill-opacity="1" transform="matrix(1.00873 0 0 1 -1308.35 264.957)"/><path d="M2356.29 142.895C2353.16 143.558 2349.89 143.911 2346.49 143.911 2336.68 143.911 2331.78 140.731 2331.78 134.414L2331.78 117.806C2331.78 111.136 2336.68 107.779 2346.49 107.779 2349.76 107.779 2352.94 108.132 2356.07 108.795L2356.07 112.682C2352.63 111.799 2349.45 111.401 2346.58 111.401 2345.21 111.401 2344.01 111.489 2342.95 111.622 2341.89 111.799 2340.88 112.064 2339.86 112.461 2338.85 112.859 2338.09 113.521 2337.56 114.405 2337.03 115.288 2336.77 116.392 2336.77 117.718L2336.77 134.105C2336.77 138.125 2340.13 140.157 2346.8 140.157 2349.67 140.157 2352.85 139.715 2356.29 138.876L2356.29 142.895Z" fill="#1B75BB" fill-rule="nonzero" fill-opacity="1" transform="matrix(1.00873 0 0 1 -1308.35 264.957)"/><path d="M2387.26 143.337 2363.23 143.337 2363.23 108.353 2386.73 108.353 2386.73 112.019 2368.44 112.019 2368.44 123.46 2384.92 123.46 2384.92 127.126 2368.44 127.126 2368.44 139.671 2387.26 139.671 2387.26 143.337Z" fill="#1B75BB" fill-rule="nonzero" fill-opacity="1" transform="matrix(1.00873 0 0 1 -1308.35 264.957)"/><path d="M1923.76 62.9446 1923.76 76.1961C1923.76 81.6292 1919.57 84.3237 1911.22 84.3237L1899.25 84.3237 1899.25 54.3312 1911.18 54.3312C1919.57 54.3753 1923.76 57.2023 1923.76 62.9446ZM1919.44 76.1078 1919.44 62.9005C1919.44 61.752 1919.21 60.8244 1918.73 60.0735 1918.29 59.3226 1917.62 58.7483 1916.79 58.395 1915.95 58.0416 1915.06 57.7765 1914.18 57.644 1913.3 57.5115 1912.24 57.4232 1911.09 57.4232L1903.71 57.4232 1903.71 81.2759 1910.87 81.2759C1916.61 81.2759 1919.44 79.5532 1919.44 76.1078Z" fill="#6D6E70" fill-rule="nonzero" fill-opacity="1" transform="matrix(1.00873 0 0 1 -1308.35 264.957)"/><path d="M1951.2 84.3237 1930.61 84.3237 1930.61 54.3312 1950.75 54.3312 1950.75 57.4673 1935.07 57.4673 1935.07 67.2735 1949.21 67.2735 1949.21 70.4096 1935.07 70.4096 1935.07 81.1875 1951.2 81.1875 1951.2 84.3237Z" fill="#6D6E70" fill-rule="nonzero" fill-opacity="1" transform="matrix(1.00873 0 0 1 -1308.35 264.957)"/><path d="M1977.74 60.2502 1977.74 66.4784C1977.74 69.0403 1976.77 70.8514 1974.78 71.9115 1972.8 72.9716 1969.97 73.5017 1966.35 73.5017L1961.88 73.5017 1961.88 84.3237 1957.42 84.3237 1957.42 54.3312 1967.23 54.3312C1968.47 54.3312 1969.53 54.3753 1970.41 54.4195 1971.29 54.4637 1972.27 54.6404 1973.24 54.8612 1974.25 55.0821 1975.05 55.4354 1975.62 55.833 1976.24 56.2305 1976.73 56.8048 1977.17 57.5557 1977.52 58.3508 1977.74 59.2342 1977.74 60.2502ZM1973.37 66.2575 1973.37 60.8244C1973.37 59.9851 1973.15 59.3226 1972.71 58.7483 1972.27 58.2183 1971.65 57.8207 1970.85 57.5999 1970.06 57.379 1969.39 57.2465 1968.86 57.2023 1968.33 57.1581 1967.67 57.114 1966.83 57.114L1961.8 57.114 1961.8 70.6305 1966.92 70.6305C1968.69 70.6305 1970.23 70.3213 1971.47 69.6587 1972.75 69.0403 1973.37 67.8919 1973.37 66.2575Z" fill="#6D6E70" fill-rule="nonzero" fill-opacity="1" transform="matrix(1.00873 0 0 1 -1308.35 264.957)"/><path d="M2005.75 84.3237 2001.07 84.3237 1997.66 75.2244 1984.81 75.2244 1981.45 84.3237 1977.04 84.3237 1988.96 54.3312 1994.13 54.3312 2005.75 84.3237ZM1996.56 72.1323 1991.48 58.6158 1991.08 58.6158 1986 72.1323 1996.56 72.1323Z" fill="#6D6E70" fill-rule="nonzero" fill-opacity="1" transform="matrix(1.00873 0 0 1 -1308.35 264.957)"/><path d="M2033.22 84.3237 2027.74 84.3237 2019.13 71.5139 2014.8 71.5139 2014.8 84.3237 2010.34 84.3237 2010.34 54.3312 2020.85 54.3312C2024.61 54.3312 2027.3 54.7287 2028.94 55.4796 2030.57 56.2305 2031.37 57.8207 2031.37 60.206L2031.37 65.3741C2031.37 67.2293 2030.62 68.5986 2029.11 69.5704 2027.61 70.498 2025.76 70.9839 2023.64 70.9839L2033.22 84.3237ZM2026.91 64.844 2026.91 60.6919C2026.91 58.4391 2024.96 57.3348 2021.07 57.3348L2014.8 57.3348 2014.8 68.5986 2020.68 68.5986C2022.8 68.5986 2024.39 68.3336 2025.4 67.8035 2026.38 67.2735 2026.91 66.3017 2026.91 64.844Z" fill="#6D6E70" fill-rule="nonzero" fill-opacity="1" transform="matrix(1.00873 0 0 1 -1308.35 264.957)"/><path d="M2060.61 57.5115 2050.49 57.5115 2050.49 84.3679 2045.99 84.3679 2045.99 57.5115 2035.83 57.5115 2035.83 54.3753 2060.65 54.3753 2060.65 57.5115Z" fill="#6D6E70" fill-rule="nonzero" fill-opacity="1" transform="matrix(1.00873 0 0 1 -1308.35 264.957)"/><path d="M2097.62 84.3237 2093.69 84.3237 2093.69 58.9692 2093.47 58.9692 2083.8 84.3237 2079.78 84.3237 2069.84 58.9692 2069.62 58.9692 2069.62 84.3237 2065.6 84.3237 2065.6 54.3312 2072.31 54.3312 2081.94 79.2882 2082.08 79.3323 2091.18 54.3312 2097.62 54.3312 2097.62 84.3237Z" fill="#6D6E70" fill-rule="nonzero" fill-opacity="1" transform="matrix(1.00873 0 0 1 -1308.35 264.957)"/><path d="M2125.98 84.3237 2105.4 84.3237 2105.4 54.3312 2125.54 54.3312 2125.54 57.4673 2109.86 57.4673 2109.86 67.2735 2123.99 67.2735 2123.99 70.4096 2109.86 70.4096 2109.86 81.1875 2125.98 81.1875 2125.98 84.3237Z" fill="#6D6E70" fill-rule="nonzero" fill-opacity="1" transform="matrix(1.00873 0 0 1 -1308.35 264.957)"/><path d="M2157.79 84.3237 2152.4 84.3237 2136.1 59.1459 2136.1 84.3237 2132.17 84.3237 2132.17 54.3312 2137.56 54.3312 2153.85 79.1115 2153.85 54.3312 2157.79 54.3312 2157.79 84.3237Z" fill="#6D6E70" fill-rule="nonzero" fill-opacity="1" transform="matrix(1.00873 0 0 1 -1308.35 264.957)"/><path d="M2187.6 57.5115 2177.49 57.5115 2177.49 84.3679 2172.98 84.3679 2172.98 57.5115 2162.82 57.5115 2162.82 54.3753 2187.65 54.3753 2187.65 57.5115Z" fill="#6D6E70" fill-rule="nonzero" fill-opacity="1" transform="matrix(1.00873 0 0 1 -1308.35 264.957)"/><path d="M2227.62 62.4587 2227.62 76.682C2227.62 78.3164 2227.22 79.6857 2226.43 80.8342 2225.63 81.9826 2224.57 82.8219 2223.2 83.352 2221.84 83.882 2220.51 84.2795 2219.18 84.5004 2217.86 84.7213 2216.45 84.8096 2214.9 84.8096 2206.51 84.8096 2202.36 82.1151 2202.36 76.682L2202.36 62.5029C2202.36 56.7606 2206.55 53.8894 2214.9 53.8894 2223.43 53.8894 2227.62 56.7606 2227.62 62.4587ZM2223.29 76.6379 2223.29 62.3704C2223.29 58.66 2220.51 56.8048 2214.99 56.8048 2213.84 56.8048 2212.78 56.8931 2211.9 57.0256 2211.01 57.1581 2210.13 57.4232 2209.29 57.8207 2208.45 58.2183 2207.83 58.7925 2207.35 59.5434 2206.91 60.2943 2206.64 61.2661 2206.64 62.3704L2206.64 76.6379C2206.64 80.0832 2209.42 81.8059 2214.99 81.8059 2220.55 81.8059 2223.29 80.0832 2223.29 76.6379Z" fill="#6D6E70" fill-rule="nonzero" fill-opacity="1" transform="matrix(1.00873 0 0 1 -1308.35 264.957)"/><path d="M2255.18 57.5115 2239.06 57.5115 2239.06 67.3176 2253.64 67.3176 2253.64 70.4538 2239.06 70.4538 2239.06 84.3679 2234.6 84.3679 2234.6 54.3753 2255.18 54.3753 2255.18 57.5115Z" fill="#6D6E70" fill-rule="nonzero" fill-opacity="1" transform="matrix(1.00873 0 0 1 -1308.35 264.957)"/><path d="M1899.87 201.025 1902.25 201.025 1902.25 198.375 1909.72 198.375 1909.72 200.672 1912.1 200.672 1912.1 187.332 1899.87 187.332 1899.87 201.025ZM1909.72 189.541 1909.72 196.034 1902.25 196.034 1902.25 189.541 1909.72 189.541Z" fill="#1B75BB" fill-rule="nonzero" fill-opacity="1" transform="matrix(1.00873 0 0 1 -1308.35 264.957)"/><path d="M1924.56 164.098 1922 164.098 1922 177.261 1913.38 177.261 1913.38 179.69 1922 179.69 1922 201.776 1924.56 201.776 1924.56 179.69 1934.9 179.69 1934.9 177.261 1924.56 177.261Z" fill="#1B75BB" fill-rule="nonzero" fill-opacity="1" transform="matrix(1.00873 0 0 1 -1308.35 264.957)"/><path d="M1899.07 176.157 1912.32 176.157 1912.32 178.409 1899.07 178.409Z" fill="#1B75BB" fill-rule="nonzero" fill-opacity="1" transform="matrix(1.00873 0 0 1 -1308.35 264.957)"/><path d="M1899.07 181.811 1912.32 181.811 1912.32 184.019 1899.07 184.019Z" fill="#1B75BB" fill-rule="nonzero" fill-opacity="1" transform="matrix(1.00873 0 0 1 -1308.35 264.957)"/><path d="M1914.36 170.679 1906.63 170.679 1908.04 169.663 1907.91 169.398C1906.89 167.499 1905.65 165.732 1904.24 164.186L1904.06 163.965 1902.08 165.246 1902.34 165.555C1903.71 167.19 1904.82 168.912 1905.65 170.679L1897.35 170.679 1897.35 172.932 1914.4 172.932 1914.4 170.679Z" fill="#1B75BB" fill-rule="nonzero" fill-opacity="1" transform="matrix(1.00873 0 0 1 -1308.35 264.957)"/><path d="M1970.72 189.717 1976.64 189.717 1976.64 173.816 1975.53 173.816 1977.3 172.446 1977.04 172.181C1976.28 171.386 1975.45 170.635 1974.56 169.884L1982.16 169.884 1982.16 167.632 1969.31 167.632C1969.84 166.792 1970.32 165.909 1970.72 164.981L1970.85 164.628 1968.64 164.009 1968.51 164.274C1967.98 165.511 1967.14 166.836 1965.99 168.294 1964.89 169.708 1963.61 171.033 1962.15 172.137L1961.84 172.402 1963.52 173.816 1959.23 173.816 1961 172.49 1960.78 172.225C1960.12 171.43 1959.37 170.679 1958.62 169.928L1964.49 169.928 1964.49 167.676 1954.15 167.676C1954.64 166.836 1955.13 165.909 1955.52 165.025L1955.66 164.672 1953.45 164.054 1953.32 164.319C1952.7 165.865 1951.68 167.543 1950.27 169.31 1948.94 171.077 1947.35 172.667 1945.59 174.081L1945.28 174.346 1947.04 175.847 1947.26 175.671C1948.94 174.301 1950.58 172.623 1952.08 170.768 1952.3 170.503 1952.48 170.238 1952.65 169.973L1955.39 169.973C1956.72 171.209 1957.87 172.49 1958.88 173.771L1958.97 173.904 1951.73 173.904 1951.73 189.806 1957.64 189.806C1957.6 190.689 1957.51 191.528 1957.38 192.279L1946.07 192.279 1946.07 194.532 1956.63 194.532C1956.54 194.665 1956.5 194.753 1956.41 194.841 1955.66 195.857 1954.46 196.741 1952.83 197.492 1951.15 198.287 1948.9 198.949 1946.2 199.479L1945.76 199.568 1946.95 201.644 1947.18 201.6C1950.14 200.981 1952.56 200.186 1954.46 199.214 1956.36 198.375 1957.73 197.271 1958.62 196.034 1958.93 195.636 1959.19 195.106 1959.41 194.532L1968.47 194.532 1968.47 201.6 1970.85 201.6 1970.85 194.532 1982.91 194.532 1982.91 192.279 1970.85 192.279 1970.85 189.717ZM1963.87 173.771C1965.2 172.711 1966.43 171.43 1967.67 169.928L1971.21 169.928C1972.71 171.165 1974.08 172.446 1975.18 173.727L1975.27 173.816 1963.78 173.816 1963.87 173.771ZM1968.33 189.717 1968.33 192.191 1959.81 192.191C1959.9 191.484 1959.99 190.645 1960.03 189.717L1968.33 189.717ZM1974.25 185.123 1974.25 187.465 1954.11 187.465 1954.11 185.123 1974.25 185.123ZM1974.25 180.574 1974.25 182.871 1954.11 182.871 1954.11 180.574 1974.25 180.574ZM1974.25 176.068 1974.25 178.321 1954.11 178.321 1954.11 176.068 1974.25 176.068Z" fill="#1B75BB" fill-rule="nonzero" fill-opacity="1" transform="matrix(1.00873 0 0 1 -1308.35 264.957)"/><path d="M2028.89 194.4C2028.76 196.343 2028.54 197.668 2028.27 198.331 2028.19 198.552 2028.01 198.773 2027.83 198.773 2027.21 198.773 2026.11 198.154 2024.17 195.239 2023.95 194.93 2023.73 194.576 2023.5 194.179 2025.01 192.765 2026.38 191.175 2027.57 189.408L2027.79 189.099 2025.8 187.95 2025.62 188.215C2024.7 189.585 2023.64 190.91 2022.49 192.058 2021.87 190.777 2021.34 189.364 2020.85 187.818L2031.15 187.818 2031.15 185.742 2027.48 185.742C2026.51 184.461 2025.4 183.312 2024.26 182.341 2025.62 182.164 2026.91 181.943 2028.05 181.634 2028.5 182.429 2028.89 183.312 2029.2 184.196L2029.33 184.593 2031.06 183.357 2030.97 183.092C2030.04 180.795 2028.85 178.674 2027.48 176.731L2027.3 176.466 2025.62 177.703 2025.85 177.968C2026.24 178.454 2026.64 179.028 2026.99 179.646 2025.85 179.955 2024.56 180.132 2023.15 180.265 2024.17 179.028 2025.14 177.658 2026.07 176.201 2027.44 174.081 2028.54 172.004 2029.29 170.017L2029.42 169.708 2027.39 168.868 2027.26 169.178C2026.77 170.326 2026.24 171.474 2025.58 172.667 2024.48 172.8 2023.33 172.932 2022.18 173.065 2022.8 172.225 2023.37 171.298 2023.9 170.326 2024.79 168.78 2025.49 167.234 2026.02 165.82L2026.11 165.511 2024.03 164.539 2023.9 164.893C2023.37 166.439 2022.67 167.985 2021.83 169.531 2021.12 170.812 2020.32 172.093 2019.4 173.241 2019.09 173.285 2018.73 173.285 2018.42 173.33L2018.25 173.33C2018.07 170.635 2017.98 167.676 2017.94 164.451L2017.94 164.098 2015.55 164.098 2015.55 164.451C2015.55 166.351 2015.6 168.162 2015.64 169.884L2013.96 169.178 2013.83 169.487C2013.39 170.547 2012.86 171.651 2012.28 172.711 2011.27 172.888 2010.21 173.065 2009.15 173.197 2009.68 172.402 2010.21 171.519 2010.74 170.503 2011.62 168.912 2012.28 167.411 2012.81 165.997L2012.9 165.688 2010.83 164.716 2010.69 165.07C2010.16 166.616 2009.5 168.162 2008.66 169.663 2007.96 170.944 2007.16 172.181 2006.32 173.418L2005.44 173.462 2005.44 172.049 2001.64 172.049 2001.64 164.054 1999.25 164.054 1999.25 172.049 1994.09 172.049 1994.09 174.301 1998.94 174.301C1998.59 176.996 1997.93 179.69 1997.09 182.296 1996.03 185.521 1994.84 188.215 1993.56 190.424L1993.42 190.689 1995.37 192.368 1995.59 192.014C1996.82 189.717 1997.84 187.332 1998.59 184.991 1998.86 184.284 1999.08 183.489 1999.3 182.694L1999.3 201.776 2001.68 201.776 2001.68 179.204C2002.66 181.016 2003.45 182.915 2004.02 184.903L2004.16 185.344 2006.32 183.842 2006.23 183.622C2006.14 183.401 2006.1 183.224 2006.01 183.003L2006.23 183.003C2009.28 182.915 2011.93 182.606 2014.05 181.987 2014.27 182.562 2014.49 183.18 2014.67 183.842L2014.76 184.196 2016.97 183.533 2016.88 183.224C2016.17 181.016 2015.2 178.984 2013.87 177.217L2013.7 176.996 2011.71 177.879C2012.02 177.438 2012.28 177.04 2012.59 176.598 2013.87 174.655 2014.89 172.8 2015.73 171.033 2016 177.128 2016.61 182.076 2017.67 185.786L2017.72 185.919 2011.98 185.919C2012.11 185.168 2012.2 184.417 2012.28 183.577L2012.33 183.224 2009.81 183.224 2009.77 183.533C2009.68 184.328 2009.59 185.123 2009.46 185.919L2003.76 185.919 2003.76 187.995 2009.15 187.995C2008.97 188.79 2008.8 189.541 2008.62 190.247 2008 192.412 2007.16 194.311 2006.23 195.857 2005.31 197.359 2004.25 198.552 2003.01 199.435L2002.74 199.612 2003.89 201.6 2004.2 201.379C2005.66 200.407 2006.94 198.993 2008.04 197.271 2008.97 195.813 2009.77 194.046 2010.47 192.014 2012.11 193.03 2013.74 194.267 2015.38 195.636L2015.64 195.857 2016.92 194.09 2016.7 193.869C2015.2 192.5 2013.3 191.087 2011.09 189.673 2011.22 189.099 2011.36 188.481 2011.49 187.862L2018.2 187.862C2018.87 190.027 2019.66 192.014 2020.5 193.737 2020.01 194.179 2019.44 194.62 2018.87 194.974 2016.61 196.476 2013.61 197.889 2009.94 199.126L2009.59 199.258 2010.65 201.29 2010.92 201.202C2014.85 199.877 2018.07 198.375 2020.46 196.741 2020.85 196.476 2021.25 196.166 2021.65 195.813 2021.91 196.211 2022.18 196.652 2022.44 197.05 2024.56 199.965 2026.29 201.379 2027.74 201.379 2028.63 201.379 2029.38 200.981 2029.91 200.274 2030.57 199.347 2031.01 197.624 2031.23 195.106L2031.28 194.841 2028.89 194.046 2028.89 194.4ZM2001.64 174.346 2005.22 174.346 2005.61 175.582 2005.88 175.582C2007.6 175.45 2009.33 175.273 2011 174.964 2010.87 175.185 2010.74 175.362 2010.61 175.582 2009.46 177.305 2008.18 179.072 2006.72 180.706L2005.44 180.706 2005.79 182.562C2005.08 180.706 2004.25 178.984 2003.27 177.393L2003.1 177.084 2001.6 178.056 2001.6 174.346ZM2011.89 178.1C2012.28 178.674 2012.68 179.293 2013.08 179.911 2012.02 180.176 2010.83 180.397 2009.55 180.53 2010.3 179.69 2011 178.763 2011.67 177.791L2011.89 178.1ZM2019.66 182.65C2020.99 182.606 2022.22 182.562 2023.42 182.429L2022.09 183.357 2022.4 183.622C2023.2 184.284 2023.9 184.991 2024.56 185.742L2020.1 185.742C2020.01 185.389 2019.93 185.035 2019.79 184.638 2019.62 184.019 2019.48 183.357 2019.35 182.694L2019.66 182.65ZM2018.65 175.406 2018.91 175.406C2020.72 175.273 2022.53 175.097 2024.3 174.831 2024.21 174.964 2024.12 175.141 2024.03 175.273 2022.97 176.996 2021.74 178.719 2020.37 180.397L2019 180.397C2018.73 178.63 2018.51 176.598 2018.34 174.39L2018.65 175.406Z" fill="#1B75BB" fill-rule="nonzero" fill-opacity="1" transform="matrix(1.00873 0 0 1 -1308.35 264.957)"/><path d="M2058.44 179.16C2061.09 180.971 2063.61 183.224 2066.04 185.874L2066.31 186.184 2067.99 184.063 2067.76 183.842C2065.38 181.325 2062.73 179.16 2059.86 177.349L2059.59 177.173 2058.09 178.939 2058.44 179.16Z" fill="#1B75BB" fill-rule="nonzero" fill-opacity="1" transform="matrix(1.00873 0 0 1 -1308.35 264.957)"/><path d="M2067.9 176.422 2068.16 176.731 2069.84 174.566 2069.62 174.346C2067.32 171.96 2064.72 169.84 2061.89 168.029L2061.62 167.852 2060.08 169.619 2060.39 169.84C2063.04 171.651 2065.56 173.86 2067.9 176.422Z" fill="#1B75BB" fill-rule="nonzero" fill-opacity="1" transform="matrix(1.00873 0 0 1 -1308.35 264.957)"/><path d="M2073.51 187.42 2073.51 164.23 2070.94 164.23 2070.94 187.818 2055.31 190.512 2055.44 192.898 2070.94 190.247 2070.94 201.776 2073.51 201.776 2073.51 189.806 2079.38 188.834 2079.16 186.449Z" fill="#1B75BB" fill-rule="nonzero" fill-opacity="1" transform="matrix(1.00873 0 0 1 -1308.35 264.957)"/><path d="M2055.62 187.685 2057.78 186.184 2057.65 185.919C2056.5 183.357 2055.09 181.016 2053.36 178.939L2053.19 178.719 2051.6 179.779 2051.6 177.261 2058.49 177.261 2058.49 175.008 2051.6 175.008 2051.6 169.001C2053.63 168.471 2055.62 167.897 2057.47 167.19L2057.83 167.057 2056.81 164.893 2056.54 164.981C2052.3 166.439 2047.62 167.543 2042.59 168.25L2042.19 168.294 2043.12 170.679 2043.38 170.635C2045.41 170.326 2047.36 169.928 2049.21 169.531L2049.21 175.008 2042.32 175.008 2042.32 177.261 2048.81 177.261C2048.33 179.558 2047.53 181.811 2046.43 184.019 2045.02 186.758 2043.47 189.099 2041.79 190.998L2041.57 191.263 2043.51 192.986 2043.73 192.721C2045.41 190.733 2046.78 188.701 2047.75 186.669 2048.28 185.698 2048.77 184.682 2049.21 183.533L2049.21 201.732 2051.6 201.732 2051.6 180.397C2053.23 182.562 2054.56 184.903 2055.48 187.288L2055.62 187.685Z" fill="#1B75BB" fill-rule="nonzero" fill-opacity="1" transform="matrix(1.00873 0 0 1 -1308.35 264.957)"/><path d="M2109.68 191.573C2113.75 190.336 2117.32 188.79 2120.33 186.979L2120.51 186.89 2120.51 184.947 2097.36 184.947 2097.36 187.2 2115.51 187.2C2113.48 188.083 2111.19 188.834 2108.76 189.541 2108.62 189.276 2108.4 189.011 2108.18 188.746L2108 188.569 2106.02 189.496 2106.28 189.85C2106.77 190.468 2107.12 191.175 2107.43 191.97L2090.51 191.97 2090.51 194.179 2108.14 194.179C2108.36 195.106 2108.45 196.166 2108.45 197.315 2108.45 198.728 2108.18 198.949 2108.09 198.993 2107.96 199.082 2107.74 199.17 2107.21 199.17 2106.02 199.17 2104.65 198.861 2103.06 198.198L2102.53 197.977 2102.79 200.628 2103.01 200.716C2104.65 201.29 2106.19 201.555 2107.65 201.555 2108.58 201.555 2109.33 201.334 2109.86 200.893 2110.52 200.319 2110.83 199.126 2110.83 197.315 2110.83 196.343 2110.7 195.283 2110.48 194.179L2127.31 194.179 2127.31 191.97 2109.86 191.97C2109.77 191.749 2109.73 191.661 2109.68 191.573Z" fill="#1B75BB" fill-rule="nonzero" fill-opacity="1" transform="matrix(1.00873 0 0 1 -1308.35 264.957)"/><path d="M2094.13 182.959 2123.6 182.959 2123.6 187.023 2125.94 187.023 2125.94 180.75 2123.33 180.75 2124.13 166.13 2114.63 166.13 2114.63 168.382 2121.61 168.382 2121.43 170.989 2114.45 170.989 2114.45 173.285 2121.34 173.285 2121.21 175.759 2113.79 175.759 2113.79 178.012 2121.12 178.012 2120.95 180.795 2112.73 180.795 2114.19 179.249 2113.97 179.028C2113.13 178.189 2112.2 177.393 2111.27 176.598 2112.11 175.803 2112.86 174.876 2113.57 173.904L2113.75 173.683 2112.86 172.755 2114.23 171.254 2114.01 171.033C2113.22 170.282 2112.42 169.575 2111.54 168.912 2112.51 167.985 2113.39 166.969 2114.19 165.82L2114.37 165.6 2112.91 163.965 2112.64 164.319C2111.85 165.467 2110.92 166.527 2109.82 167.543 2108.58 166.66 2107.3 165.776 2106.02 164.981L2105.75 164.805 2104.43 166.439 2104.74 166.66C2105.84 167.366 2106.94 168.117 2108.09 168.957 2106.9 169.796 2105.58 170.591 2104.12 171.254L2103.99 171.298 2103.99 170.944 2096.43 170.944 2096.39 169.398C2099.04 168.912 2101.51 168.117 2103.76 167.013L2104.12 166.836 2102.79 164.716 2102.57 164.849C2100.01 165.953 2097.27 166.748 2094.36 167.234L2094.05 167.278 2094.4 180.706 2091.75 180.706 2091.75 186.979 2094.13 186.979 2094.13 182.959ZM2105.09 180.706C2106.72 179.955 2108.23 179.072 2109.59 178.012 2110.52 178.807 2111.45 179.69 2112.38 180.618L2112.47 180.706 2105.05 180.706 2105.09 180.706ZM2104.03 171.695 2105 173.197 2105.27 173.065C2106.94 172.27 2108.49 171.298 2109.86 170.238 2110.57 170.9 2111.32 171.607 2112.07 172.358L2112.02 172.402C2111.32 173.374 2110.52 174.301 2109.55 175.229 2108.45 174.434 2107.34 173.639 2106.19 172.932L2105.93 172.755 2104.6 174.434 2104.91 174.611C2105.88 175.185 2106.86 175.847 2107.83 176.598 2106.68 177.482 2105.4 178.233 2103.94 178.895L2103.59 179.072 2104.74 180.75 2096.56 180.75 2096.52 177.835 2104.25 177.835 2104.25 175.582 2096.48 175.582 2096.43 173.285 2103.94 173.285 2103.94 171.695Z" fill="#1B75BB" fill-rule="nonzero" fill-opacity="1" transform="matrix(1.00873 0 0 1 -1308.35 264.957)"/><path d="M2172.63 189.143 2172.89 189.452 2174.57 187.332 2174.39 187.111C2171.61 183.842 2168.48 180.971 2165.12 178.586L2164.9 178.409 2163.31 180.088 2163.62 180.309C2164.81 181.192 2166 182.252 2167.24 183.357 2161.72 183.842 2156.59 184.196 2151.87 184.417 2154.61 183.003 2157.3 181.413 2159.77 179.69 2163.75 176.908 2166.84 174.346 2168.96 172.093L2169.23 171.828 2166.8 169.84 2166.58 170.105C2164.81 172.049 2162.73 174.036 2160.44 175.936 2157.43 176.068 2154.12 176.157 2150.59 176.245 2153.06 174.081 2155.22 171.784 2157.08 169.443 2157.87 169.354 2158.67 169.266 2159.55 169.133 2164.28 168.471 2168.61 167.543 2172.45 166.351L2172.94 166.218 2171.21 164.098 2170.99 164.186C2167.37 165.29 2163.35 166.13 2159.02 166.748 2154.34 167.411 2148.38 167.941 2141.27 168.382L2140.74 168.427 2141.97 170.812 2142.19 170.812C2145.86 170.635 2149.7 170.37 2153.55 169.973 2151.73 172.181 2149.61 174.346 2147.14 176.422L2143.83 176.422 2144.27 178.807 2144.53 178.807C2149.44 178.807 2153.68 178.674 2157.26 178.454 2157.17 178.542 2157.04 178.63 2156.95 178.719 2153.46 181.06 2150.06 183.092 2146.88 184.77 2144.62 184.858 2142.46 184.903 2140.47 184.903L2140.07 184.903 2140.52 187.465 2140.82 187.465C2146.21 187.332 2151.38 187.111 2156.2 186.846L2156.2 197.006C2156.2 197.757 2155.98 198.728 2154.12 198.728 2152.84 198.728 2151.51 198.507 2150.19 198.066L2149.7 197.889 2149.92 200.672 2150.14 200.716C2151.38 201.069 2152.71 201.246 2154.12 201.246 2157.92 201.246 2158.71 199.17 2158.71 197.447L2158.71 186.625C2162.42 186.36 2166.05 186.051 2169.49 185.654 2170.46 186.669 2171.57 187.862 2172.63 189.143Z" fill="#1B75BB" fill-rule="nonzero" fill-opacity="1" transform="matrix(1.00873 0 0 1 -1308.35 264.957)"/><path d="M2174.66 196.166C2171.57 193.207 2168.08 190.601 2164.24 188.436L2163.97 188.304 2162.47 190.071 2162.82 190.292C2166.36 192.456 2169.76 195.15 2172.98 198.287L2173.25 198.552 2174.88 196.387 2174.66 196.166Z" fill="#1B75BB" fill-rule="nonzero" fill-opacity="1" transform="matrix(1.00873 0 0 1 -1308.35 264.957)"/><path d="M2151.34 189.982 2149.88 187.862 2149.57 188.171C2146.39 191.705 2143.12 194.355 2139.94 196.122L2139.63 196.299 2140.87 198.64 2141.18 198.463C2144.84 196.343 2148.2 193.604 2151.16 190.247L2151.34 189.982Z" fill="#1B75BB" fill-rule="nonzero" fill-opacity="1" transform="matrix(1.00873 0 0 1 -1308.35 264.957)"/></g></g></g></g></g></svg>