<?xml version="1.0" encoding="utf-8"?>
<!-- Generator: Adobe Illustrator 28.3.0, SVG Export Plug-In . SVG Version: 6.00 Build 0)  -->
<svg version="1.1" id="Layer_1" xmlns="http://www.w3.org/2000/svg" xmlns:xlink="http://www.w3.org/1999/xlink" x="0px" y="0px"
	 viewBox="0 0 650 58" style="enable-background:new 0 0 650 58;" xml:space="preserve" width='650' height='58'>
<style type="text/css">
	.st0{fill-rule:evenodd;clip-rule:evenodd;fill:#004898;}
	.st1{fill:#1B75BB;}
	.st2{fill:none;}
	.st3{fill:#FAAF40;}
	.st4{fill:#6D6E70;}
</style>
<g>
	<g>
		<g>
			<path class="st0" d="M144.02,22.16c-3.15-0.6-5.47-1.95-6.29-2.62h3h3c0.22,0,0.07-0.3,0.07-0.3s-1.42-1.27-1.65-1.35
				c-0.3-0.15-0.37,0-0.37,0l-1.05,0.9l0,0h-3.9v-2.02c2.62-0.22,4.79-0.45,5.09-0.52c-1.5-0.97-1.12-0.9-2.4-1.72
				c-1.27,0.52-7.12,2.1-10.49,2.4v0.15c1.65,0.07,3.9-0.07,5.99-0.15v1.87h-6.97v0.67h4.94c-1.2,1.72-3.52,3.9-5.17,4.42v0.15
				c1.12-0.22,2.17-0.6,3.15-1.05v6.14h1.72V28.6h6.44v0.52h1.72v-5.84c0.9,0.45,1.65,0.67,1.72,0.52c0.15-0.6,0.07-1.27,1.12-1.57
				C143.94,22.23,143.94,22.38,144.02,22.16z M131.66,22.68c1.57-0.9,2.7-1.95,3.37-2.7v3.15h-2.32v-0.45H131.66z M139.15,27.93
				h-6.44v-1.65h6.44V27.93z M139.15,25.53h-6.44v-1.65h6.44V25.53z M139.15,22.68v0.45h-2.32v-3.6l0,0
				c0.67,1.42,1.95,2.55,3.07,3.3L139.15,22.68z"/>
			<path class="st0" d="M256,27.03c-0.15,0.52-0.97,0.3-1.35,0.37c-0.37,0-0.75-0.07-1.12,0c-0.07,0.07-0.07,0.07,0,0.15
				c0.67,0.15,1.35,0.22,1.87,0.67c0.22,0.22,0.15,0.67,0.22,0.97c0.67,0,1.2-0.07,1.72-0.22c0.22-0.22,0.45-0.22,0.45-0.9l0,0v-2.4
				h6.44l0,0c0.3,0,0.45,0,0.52,0c0.22,0,0.07-0.3,0.07-0.3s-1.42-1.27-1.65-1.35c-0.3-0.15-0.37,0-0.37,0l-1.05,0.9l0,0h-3.97v-0.6
				c1.2-0.3,3.52-1.12,3.52-1.12s-1.42-1.05-1.65-1.27c0,0-0.3,0.22-0.67,0.67h-6.82v0.75h6.14c-0.3,0.3-0.52,0.52-0.9,0.9h-1.35V25
				h-6.52v0.67h6.52v1.35H256z"/>
			<path class="st0" d="M258.93,18.34c0,0-1.2-0.52-1.35-0.6c-0.22-0.07-0.15,0-0.15,0.07c-0.07,0.22-0.3,0.45-0.45,0.67
				c-0.37-0.15-0.75-0.3-1.27-0.3c0,0-0.07,0.07,0,0.07c0,0,0.37,0.3,0.75,0.82c-0.82,0.75-1.8,1.35-1.8,1.35
				c-0.37,0.37,1.05-0.15,2.32-0.75c0.22,0.3,0.45,0.6,0.67,0.9c0.45,0.37,1.05-0.52,0.67-1.05c-0.07-0.07-0.15-0.22-0.37-0.37
				c0.22-0.15,0.37-0.3,0.52-0.37L258.93,18.34z"/>
			<path class="st0" d="M250.61,22.98c0.07-0.22,0.22-0.6,0.15-1.35h11.91c-0.3,0.52-0.6,1.2-1.05,1.95
				c-0.22,0.37,3.22-2.1,3.22-2.1s-1.27-0.97-1.57-1.12c0,0-0.15,0.22-0.3,0.52h-0.15v-5.99l-1.72-0.22v0.75h-2.25v0.52h2.25v1.35
				h-2.25v0.52h2.25v1.35h-2.25v0.52h2.25v1.12h-8.76v-1.12h0.9l0,0h1.8c0.15,0,0-0.15,0-0.15s-0.82-0.75-0.97-0.82
				c-0.15-0.07-0.22,0-0.22,0l-0.52,0.37h-0.97v-1.35h0.9h0.82h0.9c0.15,0,0-0.15,0-0.15s-0.82-0.75-0.97-0.82
				c-0.15-0.07-0.22,0-0.22,0l-0.52,0.45h-0.97v-1.2c0.67-0.07,1.87-0.22,2.4-0.45l0.45,0.07c0.15,0.07,0.15-0.22,0.15-0.22
				s-1.35-0.75-1.5-0.9c-0.15-0.15-0.3,0.15-0.3,0.15l-1.27,0.97v-0.97h-1.72v6.07h-0.15c-0.07-0.3-0.22-0.6-0.37-0.97
				c-0.07,0-0.07,0-0.07,0s-0.22,1.27-1.12,3C248.81,23.66,250.24,23.73,250.61,22.98z"/>
			<path class="st0" d="M255.03,17.36c-0.37,0.37,0.75-0.07,1.8-0.67c0.15,0.22,0.3,0.52,0.45,0.75c0.37,0.45,1.05-0.37,0.75-1.05
				c-0.07-0.07-0.15-0.22-0.3-0.3c0.22-0.15,0.45-0.3,0.52-0.45l0.45-0.37c0,0-1.12-0.52-1.27-0.52c-0.22-0.07-0.15,0-0.15,0.07
				c-0.15,0.22-0.3,0.45-0.45,0.75c-0.3-0.15-0.67-0.3-1.2-0.37c0,0-0.07,0.07,0,0.07c0,0,0.3,0.37,0.75,0.9
				C255.78,16.84,255.03,17.36,255.03,17.36z"/>
			<path class="st0" d="M166.79,28.45c0.75-1.5-0.75,0-0.37-3.67c-0.07-0.15-0.15-0.07-0.15,0c0,0-0.6,1.65-1.35,2.62
				c-0.22,0-2.62,0-3.52,0c-0.6,0-1.5,0.07-1.42-0.6v-1.2h3v0.52h1.72v-3c0.82,0.75,1.5,0.97,1.8,1.12c0.52,0.15,0.45,0,0.6-0.22
				c0.15-0.67,0.22-1.12,0.97-1.35c0,0,0-0.07,0-0.15c-1.8-0.37-2.85-0.52-4.12-1.95h0.97h3c0.22,0,0.07-0.3,0.07-0.3
				s-1.42-1.27-1.65-1.35c-0.3-0.15-0.37,0-0.37,0l-1.05,0.9h-0.37v-2.4c0.3,0,2.7,0,3,0c0.22,0,0.07-0.3,0.07-0.3
				s-1.42-1.27-1.65-1.35c-0.3-0.15-0.37,0-0.37,0l-0.97,0.82v-1.8l-1.72-0.22v2.1h-2.32v-2.1h-1.72v2.1h-2.25
				c0-0.15-0.07-0.3-0.15-0.45c-0.15-0.15-1.05-1.2-3.45-1.35c0,0.07-0.07,0.07,0,0.07c0,0,1.05,0.75,2.32,2.62
				c0.37,0.52,0.82,0.22,1.05-0.22h0.6c-0.67,2.32-1.57,4.34-2.77,6.52c-0.07,0.15-0.6,0.75-1.27,0.75l-0.6,0.07
				c-0.07,0-0.15,0.07-0.07,0.22c0.37,0.15,0.22-0.07,0.52,0.07c1.57,0.3,1.05,2.92,1.2,3.9c-0.07,0.6,1.8,0.37,2.02-1.12
				c-0.07-1.2-0.45-1.72-0.9-2.47c0-0.07,0.07-0.22,0.07-0.3c0,0,0.07,0,0.15,0c1.2-0.22,2.25-0.82,3.15-1.57v3.67l0,0v0.3l0,0v0.07
				c0.15,0.9,0.9,1.27,1.42,1.27c1.72,0,3.67,0,5.17,0C166.04,28.9,166.56,28.82,166.79,28.45z M160.42,17.59h2.32v2.4h-2.32V17.59z
				 M160.05,21.71c0.3-0.37,0.52-0.75,0.67-1.05h2.32c0.22,0.52,0.45,0.9,0.67,1.27l-0.75-0.07v0.6h-3v-0.75H160.05z M160.05,23.21
				h3v1.72h-3V23.21z M155.18,24.93L155.18,24.93c0.22-0.97,0.67-2.62,1.12-4.19h2.1C158.1,21.71,157.13,23.96,155.18,24.93z
				 M158.7,19.99h-2.17c0.3-0.97,0.52-1.87,0.67-2.4h1.5V19.99z"/>
			<path class="st0" d="M154.2,21.26c0.6,0.6,1.42-0.67,0.97-1.5c-0.22-0.3-0.82-1.12-3-1.35c0,0.07-0.07,0.07,0,0.07
				C152.18,18.56,153.16,19.54,154.2,21.26z"/>
			<polygon class="st0" points="205.29,25.08 205.29,26.13 211.51,26.13 211.51,26.88 205.29,26.88 205.29,27.93 211.51,27.93 
				211.51,28.67 205.29,28.67 205.29,29.2 203.57,29.2 203.57,24.03 205.29,24.03 205.29,24.41 211.51,24.41 211.51,25.08 			"/>
			<path class="st0" d="M209.26,15.42c0.37-0.3,0.6-0.52,0.45-0.52c-0.82-0.15-1.8-0.3-2.92-0.52l-0.07,0.07
				c-0.6,1.05-2.47,2.92-4.27,4.12l0,0l0,0c-0.82,0.6-1.65,1.05-2.32,1.27c0,0.22,1.05,0.07,2.32-0.37v4.19h1.72v-4.87
				c0.15-0.07,0.3-0.15,0.45-0.22h5.02l0,0h2.17c0.15,0.15,0.37,0.22,0.52,0.37v0.6h-8.16v0.75h3.37v2.32h-0.9
				c0.22-0.22,0.37-0.75,0.07-1.12c-0.22-0.22-0.67-0.75-2.25-0.75v0.07c0,0,0.75,0.6,1.65,1.72h-1.95v0.75h8.16v0.37h1.72v-3.9
				c0.15,0.07,0.22,0.07,0.37,0.07c0.52,0.07,0.67,0.22,0.82-0.15c0-0.52,0.15-0.75,0.52-1.2c0.15-0.15,0.6-0.45,0.67-0.67v-0.07
				C214.28,17.36,212.63,17.81,209.26,15.42z M209.71,17.81L209.71,17.81l-3.97,0.07c0.82-0.52,2.25-1.5,3.15-2.17
				c0.3,0.45,0.82,0.97,1.5,1.57L209.71,17.81z M212.41,22.53h-2.85c0.67-0.3,2.47-1.42,2.47-1.42s-1.35-0.52-1.57-0.67
				c0,0-0.37,0.75-1.2,2.1h-0.3v-2.32h3.37v2.32H212.41z"/>
			<polygon class="st0" points="213.31,29.2 213.31,24.11 211.51,23.88 211.58,29.2 			"/>
			<path class="st0" d="M233.76,19.76h3.45c0,0,2.77,0,3,0c0.22,0,0.07-0.3,0.07-0.3s-1.42-1.27-1.65-1.35c-0.3-0.15-0.37,0-0.37,0
				l-1.05,0.82l0,0h-3.97v-4.27h-1.95v4.34h-6.22v0.75h6.22c-0.15,2.17-0.82,7.27-6.67,9.29c0.07,0.07,0.15,0.07,0.3,0.07
				c7.57-0.9,8.31-7.49,8.31-9.29c1.65,7.57,4.79,9.44,5.99,9.29c0.22,0-0.22-1.35,1.57-1.72v-0.15
				C239.37,26.88,235.4,24.85,233.76,19.76z"/>
			<path class="st0" d="M179.3,17.81c0.6,0.82,1.57-0.6,1.12-1.42c-0.15-0.15-1.05-1.2-3.45-1.35c0,0.07-0.07,0.07,0,0.07
				C176.98,15.19,178.03,15.94,179.3,17.81z"/>
			<path class="st0" d="M179.97,27.93c-0.07-1.2-0.45-1.72-0.9-2.47c0.07-0.45,0.3-1.27,0.6-2.25c0.15,0.37,0.97,0.52,1.42,0.22h1.5
				c0.45,1.42,1.2,2.47,2.02,3.3c-1.2,0.9-2.62,1.65-4.42,2.1c0,0,0,0.15,0,0.07c2.1-0.07,3.82-0.67,5.32-1.42
				c2.32,1.72,5.02,1.8,5.02,1.57c0.07-1.2,0.82-1.5,1.35-1.8c0.07-0.15-0.07-0.15-0.3-0.15c-1.42,0.07-3-0.15-4.42-0.6
				c1.35-0.97,2.32-2.02,3-2.85l0.3-0.45c0,0-0.3-0.22-0.67-0.45c0.97-0.6,2.32-1.5,2.32-1.5s-1.42-0.9-1.72-1.12
				c0,0-0.15,0.22-0.37,0.67h-8.24c0-0.22-0.07-0.45-0.15-0.67c-0.07,0-0.07,0-0.07,0s-0.45,1.12-1.57,2.55
				c0.6-2.1,1.35-4.64,1.5-5.54c0,0,0.07-0.97-0.3,0.22c-0.67,2.32-1.57,4.42-2.85,6.67c-0.07,0.15-0.6,0.75-1.27,0.75l-0.6,0.07
				c-0.07,0-0.15,0.07-0.07,0.22c0.37,0.15,0.22-0.07,0.52,0.07c1.57,0.3,1.05,2.92,1.2,3.9C177.95,29.57,179.82,29.35,179.97,27.93
				z M185.59,25.83c-0.97-0.6-1.87-1.35-2.55-2.4h4.57C187.09,24.26,186.42,25.08,185.59,25.83z M181.77,21.63h7.87
				c-0.15,0.22-0.3,0.52-0.45,0.82c-0.22-0.15-0.45-0.3-0.67-0.37c0,0-0.22,0.37-0.45,0.67h-6.52
				C181.7,22.46,181.77,22.08,181.77,21.63z"/>
			<path class="st0" d="M178.25,21.26c0.6,0.6,1.42-0.67,0.97-1.5c-0.22-0.3-0.82-1.12-3-1.35c0,0.07-0.07,0.07,0,0.07
				C176.23,18.56,177.28,19.54,178.25,21.26z"/>
			<path class="st0" d="M187.76,20.14h1.72v-2.25h0.45l0,0h2.02c0.22,0,0-0.22,0-0.22s-1.2-0.97-1.35-1.12c-0.22-0.07-0.3,0-0.3,0
				l-0.75,0.6h-0.15v-2.25l-1.72-0.22v0.75h-5.99v0.67h5.99v1.12h-5.62v0.67h5.62v1.12h-5.99v0.67h5.99v0.45H187.76z"/>
			<path class="st0" d="M132.93,36.91h-0.3v0.07c0.3,0.15,0.3,0.82,0.3,0.82v3.22h-3.37v-3.22c0,0,0-0.67,0.3-0.82v-0.07h-1.87v0.07
				c0.3,0.15,0.3,0.82,0.3,0.82v7.79c0,0,0,0.67-0.3,0.82v0.07h1.87v-0.07c-0.3-0.15-0.3-0.82-0.3-0.82v-3.52h3.37v3.6
				c0,0.15,0,0.67-0.3,0.75v0.07h1.87v-0.07c-0.3-0.15-0.3-0.82-0.3-0.82l0,0v-7.79c0,0,0-0.67,0.3-0.82v-0.07h-0.3L132.93,36.91z"
				/>
			<path class="st0" d="M156.75,41.33c0.3,0.15,0.3,0.82,0.3,0.82l0,0v3.07c-0.22,0.15-0.82,0.45-1.72,0.45
				c-1.12,0-1.72-0.52-1.72-2.62v-3.22c0-2.02,1.42-2.1,1.8-2.1c0.75-0.07,1.95,0.22,2.4,0.82l0,0v-1.5
				c-0.52-0.15-1.42-0.37-2.4-0.3c-2.02,0-3,1.2-3,3.15v3.15c0,2.62,0.97,3.67,3,3.67c1.2,0,2.17-0.3,2.92-0.75v-4.64H156.75
				L156.75,41.33z"/>
			<path class="st0" d="M150.46,36.91h-1.05l0,0h-0.3v0.07c0.22,0.07,0.3,0.6,0.3,0.75V45l-3.75-8.02h-1.72l0,0h-0.52v0.07
				c0.37,0.3,0.45,0.6,0.52,1.05v7.72c0,0.22-0.07,0.6-0.3,0.67v0.07h0.3h1.05h0.3V46.5c-0.22-0.07-0.3-0.52-0.3-0.67v-7.64l0,0
				c0,0,1.5,3.37,3.07,6.67c0.9,1.8,2.32,1.72,2.32,1.72v-8.99c0-0.22,0.07-0.6,0.3-0.67v-0.07L150.46,36.91L150.46,36.91z"/>
			<path class="st0" d="M139.07,36.69c-2.02,0-3,1.2-3,3.15v3.15c0,2.62,0.97,3.67,3,3.67s3-1.05,3-3.67v-3.15
				C142.07,37.96,141.1,36.69,139.07,36.69z M140.87,42.98c0,2.1-0.6,2.62-1.72,2.62c-1.12,0-1.72-0.52-1.72-2.62v-3.22
				c0-2.02,1.35-2.02,1.72-2.02c0.37,0,1.72,0.07,1.72,2.02V42.98z"/>
			<path class="st0" d="M184.69,36.91c0.22,0.07,0.3,0.6,0.3,0.75v7.27l-3.75-8.02h-0.75l0,0h-1.42v0.07
				c0.37,0.3,0.45,0.6,0.52,1.05v7.72c0,0.22-0.07,0.6-0.3,0.67v0.07h0.3h1.05h0.3v-0.07c-0.22-0.07-0.3-0.52-0.3-0.67v-7.57l0,0
				c0,0,1.5,3.37,3.07,6.67c0.9,1.8,2.32,1.72,2.32,1.72v-8.99c0-0.22,0.07-0.6,0.3-0.67v-0.07L184.69,36.91L184.69,36.91z"/>
			<path class="st0" d="M170.31,45.53l-2.92-4.27l3.45-4.27h-0.3l0,0h-1.65v0.07c0.52,0.3-0.3,0.97-0.82,1.65l0,0l-1.95,2.47h-0.07
				v-3.45c0-0.15,0.07-0.6,0.3-0.75v-0.07h-1.87v0.07c0.3,0.15,0.3,0.67,0.3,0.75v7.87l0,0c0,0,0,0.67-0.3,0.82v0.07h0.3l0,0h1.2
				l0,0h0.3v-0.07c-0.3-0.15-0.3-0.82-0.3-0.82v-4.12h0.07l3,4.49c0.22,0.45,0.45,0.45,1.27,0.45h0.9v-0.07
				C170.91,46.13,170.61,45.83,170.31,45.53z"/>
			<path class="st0" d="M192.41,41.33c0.3,0.15,0.3,0.82,0.3,0.82l0,0v3.07c-0.22,0.15-0.82,0.45-1.72,0.45
				c-1.12,0-1.72-0.52-1.72-2.62v-3.22c0-2.02,1.42-2.1,1.8-2.1c0.75-0.07,1.95,0.22,2.4,0.82l0,0v-1.5
				c-0.52-0.15-1.42-0.37-2.4-0.3c-2.02,0-3,1.2-3,3.15v3.15c0,2.62,0.97,3.67,3,3.67c1.2,0,2.17-0.3,2.92-0.75v-4.64H192.41
				L192.41,41.33z"/>
			<path class="st0" d="M174.73,36.76c-2.02,0-3,1.2-3,3.15v3.15c0,2.62,0.97,3.67,3,3.67s3-1.05,3-3.67v-3.15
				C177.73,37.96,176.75,36.69,174.73,36.76z M174.73,45.6c-1.12,0-1.72-0.52-1.72-2.62v-3.22c0-2.02,1.35-2.02,1.72-2.02
				c0.37,0,1.72,0.07,1.72,2.02v3.22C176.45,45.08,175.85,45.6,174.73,45.6z"/>
			<path class="st0" d="M232.71,36.91h-1.2l0,0h-0.3v0.07c0.3,0.15,0.3,0.82,0.3,0.82l0,0v7.87l0,0c0,0,0,0.67-0.3,0.82v0.07h1.87
				V46.5c-0.22-0.07-0.3-0.52-0.3-0.67v-8.16c0-0.22,0.07-0.6,0.3-0.67v-0.07H232.71L232.71,36.91z"/>
			<path class="st0" d="M247.09,36.91h-5.32l0,0c-0.15,0-0.22,0-0.37-0.07l0,0l-0.37,1.57l0,0c0.3-0.37,0.6-0.37,0.97-0.45h1.65
				v7.64l0,0c0,0,0,0.67-0.3,0.82v0.07h1.87v-0.07c-0.22-0.07-0.3-0.52-0.3-0.75v-7.72h1.8c0.22,0,0.45,0.07,0.52,0.45l0,0l0.3-1.57
				l0,0C247.39,36.91,247.24,36.91,247.09,36.91z"/>
			<path class="st0" d="M235.63,39.16c0-1.05,0.75-1.42,1.5-1.42c0.15,0,0.37,0,0.37,0l0,0c0.52,0,1.65,0.22,2.02,0.75l-0.07-1.5
				c-0.45-0.15-1.5-0.3-2.02-0.3v0.15v-0.15c-0.07,0-0.22,0-0.3,0c-1.57,0-2.77,0.9-2.77,2.62c0,2.85,4.42,2.62,4.42,4.72
				c0,1.05-0.75,1.5-1.65,1.5h-0.6c-0.75,0-1.57-0.3-2.17-0.9l0.3,1.65c0.52,0.22,1.65,0.37,2.32,0.37c1.5,0.07,3.07-0.67,3.07-2.62
				C240.12,40.96,235.63,41.26,235.63,39.16z"/>
			<path class="st0" d="M229.64,36.91h-5.47l0,0h-0.07c-0.15,0-0.22,0-0.37-0.07l0,0l-0.37,1.57l0,0c0.3-0.37,0.67-0.37,1.12-0.37
				l0,0h1.5v7.72c0,0.15-0.07,0.67-0.3,0.75v0.07h1.87V46.5c-0.3-0.15-0.3-0.6-0.3-0.75v-7.79h1.57l0,0c0.3,0,0.67,0,0.82,0.45l0,0
				l0.3-1.57l0,0C229.79,36.91,229.71,36.91,229.64,36.91z"/>
			<path class="st0" d="M204.62,41.48L204.62,41.48c1.2-0.37,1.65-1.12,1.65-2.32c0-0.15-0.07-0.75-0.37-1.27
				c-0.37-0.52-0.82-0.97-2.1-0.97h-3.07l0,0h-0.3v0.07c0.22,0.07,0.3,0.52,0.3,0.75v8.02c0,0.15-0.07,0.6-0.3,0.75v0.07h1.87l0,0
				h1.5c1.05,0,2.85-0.22,2.85-2.7C206.57,42.46,206.04,41.63,204.62,41.48z M201.92,37.96h1.72c1.05,0,1.5,0.67,1.5,1.42
				c0,0.9-0.45,1.5-1.42,1.5h-1.8V37.96z M203.57,45.38h-1.72v-3.37h1.27c1.27,0,2.17,0.3,2.17,1.8
				C205.37,44.48,204.92,45.38,203.57,45.38z"/>
			<path class="st0" d="M219.82,36.91h-2.85l0,0h-0.45v0.07c0.37,0.22,0.45,0.75,0.45,1.27v0.45v0.07l0,0v6.89
				c0,0.15-0.07,0.6-0.3,0.75v0.07h1.87v-0.07c-0.3-0.15-0.3-0.82-0.3-0.82v-3.37h1.57c0.97,0,2.7-0.45,2.7-2.62
				C222.52,37.36,221.1,36.91,219.82,36.91z M219.6,41.18h-1.35v-3.22h1.65c0.3,0,1.35,0.15,1.35,1.57
				C221.25,41.03,220.05,41.18,219.6,41.18z"/>
			<path class="st0" d="M214.66,44.56L214.66,44.56l-2.47-7.64h-1.57l0,0h-0.45v0.07c0.3,0.15,0.3,0.37,0.22,0.67l-0.07,0.3
				c0,0.07-0.07,0.22-0.07,0.3l0,0l-2.32,7.19c-0.15,0.37-0.37,0.75-0.67,0.97v0.07h2.1v-0.07c-0.3-0.15-0.37-0.3-0.3-0.52
				l0.75-2.55h3.22l0.75,2.47c0.07,0.3,0,0.37-0.3,0.6v0.07h2.17v-0.07c-0.3-0.22-0.52-0.6-0.67-0.97L214.66,44.56z M210.09,42.31
				l1.27-4.27l0,0l1.27,4.27H210.09z"/>
			<path class="st0" d="M271.59,36.91h-1.2l0,0h-0.3v0.07c0.22,0.07,0.3,0.45,0.3,0.67v8.16c0,0.22-0.07,0.52-0.3,0.67v0.07h1.87
				V46.5c-0.22-0.07-0.3-0.52-0.3-0.67v-8.09c0-0.15,0.07-0.67,0.3-0.75v-0.07H271.59L271.59,36.91z"/>
			<path class="st0" d="M278.78,36.91L278.78,36.91c0.15,0.07,0.15,0.22,0.15,0.3l-2.17,7.94l0,0l-2.17-8.24h-1.35l0,0h-0.22v0.07
				c0.22,0.22,0.37,0.52,0.45,0.82l0.22,0.67c0,0.15,0.07,0.22,0.07,0.37l0,0l1.57,5.47c0.52,1.72,1.05,2.1,1.95,2.32l0.67-2.32
				l2.17-7.34h-1.05L278.78,36.91z"/>
			<path class="st0" d="M285.59,45.38h-0.15h-0.07l0,0h-2.32v-3.3h3c0.15,0,0.37,0.07,0.45,0.3l0,0v-1.42l0,0
				c-0.15,0.07-0.3,0.07-0.45,0.07h-0.52l0,0h-2.47v-3.07h3.15c0.15,0,0.3,0.07,0.52,0.37l0,0v-1.5l0,0
				c-0.07,0.07-0.15,0.07-0.22,0.07h-0.22l0,0h-4.42l0,0h-0.3v0.07c0.22,0.07,0.3,0.52,0.3,0.67v8.09c0,0.22-0.07,0.6-0.3,0.67v0.07
				h1.87l0,0h3.07l0,0h0.22l0.45-1.72l0,0C286.57,45.23,286.12,45.38,285.59,45.38z"/>
			<path class="st0" d="M304.32,36.91h-1.2l0,0h-0.3v0.07c0.22,0.07,0.3,0.45,0.3,0.67v8.16c0,0.22-0.07,0.52-0.3,0.67v0.07h1.87
				V46.5c-0.22-0.07-0.3-0.52-0.3-0.67v-8.16c0-0.22,0.07-0.6,0.3-0.67v-0.07H304.32L304.32,36.91z"/>
			<path class="st0" d="M318.93,36.91L318.93,36.91h-0.67v0.07c0.45,0.3,0.37,0.75,0.22,1.05l-1.5,3.52l-1.5-3.6l-0.3-0.67
				c-0.15-0.3-0.6-0.3-0.9-0.3h-0.9c0.45,0.3,0.52,0.6,0.82,1.12l2.1,4.72v2.92c0,0.22-0.07,0.6-0.3,0.67v0.07h0.3l0,0h1.2l0,0h0.3
				v-0.07c-0.22-0.07-0.3-0.45-0.3-0.67v-2.92l2.02-4.64l0,0l0.52-1.2h-1.12V36.91z"/>
			<path class="st0" d="M312.11,36.91h-5.39h-0.15c-0.15,0-0.22-0.07-0.37-0.07l0,0l-0.37,1.57l0,0c0.3-0.37,0.67-0.37,1.12-0.37
				l0,0h1.5v7.64l0,0c0,0,0,0.67-0.3,0.82v0.07h1.87V46.5c-0.22-0.07-0.3-0.52-0.3-0.67v-7.87h1.57l0,0c0.3,0,0.67-0.07,0.82,0.45
				l0,0l0.07-0.45l0,0v-0.07l0.22-1.05l0,0C312.34,36.91,312.26,36.91,312.11,36.91z"/>
			<path class="st0" d="M297.05,39.24c0-1.05,0.75-1.42,1.5-1.42c0.15,0,0.37,0,0.37,0l0,0c0.52,0,1.65,0.22,2.02,0.75l-0.07-1.5
				c-0.45-0.15-1.5-0.3-2.02-0.3v0.15v-0.15c-0.07,0-0.22,0-0.3,0c-1.57,0-2.77,0.9-2.77,2.62c0,2.85,4.42,2.62,4.42,4.72
				c0,1.05-0.75,1.5-1.65,1.5h-0.6c-0.75,0-1.57-0.3-2.17-0.9l0.3,1.65c0.6,0.22,1.87,0.37,2.47,0.37l0,0
				c1.5-0.07,2.85-0.75,2.85-2.62C301.47,41.03,297.05,41.33,297.05,39.24z"/>
			<path class="st0" d="M268.14,36.91h-1.05l0,0h-0.3v0.07c0.22,0.07,0.3,0.6,0.3,0.75V45l-3.75-8.02h-1.72l0,0h-0.52v0.07
				c0.37,0.3,0.45,0.6,0.52,1.05v7.72c0,0.22-0.07,0.6-0.3,0.67v0.07h0.3h1.05h0.3V46.5c-0.22-0.07-0.3-0.45-0.3-0.67v-7.64l0,0
				c0,0,1.5,3.37,3.07,6.67c0.9,1.8,2.32,1.72,2.32,1.72v-8.99c0-0.22,0.07-0.6,0.3-0.67v-0.07L268.14,36.91L268.14,36.91z"/>
			<path class="st0" d="M259.38,36.91h-1.2l0,0h-0.3v0.07c0.22,0.07,0.3,0.45,0.3,0.67v5.39c0,2.1-0.6,2.62-1.8,2.62
				c-1.12,0-1.8-0.52-1.8-2.62v-5.32c0-0.22,0.07-0.6,0.3-0.75v-0.07h-0.3l0,0h-1.2l0,0h-0.3v0.07c0.3,0.15,0.3,0.82,0.3,0.82l0,0
				v5.17c0,2.62,0.97,3.67,3,3.67c2.02,0,3-1.05,3-3.67v-5.17l0,0c0,0,0-0.67,0.3-0.82v-0.07H259.38L259.38,36.91z"/>
			<path class="st0" d="M293.98,45.38l-1.8-3.3c1.27-0.3,1.95-1.5,1.95-2.55c0-1.2-0.82-2.55-2.55-2.55h-1.42l0,0h-1.27h-0.22h-0.3
				v0.07c0.3,0.15,0.3,0.6,0.3,0.75v7.87l0,0c0,0,0,0.67-0.3,0.82v0.07h1.87V46.5c-0.3-0.15-0.3-0.82-0.3-0.82l0,0v-3.52h0.97
				l2.02,3.82c0.22,0.52,0.75,0.52,1.27,0.52h0.9v-0.07C294.51,46.05,294.28,45.9,293.98,45.38z M289.86,41.03v-3h1.5
				c1.12,0,1.57,0.82,1.57,1.5c0,0.75-0.45,1.5-1.57,1.5H289.86z"/>
		</g>
		<g>
			<path class="st0" d="M102.89,42.83c0,0-6.89-2.62-15.51-1.35V17.51c6.52-1.95,12.14,0.67,12.14,0.67v-4.19
				c0,0-7.79-3.37-16.55,0.97v4.57v27.12c9.59-3.45,18.88,0.37,18.88,0.37c13.26,5.17,20.45,2.47,20.45,2.47v-6.14
				C122.37,43.36,116.3,47.18,102.89,42.83z"/>
			<path class="st0" d="M117.95,41.41V9.57c0,0-8.99-4.05-18.43,0.07v4.34c5.02-2.62,10.41-2.25,14.08-1.5v23.52
				c-3.15-0.52-7.72-0.75-12.21,0.67V16.91c0.82-0.3,1.95-0.67,3-1.05c0.67-0.22,2.77-0.75,2.85,1.42c0,1.05,0,1.57,0,3
				c0,0.37-0.15,0.67-0.52,0.82c-0.3,0.15-1.27,0.3-1.27,0.3v1.87c0,0,0.07,0,0.97-0.15c0.6-0.07,0.75,0.3,0.75,0.9
				c0,1.35,0,4.05,0,4.05s0,0.52-0.3,0.9c-0.3,0.37-1.5,0.37-1.5,0.37v1.8c0,0,1.42-0.07,2.1-0.37c0.22-0.07,1.05-0.45,1.27-1.12
				c0.3-0.9,0.3-4.64,0.15-6.37c-0.07-1.12-1.12-1.35-1.12-1.35s1.12-0.52,1.12-1.72v-3.75c0-2.55-2.4-3.37-4.64-2.7
				c-2.32,0.52-4.87,1.65-4.87,1.65v26.29C107.61,36.99,117.95,41.41,117.95,41.41z"/>
			<path class="st0" d="M102.89,17.74v15.21v1.8c0,0,0.52-0.15,1.5-0.3c1.57-0.3,4.49-0.52,7.72-0.15v-1.5l0,0V13.77
				c0,0-0.97-0.3-1.87-0.22v18.88c-2.32-0.07-4.19,0.07-5.54,0.22V17.14C104.77,17.14,103.72,17.29,102.89,17.74z"/>
		</g>
	</g>
	<g>
		<g>
			<g>
				<rect x="404.6" y="14.52" class="st1" width="2.16" height="2.16"/>
			</g>
			<g>
				<rect x="407.45" y="11.26" class="st1" width="2.94" height="2.94"/>
			</g>
			<g>
				<g>
					<path class="st2" d="M368.98,17.72c-1.13,0.73-1.69,1.63-1.69,2.71v17.21c0,1.04,0.56,1.93,1.69,2.68
						c1.12,0.75,2.92,1.12,5.4,1.12h7l13.36-0.13c-0.01,0-0.01,0-0.01,0l0.09,0l0.06,0h0.04c0.01,0,0.01,0,0.02,0l10.95,0.07
						c2.86,0,4.88-0.37,6.07-1.1c1.19-0.73,1.78-1.63,1.78-2.71v-2.44c0-1.04-0.59-1.93-1.78-2.68c-1.19-0.75-3.21-1.12-6.07-1.12
						h-11.51c-9.62,0-14.43-3.02-14.43-9.07v-1.9c0-1.4,0.21-2.65,0.67-3.75l-6.25,0.01C371.91,16.62,370.11,16.99,368.98,17.72z"/>
				</g>
				<g>
					<path class="st1" d="M394.88,41.3l-0.06,0l0.12,0c-0.01,0-0.01,0-0.02,0H394.88z"/>
				</g>
				<g>
					<path class="st1" d="M394.88,46.74h0.04c0.01,0,0.02,0,0.03,0l-0.19,0L394.88,46.74z"/>
				</g>
				<g>
					<path class="st1" d="M396.45,45.2v-2.51c0,0-0.19-1.32-1.71-1.39l-13.36,0.13h-7c-2.47,0-4.27-0.37-5.4-1.12
						c-1.13-0.75-1.69-1.64-1.69-2.68V20.42c0-1.07,0.56-1.97,1.69-2.71c1.12-0.73,2.92-1.1,5.4-1.1l6.25-0.01
						c1.37-3.28,4.94-5.13,11.64-5.34l-18.06,0.08c-8.32,0-12.48,3.02-12.48,9.07v17.21c0,6.05,4.16,9.07,12.48,9.07h7.17
						l13.35,0.04C395.55,46.74,396.46,45.81,396.45,45.2z"/>
				</g>
				<g>
					<path class="st3" d="M405.75,26.06h-11.51c-2.86,0-4.88-0.37-6.07-1.12c-1.19-0.75-1.78-1.64-1.78-2.68v-1.9
						c0-1.07,0.59-1.97,1.78-2.71c1.19-0.73,1.99-0.98,6-0.98h5.07c0.78,0,1.31-0.34,1.55-0.78c0.24-0.44,0.37-1.1,0.37-1.97
						c0-0.88-0.12-1.54-0.37-1.97c-0.24-0.44-0.76-0.68-1.54-0.68h-4.81c-0.76-0.01-1.49-0.01-2.18,0.01
						c-6.71,0.2-10.28,2.06-11.64,5.34c-0.45,1.09-0.67,2.34-0.67,3.75v1.9c0,6.05,4.81,9.07,14.43,9.07h11.51
						c2.86,0,4.88,0.37,6.07,1.12c1.19,0.75,1.78,1.64,1.78,2.68v2.44c0,1.07-0.59,1.97-1.78,2.71c-1.19,0.73-3.21,1.1-6.07,1.1
						l-10.95-0.07l-0.12,0l-0.09,0c0.01,0,0.01,0,0.01,0c1.52,0.07,1.71,1.39,1.71,1.39v2.51c0.01,0.62-0.9,1.54-1.72,1.55
						c0,0,0,0-0.01,0l0.03,0l0.19,0l10.71-0.13c9.71,0.02,14.52-3,14.52-9.05v-2.44C420.18,29.08,415.37,26.06,405.75,26.06z"/>
				</g>
			</g>
		</g>
		<g>
			<g>
				<path class="st1" d="M435.13,32.35c-0.71,0.15-1.45,0.23-2.22,0.23c-2.22,0-3.33-0.72-3.33-2.15v-3.76
					c0-1.51,1.11-2.27,3.33-2.27c0.74,0,1.46,0.08,2.17,0.23v0.88c-0.78-0.2-1.5-0.29-2.15-0.29c-0.31,0-0.58,0.02-0.82,0.05
					c-0.24,0.04-0.47,0.1-0.7,0.19c-0.23,0.09-0.4,0.24-0.52,0.44c-0.12,0.2-0.18,0.45-0.18,0.75v3.71c0,0.91,0.76,1.37,2.27,1.37
					c0.65,0,1.37-0.1,2.15-0.29V32.35z"/>
			</g>
			<g>
				<path class="st1" d="M443.15,26.67v3.76c0,0.43-0.1,0.8-0.31,1.1c-0.21,0.3-0.49,0.52-0.85,0.66c-0.36,0.14-0.71,0.24-1.06,0.3
					c-0.35,0.06-0.73,0.09-1.13,0.09c-2.21,0-3.32-0.72-3.32-2.15v-3.75c0-1.51,1.11-2.27,3.32-2.27
					C442.04,24.41,443.15,25.17,443.15,26.67z M442.01,30.42v-3.77c0-0.98-0.73-1.46-2.2-1.46c-0.31,0-0.58,0.02-0.82,0.06
					c-0.24,0.04-0.46,0.11-0.68,0.21c-0.22,0.1-0.39,0.25-0.51,0.45c-0.12,0.2-0.18,0.45-0.18,0.75v3.77c0,0.91,0.74,1.37,2.21,1.37
					C441.28,31.78,442.01,31.33,442.01,30.42z"/>
			</g>
			<g>
				<path class="st1" d="M453.44,32.45h-1.04v-6.7h-0.06l-2.55,6.7h-1.06l-2.62-6.7h-0.06v6.7h-1.06v-7.92h1.77l2.54,6.59l0.04,0.01
					l2.4-6.6h1.71V32.45z"/>
			</g>
			<g>
				<path class="st1" d="M460.87,26.1v1.65c0,0.68-0.26,1.15-0.79,1.43c-0.52,0.28-1.27,0.42-2.23,0.42h-1.18v2.85h-1.18v-7.92h2.59
					c0.33,0,0.61,0.01,0.84,0.02c0.24,0.02,0.49,0.06,0.75,0.12c0.26,0.06,0.48,0.15,0.63,0.26c0.16,0.11,0.29,0.26,0.4,0.46
					C460.81,25.59,460.87,25.82,460.87,26.1z M459.71,27.68v-1.44c0-0.22-0.06-0.4-0.17-0.54c-0.11-0.14-0.28-0.24-0.49-0.3
					c-0.21-0.06-0.39-0.09-0.53-0.1c-0.14-0.01-0.32-0.02-0.53-0.02h-1.33v3.58h1.35c0.47,0,0.87-0.09,1.2-0.26
					C459.55,28.42,459.71,28.12,459.71,27.68z"/>
			</g>
			<g>
				<path class="st1" d="M468.63,24.54v5.89c0,1.43-1.03,2.15-3.1,2.15c-0.41,0-0.78-0.03-1.11-0.08c-0.33-0.05-0.65-0.15-0.96-0.29
					c-0.32-0.14-0.57-0.36-0.74-0.66c-0.18-0.3-0.27-0.67-0.27-1.11v-5.89h1.13v5.88c0,0.52,0.17,0.88,0.52,1.07
					c0.35,0.2,0.83,0.29,1.45,0.29c0.62,0,1.1-0.1,1.43-0.29c0.34-0.2,0.51-0.55,0.51-1.07v-5.88H468.63z"/>
			</g>
			<g>
				<path class="st1" d="M476.51,25.37h-2.67v7.09h-1.2v-7.09h-2.68v-0.83h6.55V25.37z"/>
			</g>
			<g>
				<path class="st1" d="M483.27,32.45h-5.44v-7.92h5.32v0.83h-4.14v2.59h3.73v0.83h-3.73v2.84h4.26V32.45z"/>
			</g>
			<g>
				<path class="st1" d="M490.95,32.45h-1.45l-2.27-3.38h-1.15v3.38h-1.18v-7.92h2.78c0.99,0,1.7,0.1,2.13,0.3
					c0.43,0.2,0.65,0.62,0.65,1.25v1.37c0,0.49-0.2,0.86-0.6,1.1c-0.4,0.25-0.88,0.37-1.45,0.37L490.95,32.45z M489.28,27.31v-1.1
					c0-0.59-0.51-0.89-1.54-0.89h-1.66v2.98h1.55c0.56,0,0.98-0.07,1.24-0.21C489.15,27.95,489.28,27.69,489.28,27.31z"/>
			</g>
			<g>
				<path class="st1" d="M500.42,29.77v0.57c0,0.85-0.24,1.43-0.72,1.75c-0.48,0.32-1.23,0.48-2.24,0.48c-0.65,0-1.46-0.07-2.42-0.2
					v-0.99c0.96,0.2,1.79,0.3,2.49,0.3c0.56,0,0.99-0.06,1.29-0.19c0.3-0.13,0.45-0.38,0.45-0.76v-1.03c0-0.33-0.1-0.57-0.29-0.71
					c-0.19-0.14-0.53-0.21-1.03-0.21h-0.93c-0.8,0-1.35-0.16-1.67-0.48c-0.31-0.32-0.47-0.79-0.47-1.42v-0.63
					c0-0.63,0.22-1.09,0.66-1.39c0.44-0.3,1.26-0.45,2.45-0.45c0.57,0,1.25,0.05,2.04,0.13v0.89c-0.9-0.14-1.61-0.21-2.12-0.21
					c-0.76,0-1.26,0.08-1.51,0.23c-0.25,0.15-0.37,0.4-0.37,0.76v0.9c0,0.28,0.1,0.48,0.29,0.6c0.19,0.13,0.54,0.19,1.04,0.19h0.95
					c0.82,0,1.38,0.15,1.67,0.45C500.28,28.66,500.42,29.13,500.42,29.77z"/>
			</g>
			<g>
				<path class="st1" d="M507.42,32.35c-0.71,0.15-1.45,0.23-2.22,0.23c-2.22,0-3.33-0.72-3.33-2.15v-3.76
					c0-1.51,1.11-2.27,3.33-2.27c0.74,0,1.46,0.08,2.17,0.23v0.88c-0.78-0.2-1.5-0.29-2.15-0.29c-0.31,0-0.58,0.02-0.82,0.05
					c-0.24,0.04-0.47,0.1-0.7,0.19c-0.23,0.09-0.4,0.24-0.52,0.44c-0.12,0.2-0.18,0.45-0.18,0.75v3.71c0,0.91,0.76,1.37,2.27,1.37
					c0.65,0,1.37-0.1,2.15-0.29V32.35z"/>
			</g>
			<g>
				<path class="st1" d="M510.18,32.45H509v-7.92h1.18V32.45z"/>
			</g>
			<g>
				<path class="st1" d="M517.67,32.45h-5.44v-7.92h5.32v0.83h-4.14v2.59h3.73v0.83h-3.73v2.84h4.26V32.45z"/>
			</g>
			<g>
				<path class="st1" d="M526.08,32.45h-1.43l-4.31-6.65v6.65h-1.04v-7.92h1.43l4.31,6.54v-6.54h1.04V32.45z"/>
			</g>
			<g>
				<path class="st1" d="M533.44,32.35c-0.71,0.15-1.45,0.23-2.22,0.23c-2.22,0-3.33-0.72-3.33-2.15v-3.76
					c0-1.51,1.11-2.27,3.33-2.27c0.74,0,1.46,0.08,2.17,0.23v0.88c-0.78-0.2-1.5-0.29-2.15-0.29c-0.31,0-0.58,0.02-0.82,0.05
					c-0.24,0.04-0.47,0.1-0.7,0.19c-0.23,0.09-0.4,0.24-0.52,0.44c-0.12,0.2-0.18,0.45-0.18,0.75v3.71c0,0.91,0.76,1.37,2.27,1.37
					c0.65,0,1.37-0.1,2.15-0.29V32.35z"/>
			</g>
			<g>
				<path class="st1" d="M540.45,32.45h-5.44v-7.92h5.32v0.83h-4.14v2.59h3.73v0.83h-3.73v2.84h4.26V32.45z"/>
			</g>
		</g>
		<g>
			<g>
				<path class="st4" d="M435.52,14.25v3c0,1.23-0.95,1.84-2.84,1.84h-2.71v-6.79h2.7C434.57,12.31,435.52,12.95,435.52,14.25z
					 M434.54,17.23v-2.99c0-0.26-0.05-0.47-0.16-0.64c-0.1-0.17-0.25-0.3-0.44-0.38c-0.19-0.08-0.39-0.14-0.59-0.17
					c-0.2-0.03-0.44-0.05-0.7-0.05h-1.67v5.4h1.62C433.9,18.4,434.54,18.01,434.54,17.23z"/>
			</g>
			<g>
				<path class="st4" d="M441.73,19.09h-4.66v-6.79h4.56v0.71h-3.55v2.22h3.2v0.71h-3.2v2.44h3.65V19.09z"/>
			</g>
			<g>
				<path class="st4" d="M447.74,13.64v1.41c0,0.58-0.22,0.99-0.67,1.23c-0.45,0.24-1.09,0.36-1.91,0.36h-1.01v2.45h-1.01v-6.79
					h2.22c0.28,0,0.52,0.01,0.72,0.02c0.2,0.01,0.42,0.05,0.64,0.1c0.23,0.05,0.41,0.13,0.54,0.22c0.14,0.09,0.25,0.22,0.35,0.39
					C447.69,13.21,447.74,13.41,447.74,13.64z M446.75,15v-1.23c0-0.19-0.05-0.34-0.15-0.47c-0.1-0.12-0.24-0.21-0.42-0.26
					c-0.18-0.05-0.33-0.08-0.45-0.09c-0.12-0.01-0.27-0.02-0.46-0.02h-1.14v3.06h1.16c0.4,0,0.75-0.07,1.03-0.22
					C446.61,15.63,446.75,15.37,446.75,15z"/>
			</g>
			<g>
				<path class="st4" d="M454.08,19.09h-1.06l-0.77-2.06h-2.91l-0.76,2.06h-1l2.7-6.79h1.17L454.08,19.09z M452,16.33l-1.15-3.06
					h-0.09l-1.15,3.06H452z"/>
			</g>
			<g>
				<path class="st4" d="M460.3,19.09h-1.24l-1.95-2.9h-0.98v2.9h-1.01v-6.79h2.38c0.85,0,1.46,0.09,1.83,0.26
					c0.37,0.17,0.55,0.53,0.55,1.07v1.17c0,0.42-0.17,0.73-0.51,0.95c-0.34,0.21-0.76,0.32-1.24,0.32L460.3,19.09z M458.87,14.68
					v-0.94c0-0.51-0.44-0.76-1.32-0.76h-1.42v2.55h1.33c0.48,0,0.84-0.06,1.07-0.18C458.75,15.23,458.87,15.01,458.87,14.68z"/>
			</g>
			<g>
				<path class="st4" d="M466.5,13.02h-2.29v6.08h-1.02v-6.08h-2.3v-0.71h5.62V13.02z"/>
			</g>
			<g>
				<path class="st4" d="M474.88,19.09h-0.89v-5.74h-0.05l-2.19,5.74h-0.91l-2.25-5.74h-0.05v5.74h-0.91v-6.79h1.52l2.18,5.65
					l0.03,0.01l2.06-5.66h1.46V19.09z"/>
			</g>
			<g>
				<path class="st4" d="M481.3,19.09h-4.66v-6.79h4.56v0.71h-3.55v2.22h3.2v0.71h-3.2v2.44h3.65V19.09z"/>
			</g>
			<g>
				<path class="st4" d="M488.5,19.09h-1.22l-3.69-5.7v5.7h-0.89v-6.79h1.22l3.69,5.61v-5.61h0.89V19.09z"/>
			</g>
			<g>
				<path class="st4" d="M495.25,13.02h-2.29v6.08h-1.02v-6.08h-2.3v-0.71h5.62V13.02z"/>
			</g>
			<g>
				<path class="st4" d="M504.31,14.14v3.22c0,0.37-0.09,0.68-0.27,0.94c-0.18,0.26-0.42,0.45-0.73,0.57
					c-0.31,0.12-0.61,0.21-0.91,0.26c-0.3,0.05-0.62,0.07-0.97,0.07c-1.9,0-2.84-0.61-2.84-1.84v-3.21c0-1.3,0.95-1.95,2.84-1.95
					C503.36,12.2,504.31,12.85,504.31,14.14z M503.33,17.35v-3.23c0-0.84-0.63-1.26-1.88-1.26c-0.26,0-0.5,0.02-0.7,0.05
					c-0.2,0.03-0.4,0.09-0.59,0.18c-0.19,0.09-0.33,0.22-0.44,0.39c-0.1,0.17-0.16,0.39-0.16,0.64v3.23c0,0.78,0.63,1.17,1.89,1.17
					C502.71,18.52,503.33,18.13,503.33,17.35z"/>
			</g>
			<g>
				<path class="st4" d="M510.55,13.02h-3.65v2.22h3.3v0.71h-3.3v3.15h-1.01v-6.79h4.66V13.02z"/>
			</g>
		</g>
		<g>
			<path class="st1" d="M430.11,45.51h0.54v-0.6h1.69v0.52h0.54v-3.02h-2.77V45.51z M432.34,42.91v1.47h-1.69v-1.47H432.34z"/>
			<polygon class="st1" points="435.7,37.15 435.12,37.15 435.12,40.13 433.17,40.13 433.17,40.68 435.12,40.68 435.12,45.68 
				435.7,45.68 435.7,40.68 438.04,40.68 438.04,40.13 435.7,40.13 			"/>
			<rect x="429.93" y="39.88" class="st1" width="3" height="0.51"/>
			<rect x="429.93" y="41.16" class="st1" width="3" height="0.5"/>
			<path class="st1" d="M433.39,38.64h-1.75l0.32-0.23l-0.03-0.06c-0.23-0.43-0.51-0.83-0.83-1.18l-0.04-0.05l-0.45,0.29l0.06,0.07
				c0.31,0.37,0.56,0.76,0.75,1.16h-1.88v0.51h3.86V38.64z"/>
			<path class="st1" d="M446.15,42.95h1.34v-3.6h-0.25l0.4-0.31l-0.06-0.06c-0.17-0.18-0.36-0.35-0.56-0.52h1.72v-0.51h-2.91
				c0.12-0.19,0.23-0.39,0.32-0.6l0.03-0.08l-0.5-0.14l-0.03,0.06c-0.12,0.28-0.31,0.58-0.57,0.91c-0.25,0.32-0.54,0.62-0.87,0.87
				l-0.07,0.06l0.38,0.32h-0.97l0.4-0.3l-0.05-0.06c-0.15-0.18-0.32-0.35-0.49-0.52h1.33v-0.51h-2.34c0.11-0.19,0.22-0.4,0.31-0.6
				l0.03-0.08l-0.5-0.14l-0.03,0.06c-0.14,0.35-0.37,0.73-0.69,1.13c-0.3,0.4-0.66,0.76-1.06,1.08l-0.07,0.06l0.4,0.34l0.05-0.04
				c0.38-0.31,0.75-0.69,1.09-1.11c0.05-0.06,0.09-0.12,0.13-0.18h0.62c0.3,0.28,0.56,0.57,0.79,0.86l0.02,0.03h-1.64v3.6h1.34
				c-0.01,0.2-0.03,0.39-0.06,0.56h-2.56v0.51h2.39c-0.02,0.03-0.03,0.05-0.05,0.07c-0.17,0.23-0.44,0.43-0.81,0.6
				c-0.38,0.18-0.89,0.33-1.5,0.45l-0.1,0.02l0.27,0.47l0.05-0.01c0.67-0.14,1.22-0.32,1.65-0.54c0.43-0.19,0.74-0.44,0.94-0.72
				c0.07-0.09,0.13-0.21,0.18-0.34h2.05v1.6h0.54v-1.6h2.73v-0.51h-2.73V42.95z M444.6,39.34c0.3-0.24,0.58-0.53,0.86-0.87h0.8
				c0.34,0.28,0.65,0.57,0.9,0.86l0.02,0.02h-2.6L444.6,39.34z M445.61,42.95v0.56h-1.93c0.02-0.16,0.04-0.35,0.05-0.56H445.61z
				 M446.95,41.91v0.53h-4.56v-0.53H446.95z M446.95,40.88v0.52h-4.56v-0.52H446.95z M446.95,39.86v0.51h-4.56v-0.51H446.95z"/>
			<path class="st1" d="M459.32,44.01c-0.03,0.44-0.08,0.74-0.14,0.89c-0.02,0.05-0.06,0.1-0.1,0.1c-0.14,0-0.39-0.14-0.83-0.8
				c-0.05-0.07-0.1-0.15-0.15-0.24c0.34-0.32,0.65-0.68,0.92-1.08l0.05-0.07l-0.45-0.26l-0.04,0.06c-0.21,0.31-0.45,0.61-0.71,0.87
				c-0.14-0.29-0.26-0.61-0.37-0.96h2.33v-0.47H459c-0.22-0.29-0.47-0.55-0.73-0.77c0.31-0.04,0.6-0.09,0.86-0.16
				c0.1,0.18,0.19,0.38,0.26,0.58l0.03,0.09l0.39-0.28l-0.02-0.06c-0.21-0.52-0.48-1-0.79-1.44l-0.04-0.06l-0.38,0.28l0.05,0.06
				c0.09,0.11,0.18,0.24,0.26,0.38c-0.26,0.07-0.55,0.11-0.87,0.14c0.23-0.28,0.45-0.59,0.66-0.92c0.31-0.48,0.56-0.95,0.73-1.4
				l0.03-0.07l-0.46-0.19l-0.03,0.07c-0.11,0.26-0.23,0.52-0.38,0.79c-0.25,0.03-0.51,0.06-0.77,0.09c0.14-0.19,0.27-0.4,0.39-0.62
				c0.2-0.35,0.36-0.7,0.48-1.02l0.02-0.07l-0.47-0.22l-0.03,0.08c-0.12,0.35-0.28,0.7-0.47,1.05c-0.16,0.29-0.34,0.58-0.55,0.84
				c-0.07,0.01-0.15,0.01-0.22,0.02l-0.04,0c-0.04-0.61-0.06-1.28-0.07-2.01l0-0.08h-0.54v0.08c0,0.43,0.01,0.84,0.02,1.23
				l-0.38-0.16l-0.03,0.07c-0.1,0.24-0.22,0.49-0.35,0.73c-0.23,0.04-0.47,0.08-0.71,0.11c0.12-0.18,0.24-0.38,0.36-0.61
				c0.2-0.36,0.35-0.7,0.47-1.02l0.02-0.07l-0.47-0.22l-0.03,0.08c-0.12,0.35-0.27,0.7-0.46,1.04c-0.16,0.29-0.34,0.57-0.53,0.85
				l-0.2,0.01v-0.32h-0.86v-1.81h-0.54v1.81h-1.17v0.51h1.1c-0.08,0.61-0.23,1.22-0.42,1.81c-0.24,0.73-0.51,1.34-0.8,1.84
				l-0.03,0.06l0.44,0.38l0.05-0.08c0.28-0.52,0.51-1.06,0.68-1.59c0.06-0.16,0.11-0.34,0.16-0.52v4.32h0.54v-5.11
				c0.22,0.41,0.4,0.84,0.53,1.29l0.03,0.1l0.49-0.34l-0.02-0.05c-0.02-0.05-0.03-0.09-0.05-0.14l0.05,0
				c0.69-0.02,1.29-0.09,1.77-0.23c0.05,0.13,0.1,0.27,0.14,0.42l0.02,0.08l0.5-0.15l-0.02-0.07c-0.16-0.5-0.38-0.96-0.68-1.36
				l-0.04-0.05l-0.45,0.2c0.07-0.1,0.13-0.19,0.2-0.29c0.29-0.44,0.52-0.86,0.71-1.26c0.06,1.38,0.2,2.5,0.44,3.34l0.01,0.03h-1.3
				c0.03-0.17,0.05-0.34,0.07-0.53l0.01-0.08H455l-0.01,0.07c-0.02,0.18-0.04,0.36-0.07,0.54h-1.29v0.47h1.22
				c-0.04,0.18-0.08,0.35-0.12,0.51c-0.14,0.49-0.33,0.92-0.54,1.27c-0.21,0.34-0.45,0.61-0.73,0.81l-0.06,0.04l0.26,0.45l0.07-0.05
				c0.33-0.22,0.62-0.54,0.87-0.93c0.21-0.33,0.39-0.73,0.55-1.19c0.37,0.23,0.74,0.51,1.11,0.82l0.06,0.05l0.29-0.4l-0.05-0.05
				c-0.34-0.31-0.77-0.63-1.27-0.95c0.03-0.13,0.06-0.27,0.09-0.41h1.52c0.15,0.49,0.33,0.94,0.52,1.33
				c-0.11,0.1-0.24,0.2-0.37,0.28c-0.51,0.34-1.19,0.66-2.02,0.94l-0.08,0.03l0.24,0.46l0.06-0.02c0.89-0.3,1.62-0.64,2.16-1.01
				c0.09-0.06,0.18-0.13,0.27-0.21c0.06,0.09,0.12,0.19,0.18,0.28c0.48,0.66,0.87,0.98,1.2,0.98c0.2,0,0.37-0.09,0.49-0.25
				c0.15-0.21,0.25-0.6,0.3-1.17l0.01-0.06l-0.54-0.18L459.32,44.01z M453.15,39.47h0.81l0.09,0.28l0.06,0
				c0.39-0.03,0.78-0.07,1.16-0.14c-0.03,0.05-0.06,0.09-0.09,0.14c-0.26,0.39-0.55,0.79-0.88,1.16h-0.29l0.08,0.42
				c-0.16-0.42-0.35-0.81-0.57-1.17l-0.04-0.07l-0.34,0.22V39.47z M455.47,40.32c0.09,0.13,0.18,0.27,0.27,0.41
				c-0.24,0.06-0.51,0.11-0.8,0.14c0.17-0.19,0.33-0.4,0.48-0.62L455.47,40.32z M457.23,41.35c0.3-0.01,0.58-0.02,0.85-0.05
				l-0.3,0.21l0.07,0.06c0.18,0.15,0.34,0.31,0.49,0.48h-1.01c-0.02-0.08-0.04-0.16-0.07-0.25c-0.04-0.14-0.07-0.29-0.1-0.44
				L457.23,41.35z M457,39.71l0.06,0c0.41-0.03,0.82-0.07,1.22-0.13c-0.02,0.03-0.04,0.07-0.06,0.1c-0.24,0.39-0.52,0.78-0.83,1.16
				h-0.31c-0.06-0.4-0.11-0.86-0.15-1.36L457,39.71z"/>
			<path class="st1" d="M466.01,40.56c0.6,0.41,1.17,0.92,1.72,1.52l0.06,0.07l0.38-0.48l-0.05-0.05c-0.54-0.57-1.14-1.06-1.79-1.47
				l-0.06-0.04l-0.34,0.4L466.01,40.56z"/>
			<path class="st1" d="M468.15,39.94l0.06,0.07l0.38-0.49l-0.05-0.05c-0.52-0.54-1.11-1.02-1.75-1.43l-0.06-0.04l-0.35,0.4
				l0.07,0.05C467.05,38.86,467.62,39.36,468.15,39.94z"/>
			<polygon class="st1" points="469.42,42.43 469.42,37.18 468.84,37.18 468.84,42.52 465.3,43.13 465.33,43.67 468.84,43.07 
				468.84,45.68 469.42,45.68 469.42,42.97 470.75,42.75 470.7,42.21 			"/>
			<path class="st1" d="M465.37,42.49l0.49-0.34l-0.03-0.06c-0.26-0.58-0.58-1.11-0.97-1.58l-0.04-0.05l-0.36,0.24v-0.57h1.56v-0.51
				h-1.56v-1.36c0.46-0.12,0.91-0.25,1.33-0.41l0.08-0.03l-0.23-0.49l-0.06,0.02c-0.96,0.33-2.02,0.58-3.16,0.74l-0.09,0.01
				l0.21,0.54l0.06-0.01c0.46-0.07,0.9-0.16,1.32-0.25v1.24h-1.56v0.51h1.47c-0.11,0.52-0.29,1.03-0.54,1.53
				c-0.32,0.62-0.67,1.15-1.05,1.58l-0.05,0.06l0.44,0.39l0.05-0.06c0.38-0.45,0.69-0.91,0.91-1.37c0.12-0.22,0.23-0.45,0.33-0.71
				v4.12h0.54v-4.83c0.37,0.49,0.67,1.02,0.88,1.56L465.37,42.49z"/>
			<path class="st1" d="M477.61,43.37c0.92-0.28,1.73-0.63,2.41-1.04l0.04-0.02v-0.44h-5.24v0.51h4.11
				c-0.46,0.2-0.98,0.37-1.53,0.53c-0.03-0.06-0.08-0.12-0.13-0.18l-0.04-0.04l-0.45,0.21l0.06,0.08c0.11,0.14,0.19,0.3,0.26,0.48
				h-3.83v0.5h3.99c0.05,0.21,0.07,0.45,0.07,0.71c0,0.32-0.06,0.37-0.08,0.38c-0.03,0.02-0.08,0.04-0.2,0.04
				c-0.27,0-0.58-0.07-0.94-0.22l-0.12-0.05l0.06,0.6l0.05,0.02c0.37,0.13,0.72,0.19,1.05,0.19c0.21,0,0.38-0.05,0.5-0.15
				c0.15-0.13,0.22-0.4,0.22-0.81c0-0.22-0.03-0.46-0.08-0.71h3.81v-0.5h-3.95C477.63,43.41,477.62,43.39,477.61,43.37z"/>
			<path class="st1" d="M474.09,41.42h6.67v0.92h0.53v-1.42h-0.59l0.18-3.31h-2.15v0.51h1.58l-0.04,0.59h-1.58v0.52h1.56l-0.03,0.56
				h-1.68v0.51h1.66l-0.04,0.63h-1.86l0.33-0.35l-0.05-0.05c-0.19-0.19-0.4-0.37-0.61-0.55c0.19-0.18,0.36-0.39,0.52-0.61l0.04-0.05
				l-0.2-0.21l0.31-0.34l-0.05-0.05c-0.18-0.17-0.36-0.33-0.56-0.48c0.22-0.21,0.42-0.44,0.6-0.7l0.04-0.05l-0.33-0.37l-0.06,0.08
				c-0.18,0.26-0.39,0.5-0.64,0.73c-0.28-0.2-0.57-0.4-0.86-0.58l-0.06-0.04l-0.3,0.37l0.07,0.05c0.25,0.16,0.5,0.33,0.76,0.52
				c-0.27,0.19-0.57,0.37-0.9,0.52l-0.03,0.01V38.7h-1.71l-0.01-0.35c0.6-0.11,1.16-0.29,1.67-0.54l0.08-0.04l-0.3-0.48L476,37.32
				c-0.58,0.25-1.2,0.43-1.86,0.54l-0.07,0.01l0.08,3.04h-0.6v1.42h0.54V41.42z M476.57,40.91c0.37-0.17,0.71-0.37,1.02-0.61
				c0.21,0.18,0.42,0.38,0.63,0.59l0.02,0.02h-1.68L476.57,40.91z M476.33,38.87l0.22,0.34l0.06-0.03c0.38-0.18,0.73-0.4,1.04-0.64
				c0.16,0.15,0.33,0.31,0.5,0.48l-0.01,0.01c-0.16,0.22-0.34,0.43-0.56,0.64c-0.25-0.18-0.5-0.36-0.76-0.52l-0.06-0.04l-0.3,0.38
				l0.07,0.04c0.22,0.13,0.44,0.28,0.66,0.45c-0.26,0.2-0.55,0.37-0.88,0.52l-0.08,0.04l0.26,0.38h-1.85l-0.01-0.66h1.75v-0.51
				h-1.76l-0.01-0.52h1.7V38.87z"/>
			<path class="st1" d="M491.86,42.82l0.06,0.07l0.38-0.48l-0.04-0.05c-0.63-0.74-1.34-1.39-2.1-1.93l-0.05-0.04l-0.36,0.38
				l0.07,0.05c0.27,0.2,0.54,0.44,0.82,0.69c-1.25,0.11-2.41,0.19-3.48,0.24c0.62-0.32,1.23-0.68,1.79-1.07
				c0.9-0.63,1.6-1.21,2.08-1.72l0.06-0.06l-0.55-0.45l-0.05,0.06c-0.4,0.44-0.87,0.89-1.39,1.32c-0.68,0.03-1.43,0.05-2.23,0.07
				c0.56-0.49,1.05-1.01,1.47-1.54c0.18-0.02,0.36-0.04,0.56-0.07c1.07-0.15,2.05-0.36,2.92-0.63l0.11-0.03l-0.39-0.48l-0.05,0.02
				c-0.82,0.25-1.73,0.44-2.71,0.58c-1.06,0.15-2.41,0.27-4.02,0.37l-0.12,0.01l0.28,0.54l0.05,0c0.83-0.04,1.7-0.1,2.57-0.19
				c-0.41,0.5-0.89,0.99-1.45,1.46h-0.75l0.1,0.54h0.06c1.11,0,2.07-0.03,2.88-0.08c-0.02,0.02-0.05,0.04-0.07,0.06
				c-0.79,0.53-1.56,0.99-2.28,1.37c-0.51,0.02-1,0.03-1.45,0.03h-0.09l0.1,0.58l0.07,0c1.22-0.03,2.39-0.08,3.48-0.14v2.3
				c0,0.17-0.05,0.39-0.47,0.39c-0.29,0-0.59-0.05-0.89-0.15l-0.11-0.04l0.05,0.63l0.05,0.01c0.28,0.08,0.58,0.12,0.9,0.12
				c0.86,0,1.04-0.47,1.04-0.86v-2.45c0.84-0.06,1.66-0.13,2.44-0.22C491.37,42.26,491.62,42.53,491.86,42.82z"/>
			<path class="st1" d="M492.32,44.41c-0.7-0.67-1.49-1.26-2.36-1.75l-0.06-0.03l-0.34,0.4l0.08,0.05c0.8,0.49,1.57,1.1,2.3,1.81
				l0.06,0.06l0.37-0.49L492.32,44.41z"/>
			<path class="st1" d="M487.04,43.01l-0.33-0.48l-0.07,0.07c-0.72,0.8-1.46,1.4-2.18,1.8l-0.07,0.04l0.28,0.53l0.07-0.04
				c0.83-0.48,1.59-1.1,2.26-1.86L487.04,43.01z"/>
		</g>
	</g>
</g>
</svg>
