<svg width="592" height="182" xmlns="http://www.w3.org/2000/svg" xmlns:xlink="http://www.w3.org/1999/xlink" xml:space="preserve" overflow="hidden"><defs><clipPath id="clip0"><rect x="188" y="234" width="592" height="182"/></clipPath><clipPath id="clip1"><rect x="188" y="234" width="592" height="182"/></clipPath><clipPath id="clip2"><rect x="189" y="235" width="590" height="181"/></clipPath><clipPath id="clip3"><rect x="189" y="235" width="590" height="181"/></clipPath><clipPath id="clip4"><rect x="77" y="235" width="817" height="181"/></clipPath><clipPath id="clip5"><rect x="77" y="235" width="817" height="181"/></clipPath><clipPath id="clip6"><rect x="77" y="235" width="817" height="181"/></clipPath><clipPath id="clip7"><rect x="78" y="235" width="816" height="181"/></clipPath><clipPath id="clip8"><rect x="77" y="239" width="817" height="177"/></clipPath></defs><g clip-path="url(#clip0)" transform="translate(-188 -234)"><g clip-path="url(#clip1)"><g clip-path="url(#clip2)"><g clip-path="url(#clip3)"><g clip-path="url(#clip4)"><g clip-path="url(#clip5)"><g clip-path="url(#clip6)"><g clip-path="url(#clip7)"><g clip-path="url(#clip8)"><path d="M460.58 70.8683C450.506 68.9495 443.087 64.6321 440.464 62.4895L450.059 62.4895 459.652 62.4895C460.356 62.4895 459.877 61.5301 459.877 61.5301 459.877 61.5301 455.335 57.4686 454.6 57.2127 453.64 56.733 453.417 57.2127 453.417 57.2127L450.059 60.091 437.586 60.091 437.586 53.6309C445.965 52.9274 452.905 52.1919 453.864 51.968 449.067 48.8659 450.282 49.0897 446.189 46.4673 442.127 48.1304 423.419 53.1832 412.642 54.1426L412.642 54.6223C417.918 54.8462 425.114 54.3985 431.798 54.1426L431.798 60.1229 409.507 60.1229 409.507 62.2656 425.306 62.2656C421.468 67.7663 414.049 74.7378 408.772 76.4008L408.772 76.8808C412.354 76.1771 415.712 74.9615 418.846 73.5229L418.846 93.1585 424.347 93.1585 424.347 91.4636 444.941 91.4636 444.941 93.1267 450.442 93.1267 450.442 74.4504C453.32 75.889 455.719 76.5927 455.943 76.1134 456.423 74.1941 456.167 72.0516 459.525 71.0922 460.324 71.0922 460.324 71.5719 460.58 70.8683ZM421.052 72.531C426.073 69.6531 429.688 66.2952 431.83 63.8966L431.83 73.9704 424.41 73.9704 424.41 72.531 421.052 72.531ZM445.006 89.3206 424.41 89.3206 424.41 84.0441 445.006 84.0441 445.006 89.3206ZM445.006 81.6455 424.41 81.6455 424.41 76.369 445.006 76.369 445.006 81.6455ZM445.006 72.531 445.006 73.9704 437.586 73.9704 437.586 62.4575C439.729 66.9987 443.822 70.6125 447.404 73.0111L445.006 72.531Z" fill="#004898" fill-rule="evenodd" fill-opacity="1" transform="matrix(1.01077 0 0 1 -973.943 240.037)"/><path d="M818.692 86.4427C818.214 88.1057 815.593 87.402 814.377 87.6257 813.197 87.6257 811.98 87.402 810.793 87.6257 810.576 87.8502 810.576 87.8502 810.793 88.1057 812.936 88.5857 815.115 88.8095 816.773 90.248 817.483 90.9518 817.258 92.3911 817.483 93.3504 819.626 93.3504 821.32 93.1267 822.978 92.6467 823.688 91.9437 824.419 91.9437 824.419 89.7688L824.419 89.7688 824.419 82.0936 845.017 82.0936C845.972 82.0936 846.457 82.0936 846.682 82.0936 847.384 82.0936 846.899 81.1343 846.899 81.1343 846.899 81.1343 842.359 77.0727 841.628 76.8164 840.665 76.3371 840.441 76.8164 840.441 76.8164L837.081 79.695 824.39 79.695 824.39 77.7764C828.227 76.8164 835.648 74.1941 835.648 74.1941 835.648 74.1941 831.101 70.8363 830.37 70.1328 830.37 70.1328 829.407 70.8363 828.227 72.2755L806.413 72.2755 806.413 74.6741 826.048 74.6741C825.092 75.6334 824.39 76.3371 823.173 77.552L818.858 77.552 818.858 79.9506 798.007 79.9506 798.007 82.0936 818.858 82.0936 818.858 86.4108 818.692 86.4108Z" fill="#004898" fill-rule="evenodd" fill-opacity="1" transform="matrix(1.01077 0 0 1 -973.943 240.037)"/><path d="M828.068 58.6518C828.068 58.6518 824.23 56.9889 823.745 56.733 823.043 56.5091 823.268 56.733 823.268 56.9569 823.043 57.6604 822.312 58.396 821.827 59.0995 820.647 58.6199 819.43 58.1402 817.765 58.1402 817.765 58.1402 817.541 58.364 817.765 58.364 817.765 58.364 818.953 59.3234 820.169 60.9864 817.541 63.385 814.413 65.3038 814.413 65.3038 813.226 66.487 817.765 64.8241 821.827 62.9052 822.536 63.8646 823.268 64.8241 823.97 65.7834 825.411 66.9667 827.329 64.1205 826.113 62.4255 825.888 62.2017 825.635 61.7219 824.933 61.2423 825.635 60.7626 826.113 60.2828 826.598 60.059L828.068 58.6518Z" fill="#004898" fill-rule="evenodd" fill-opacity="1" transform="matrix(1.01077 0 0 1 -973.943 240.037)"/><path d="M801.461 73.4911C801.685 72.7873 802.163 71.5719 801.939 69.1733L840.028 69.1733C839.065 70.8363 838.11 73.0111 836.669 75.4097 835.967 76.5927 846.964 68.6937 846.964 68.6937 846.964 68.6937 842.902 65.5916 841.947 65.1119 841.947 65.1119 841.462 65.8154 840.984 66.7748L840.506 66.7748 840.506 47.6186 835.004 46.9151 835.004 49.3136 827.807 49.3136 827.807 50.9765 835.004 50.9765 835.004 55.2939 827.807 55.2939 827.807 56.9569 835.004 56.9569 835.004 61.2742 827.807 61.2742 827.807 62.9372 835.004 62.9372 835.004 66.519 806.992 66.519 806.992 62.9372 809.866 62.9372 815.622 62.9372C816.107 62.9372 815.622 62.4575 815.622 62.4575 815.622 62.4575 813.001 60.059 812.523 59.8351 812.046 59.6113 811.821 59.8351 811.821 59.8351L810.156 61.0184 807.057 61.0184 807.057 56.7011 809.932 56.7011 812.552 56.7011 815.434 56.7011C815.912 56.7011 815.434 56.2214 815.434 56.2214 815.434 56.2214 812.813 53.8228 812.328 53.5989 811.85 53.3751 811.626 53.5989 811.626 53.5989L809.968 55.038 806.862 55.038 806.862 51.2004C809.005 50.9765 812.842 50.4969 814.536 49.7613L815.977 49.9852C816.455 50.209 816.455 49.2816 816.455 49.2816 816.455 49.2816 812.14 46.8831 811.662 46.4034 811.177 45.9237 810.699 46.8831 810.699 46.8831L806.637 49.9852 806.637 46.8831 801.135 46.8831 801.135 66.2952 800.657 66.2952C800.433 65.3357 799.955 64.3763 799.477 63.193 799.253 63.193 799.253 63.193 799.253 63.193 799.253 63.193 798.55 67.2545 795.669 72.7873 795.705 75.6652 800.273 75.889 801.461 73.4911Z" fill="#004898" fill-rule="evenodd" fill-opacity="1" transform="matrix(1.01077 0 0 1 -973.943 240.037)"/><path d="M815.593 55.5178C814.413 56.7011 817.99 55.2939 821.349 53.3751 821.827 54.0787 822.312 55.038 822.79 55.7736 823.97 57.2127 826.149 54.5903 825.186 52.4157 824.962 52.1919 824.708 51.7121 824.23 51.4563 824.933 50.9765 825.664 50.4969 825.888 50.0172L827.329 48.8339C827.329 48.8339 823.745 47.1709 823.268 47.1709 822.565 46.9471 822.79 47.1709 822.79 47.3948 822.312 48.0984 821.827 48.8339 821.349 49.7933 820.393 49.3136 819.206 48.8339 817.512 48.61 817.512 48.61 817.287 48.8339 817.512 48.8339 817.512 48.8339 818.475 50.0172 819.908 51.7121 817.99 53.8548 815.593 55.5178 815.593 55.5178Z" fill="#004898" fill-rule="evenodd" fill-opacity="1" transform="matrix(1.01077 0 0 1 -973.943 240.037)"/><path d="M533.399 90.9836C535.798 86.1871 531 90.9836 532.216 79.2469 531.992 78.7676 531.736 79.0232 531.736 79.2469 531.736 79.2469 529.817 84.5241 527.419 87.6257 526.715 87.6257 519.04 87.6257 516.162 87.6257 514.243 87.6257 511.365 87.8502 511.62 85.7071L511.62 81.8692 521.215 81.8692 521.215 83.5322 526.715 83.5322 526.715 73.9385C529.338 76.3371 531.512 77.0408 532.472 77.5201 534.135 78.0001 533.911 77.5201 534.391 76.8164 534.87 74.6741 535.094 73.2348 537.492 72.4992 537.492 72.4992 537.492 72.2755 537.492 72.0196 531.736 70.8363 528.378 70.3567 524.317 65.7834L527.419 65.7834 537.013 65.7834C537.717 65.7834 537.237 64.8241 537.237 64.8241 537.237 64.8241 532.696 60.7626 531.96 60.5067 531 60.027 530.777 60.5067 530.777 60.5067L527.419 63.385 526.236 63.385 526.236 55.7097C527.195 55.7097 534.87 55.7097 535.829 55.7097 536.533 55.7097 536.054 54.7503 536.054 54.7503 536.054 54.7503 531.512 50.6888 530.777 50.4329 529.817 49.9532 529.594 50.4329 529.594 50.4329L526.491 53.0553 526.491 47.2988 520.991 46.5953 520.991 53.3112 513.572 53.3112 513.572 46.5953 508.071 46.5953 508.071 53.3112 500.876 53.3112C500.876 52.8314 500.652 52.3517 500.395 51.872 499.916 51.3923 497.038 48.0344 489.362 47.5547 489.362 47.7786 489.139 47.7786 489.362 47.7786 489.362 47.7786 492.72 50.1771 496.782 56.1574 497.965 57.8204 499.404 56.8609 500.14 55.4538L502.059 55.4538C499.916 62.8732 497.038 69.3333 493.2 76.3053 492.976 76.7845 491.281 78.7031 489.139 78.7031L487.219 78.9276C486.996 78.9276 486.74 79.1513 486.996 79.6306 488.179 80.1106 487.699 79.4069 488.659 79.855 493.68 80.8143 492.017 89.1932 492.497 92.3274 492.273 94.246 498.253 93.5104 498.956 88.745 498.732 84.9078 497.518 83.2448 496.078 80.8462 496.078 80.6225 496.302 80.1425 496.302 79.8869 496.302 79.8869 496.526 79.8869 496.782 79.8869 500.619 79.1832 503.977 77.2646 506.856 74.8659L506.856 86.6027 506.856 87.562 506.856 87.7857C507.335 90.6643 509.734 91.8474 511.397 91.8474 516.898 91.8474 523.133 91.8474 527.931 91.8474 531 92.4229 532.663 92.1674 533.399 90.9836ZM513.028 56.2533 520.447 56.2533 520.447 63.9286 513.028 63.9286 513.028 56.2533ZM511.845 69.4292C512.804 68.246 513.508 67.0307 513.987 66.0713L521.407 66.0713C522.11 67.7343 522.846 68.9495 523.549 70.1328L521.151 69.9089 521.151 71.8278 511.557 71.8278 511.557 69.4292 511.845 69.4292ZM511.845 74.2259 521.439 74.2259 521.439 79.7269 511.845 79.7269 511.845 74.2259ZM496.27 79.7269C496.974 76.6245 498.413 71.348 499.852 66.3271L506.568 66.3271C505.608 69.4292 502.507 76.6245 496.27 79.7269ZM507.527 63.9286 500.587 63.9286C501.547 60.8265 502.25 57.9483 502.73 56.2533L507.527 56.2533 507.527 63.9286Z" fill="#004898" fill-rule="evenodd" fill-opacity="1" transform="matrix(1.01077 0 0 1 -973.943 240.037)"/><path d="M493.136 67.9901C495.055 69.9089 497.678 65.8474 496.238 63.193 495.535 62.2337 493.616 59.6113 486.644 58.8757 486.644 59.0995 486.42 59.0995 486.644 59.0995 486.676 59.3554 489.81 62.4895 493.136 67.9901Z" fill="#004898" fill-rule="evenodd" fill-opacity="1" transform="matrix(1.01077 0 0 1 -973.943 240.037)"/><path d="M656.523 80.2069 656.523 83.5648 676.415 83.5648 676.415 85.9627 656.523 85.9627 656.523 89.3206 676.415 89.3206 676.415 91.6874 656.523 91.6874 656.523 93.3822 651.023 93.3822 651.023 76.849 656.523 76.849 656.523 78.0639 676.415 78.0639 676.415 80.2069Z" fill="#004898" fill-rule="evenodd" fill-opacity="1" transform="matrix(1.01077 0 0 1 -973.943 240.037)"/><path d="M669.219 49.3136C670.403 48.3542 671.139 47.6506 670.659 47.6506 668.036 47.1709 664.902 46.6912 661.32 45.9877L661.097 46.2115C659.177 49.5695 653.197 55.5498 647.441 59.3874 644.818 61.3062 642.164 62.7453 640.022 63.4489 640.022 64.1525 643.38 63.6728 647.441 62.2656L647.441 75.6652 652.942 75.6652 652.942 60.091C653.422 59.8671 653.901 59.6113 654.381 59.3874L670.435 59.3874 677.374 59.3874C677.854 59.8671 678.557 60.091 679.037 60.5706L679.037 62.4895 652.942 62.4895 652.942 64.888 663.719 64.888 663.719 72.3075 660.84 72.3075C661.544 71.6039 662.024 69.9089 661.065 68.7256 660.361 68.022 658.922 66.3271 653.869 66.3271L653.869 66.5509C653.869 66.5509 656.268 68.4698 659.146 72.0516L652.91 72.0516 652.91 74.4504 679.006 74.4504 679.006 75.6334 684.506 75.6334 684.506 63.1611C684.986 63.385 685.21 63.385 685.69 63.385 687.353 63.6088 687.832 64.0885 688.312 62.9052 688.312 61.2423 688.792 60.5067 689.975 59.0676 690.454 58.5879 691.893 57.6285 692.117 56.9249L692.117 56.7011C685.274 55.5178 679.997 56.9569 669.219 49.3136ZM670.659 56.9569 657.963 57.1807C660.585 55.5178 665.158 52.3837 668.036 50.241 668.995 51.6801 670.659 53.3432 672.833 55.262L670.659 56.9569ZM679.293 72.0516 670.179 72.0516C672.322 71.0922 678.078 67.5104 678.078 67.5104 678.078 67.5104 673.761 65.8474 673.057 65.3677 673.057 65.3677 671.874 67.7663 669.219 72.0836L668.26 72.0836 668.26 64.6641 679.037 64.6641 679.037 72.0836 679.293 72.0836Z" fill="#004898" fill-rule="evenodd" fill-opacity="1" transform="matrix(1.01077 0 0 1 -973.943 240.037)"/><path d="M682.172 93.3822 682.172 77.1046 676.415 76.369 676.639 93.3822Z" fill="#004898" fill-rule="evenodd" fill-opacity="1" transform="matrix(1.01077 0 0 1 -973.943 240.037)"/><path d="M747.573 63.193 758.607 63.193C758.607 63.193 767.462 63.193 768.2 63.193 768.902 63.193 768.425 62.2337 768.425 62.2337 768.425 62.2337 763.878 58.1722 763.147 57.9163 762.184 57.4366 761.959 57.9163 761.959 57.9163L758.607 60.5387 745.908 60.5387 745.908 46.8831 739.675 46.8831 739.675 60.7626 719.781 60.7626 719.781 63.1611 739.675 63.1611C739.189 70.1008 737.046 86.4108 718.341 92.8711 718.565 93.0948 718.821 93.0948 719.3 93.0948 743.512 90.2162 745.879 69.1414 745.879 63.385 751.15 87.5939 761.192 93.5741 765.029 93.0948 765.739 93.0948 764.327 88.7776 770.054 87.5939L770.054 87.1146C765.514 85.9627 752.815 79.4713 747.573 63.193Z" fill="#004898" fill-rule="evenodd" fill-opacity="1" transform="matrix(1.01077 0 0 1 -973.943 240.037)"/><path d="M573.406 56.9569C575.325 59.5793 578.427 55.038 576.988 52.4157 576.509 51.936 573.63 48.5781 565.955 48.0984 565.955 48.3222 565.731 48.3222 565.955 48.3222 565.987 48.5781 569.345 50.9765 573.406 56.9569Z" fill="#004898" fill-rule="evenodd" fill-opacity="1" transform="matrix(1.01077 0 0 1 -973.943 240.037)"/><path d="M575.55 89.3206C575.325 85.4834 574.11 83.8204 572.671 81.4218 572.895 79.9825 573.63 77.3601 574.59 74.2259 575.07 75.4097 577.692 75.889 579.131 74.9297L583.928 74.9297C585.367 79.4713 587.766 82.8292 590.388 85.4834 586.551 88.3613 582.009 90.7599 576.253 92.1992 576.253 92.1992 576.253 92.6792 576.253 92.4229 582.968 92.1992 588.469 90.2806 593.267 87.882 600.686 93.3822 609.321 93.6385 609.321 92.903 609.544 89.065 611.943 88.1057 613.638 87.1464 613.861 86.6664 613.414 86.6664 612.678 86.6664 608.138 86.8901 603.084 86.1871 598.543 84.7478 602.86 81.6455 605.963 78.2876 608.138 75.6334L609.097 74.1941C609.097 74.1941 608.138 73.4911 606.954 72.7555 610.056 70.8363 614.373 67.9581 614.373 67.9581 614.373 67.9581 609.832 65.0799 608.872 64.3763 608.872 64.3763 608.393 65.0799 607.689 66.519L581.338 66.519C581.338 65.8154 581.114 65.0799 580.858 64.3763 580.634 64.3763 580.634 64.3763 580.634 64.3763 580.634 64.3763 579.195 67.9581 575.613 72.531 577.532 65.8154 579.93 57.6924 580.411 54.8142 580.411 54.8142 580.634 51.7121 579.451 55.5178 577.308 62.9372 574.43 69.6531 570.337 76.849 570.112 77.3283 568.417 79.2469 566.275 79.2469L564.356 79.4713C564.132 79.4713 563.877 79.695 564.132 80.1743 565.316 80.6543 564.836 79.9506 565.795 80.3988 570.816 81.358 569.153 89.7369 569.633 92.8711 569.089 94.566 575.07 93.8623 575.55 89.3206ZM593.522 82.6048C590.42 80.6862 587.542 78.2876 585.367 74.9297L599.982 74.9297C598.319 77.5838 596.176 80.2069 593.522 82.6048ZM581.306 69.1733 606.474 69.1733C605.995 69.8769 605.514 70.8363 605.035 71.7957 604.331 71.316 603.596 70.8363 602.892 70.6125 602.892 70.6125 602.189 71.7957 601.454 72.7555L580.602 72.7555C581.082 71.8278 581.306 70.6125 581.306 69.1733Z" fill="#004898" fill-rule="evenodd" fill-opacity="1" transform="matrix(1.01077 0 0 1 -973.943 240.037)"/><path d="M570.049 67.9901C571.967 69.9089 574.59 65.8474 573.151 63.193 572.447 62.2337 570.529 59.6113 563.557 58.8757 563.557 59.0995 563.333 59.0995 563.557 59.0995 563.588 59.3554 566.946 62.4895 570.049 67.9901Z" fill="#004898" fill-rule="evenodd" fill-opacity="1" transform="matrix(1.01077 0 0 1 -973.943 240.037)"/><path d="M600.462 64.4083 605.963 64.4083 605.963 57.2127 607.402 57.2127 613.861 57.2127C614.565 57.2127 613.861 56.5091 613.861 56.5091 613.861 56.5091 610.024 53.4071 609.544 52.9274 608.841 52.7035 608.585 52.9274 608.585 52.9274L606.186 54.8462 605.706 54.8462 605.706 47.6506 600.206 46.9471 600.206 49.3456 581.05 49.3456 581.05 51.4883 600.206 51.4883 600.206 55.07 582.233 55.07 582.233 57.2127 600.206 57.2127 600.206 60.7946 581.05 60.7946 581.05 62.9372 600.206 62.9372 600.206 64.3763 600.462 64.3763Z" fill="#004898" fill-rule="evenodd" fill-opacity="1" transform="matrix(1.01077 0 0 1 -973.943 240.037)"/><path d="M425.114 118.04 424.155 118.04 424.155 118.263C425.114 118.743 425.114 120.886 425.114 120.886L425.114 131.183 414.337 131.183 414.337 120.886C414.337 120.886 414.337 118.743 415.296 118.263L415.296 118.04 409.316 118.04 409.316 118.263C410.275 118.743 410.275 120.886 410.275 120.886L410.275 145.798C410.275 145.798 410.275 147.941 409.316 148.421L409.316 148.644 415.296 148.644 415.296 148.421C414.337 147.941 414.337 145.798 414.337 145.798L414.337 134.541 425.114 134.541 425.114 146.054C425.114 146.534 425.114 148.197 424.155 148.453L424.155 148.676 430.135 148.676 430.135 148.453C429.176 147.973 429.176 145.83 429.176 145.83L429.176 120.917C429.176 120.917 429.176 118.775 430.135 118.295L430.135 118.071 429.176 118.071 425.114 118.04Z" fill="#004898" fill-rule="evenodd" fill-opacity="1" transform="matrix(1.01077 0 0 1 -973.943 240.037)"/><path d="M501.291 132.175C502.25 132.654 502.25 134.797 502.25 134.797L502.25 134.797 502.25 144.615C501.547 145.095 499.628 146.054 496.75 146.054 493.168 146.054 491.249 144.391 491.249 137.675L491.249 127.378C491.249 120.917 495.79 120.662 497.006 120.662 499.404 120.438 503.242 121.366 504.681 123.284L504.681 118.487C503.018 118.007 500.14 117.304 497.006 117.528 490.545 117.528 487.411 121.366 487.411 127.601L487.411 137.675C487.411 146.054 490.514 149.412 497.006 149.412 500.844 149.412 503.945 148.453 506.344 147.013L506.344 132.175 501.291 132.175Z" fill="#004898" fill-rule="evenodd" fill-opacity="1" transform="matrix(1.01077 0 0 1 -973.943 240.037)"/><path d="M481.175 118.04 477.818 118.04 476.858 118.04 476.858 118.263C477.562 118.487 477.818 120.182 477.818 120.662L477.818 143.912 465.825 118.263 460.324 118.263 458.661 118.263 458.661 118.487C459.844 119.446 460.101 120.406 460.324 121.845L460.324 146.534C460.324 147.237 460.101 148.453 459.365 148.676L459.365 148.9 460.324 148.9 463.682 148.9 464.641 148.9 464.641 148.708C463.938 148.484 463.682 147.045 463.682 146.566L463.682 122.133C463.682 122.133 468.479 132.91 473.5 143.464 476.378 149.22 480.92 148.964 480.92 148.964L480.92 120.214C480.92 119.511 481.144 118.295 481.879 118.071L481.879 117.848 481.175 118.04Z" fill="#004898" fill-rule="evenodd" fill-opacity="1" transform="matrix(1.01077 0 0 1 -973.943 240.037)"/><path d="M444.75 117.336C438.29 117.336 435.156 121.173 435.156 127.41L435.156 137.483C435.156 145.862 438.258 149.22 444.75 149.22 451.242 149.22 454.344 145.862 454.344 137.483L454.344 127.41C454.344 121.397 451.242 117.336 444.75 117.336ZM450.506 137.451C450.506 144.167 448.587 145.83 445.006 145.83 441.424 145.83 439.505 144.167 439.505 137.451L439.505 127.154C439.505 120.694 443.822 120.694 445.006 120.694 446.189 120.694 450.506 120.917 450.506 127.154L450.506 137.451Z" fill="#004898" fill-rule="evenodd" fill-opacity="1" transform="matrix(1.01077 0 0 1 -973.943 240.037)"/><path d="M590.644 118.04C591.347 118.263 591.604 119.958 591.604 120.438L591.604 143.687 579.61 118.04 577.213 118.04 572.671 118.04 572.671 118.263C573.855 119.223 574.11 120.182 574.334 121.621L574.334 146.31C574.334 147.013 574.11 148.229 573.375 148.453L573.375 148.676 574.334 148.676 577.692 148.676 578.651 148.676 578.651 148.453C577.947 148.229 577.692 146.79 577.692 146.31L577.692 122.1C577.692 122.1 582.489 132.878 587.51 143.432 590.388 149.188 594.93 148.932 594.93 148.932L594.93 120.182C594.93 119.478 595.153 118.263 595.889 118.04L595.889 117.815 590.644 118.04Z" fill="#004898" fill-rule="evenodd" fill-opacity="1" transform="matrix(1.01077 0 0 1 -973.943 240.037)"/><path d="M544.656 145.607 535.318 131.95 546.351 118.295 545.392 118.295 540.115 118.295 540.115 118.519C541.778 119.478 539.156 121.621 537.492 123.796L531.257 131.695 531.033 131.695 531.033 120.662C531.033 120.182 531.257 118.743 531.992 118.263L531.992 118.04 526.012 118.04 526.012 118.263C526.971 118.743 526.971 120.406 526.971 120.662L526.971 145.83C526.971 145.83 526.971 147.973 526.012 148.453L526.012 148.676 526.971 148.676 530.809 148.676 531.769 148.676 531.769 148.453C530.809 147.973 530.809 145.83 530.809 145.83L530.809 132.654 531.033 132.654 540.627 147.013C541.33 148.453 542.066 148.453 544.688 148.453L547.566 148.453 547.566 148.229C546.575 147.525 545.616 146.566 544.656 145.607Z" fill="#004898" fill-rule="evenodd" fill-opacity="1" transform="matrix(1.01077 0 0 1 -973.943 240.037)"/><path d="M615.333 132.175C616.292 132.654 616.292 134.797 616.292 134.797L616.292 134.797 616.292 144.615C615.589 145.095 613.67 146.054 610.792 146.054 607.21 146.054 605.291 144.391 605.291 137.675L605.291 127.378C605.291 120.917 609.832 120.662 611.047 120.662 613.446 120.438 617.284 121.366 618.722 123.284L618.722 118.487C617.059 118.007 614.182 117.304 611.047 117.528 604.587 117.528 601.454 121.366 601.454 127.601L601.454 137.675C601.454 146.054 604.555 149.412 611.047 149.412 614.885 149.412 617.987 148.453 620.385 147.013L620.385 132.175 615.333 132.175Z" fill="#004898" fill-rule="evenodd" fill-opacity="1" transform="matrix(1.01077 0 0 1 -973.943 240.037)"/><path d="M558.792 117.559C552.332 117.559 549.197 121.397 549.197 127.633L549.197 137.707C549.197 146.086 552.3 149.444 558.792 149.444 565.283 149.444 568.386 146.086 568.386 137.707L568.386 127.633C568.386 121.397 565.251 117.336 558.792 117.559ZM558.792 145.83C555.21 145.83 553.291 144.167 553.291 137.451L553.291 127.154C553.291 120.694 557.608 120.694 558.792 120.694 559.975 120.694 564.292 120.917 564.292 127.154L564.292 137.451C564.292 144.167 562.373 145.83 558.792 145.83Z" fill="#004898" fill-rule="evenodd" fill-opacity="1" transform="matrix(1.01077 0 0 1 -973.943 240.037)"/><path d="M744.214 118.04 740.377 118.04 739.414 118.04 739.414 118.263C740.377 118.743 740.377 120.886 740.377 120.886L740.377 146.054C740.377 146.054 740.377 148.197 739.414 148.676L739.414 148.9 745.394 148.9 745.394 148.708C744.692 148.484 744.438 147.045 744.438 146.566L744.438 120.47C744.438 119.766 744.663 118.551 745.394 118.327L745.394 118.103 744.214 118.103 744.214 118.04Z" fill="#004898" fill-rule="evenodd" fill-opacity="1" transform="matrix(1.01077 0 0 1 -973.943 240.037)"/><path d="M790.203 118.04 773.188 118.04C772.711 118.04 772.486 118.04 772.001 117.815L770.821 122.836C771.777 121.653 772.74 121.653 773.92 121.397L779.198 121.397 779.198 145.83C779.198 145.83 779.198 147.973 778.242 148.453L778.242 148.676 784.222 148.676 784.222 148.453C783.52 148.229 783.259 146.79 783.259 146.054L783.259 121.366 789.015 121.366C789.725 121.366 790.456 121.589 790.68 122.804L791.643 117.783C791.158 118.04 790.68 118.04 790.203 118.04Z" fill="#004898" fill-rule="evenodd" fill-opacity="1" transform="matrix(1.01077 0 0 1 -973.943 240.037)"/><path d="M753.554 125.235C753.554 121.877 755.95 120.694 758.346 120.694 758.832 120.694 759.534 120.694 759.534 120.694L759.534 120.694C761.192 120.694 764.812 121.397 765.992 123.092L765.768 118.295C764.327 117.815 760.967 117.336 759.309 117.336L759.309 117.815 759.309 117.336C759.085 117.336 758.607 117.336 758.346 117.336 753.329 117.336 749.492 120.214 749.492 125.715 749.492 134.829 763.625 134.093 763.625 140.809 763.625 144.167 761.228 145.607 758.346 145.607L756.428 145.607C754.031 145.607 751.411 144.646 749.492 142.728L750.448 148.004C752.113 148.708 755.726 149.188 757.869 149.188 762.669 149.412 767.686 147.045 767.686 140.809 767.911 130.991 753.554 131.95 753.554 125.235Z" fill="#004898" fill-rule="evenodd" fill-opacity="1" transform="matrix(1.01077 0 0 1 -973.943 240.037)"/><path d="M734.397 118.04 716.902 118.04 716.678 118.04C716.199 118.04 715.974 118.04 715.495 117.815L714.311 122.836C715.271 121.653 716.454 121.653 717.894 121.653L722.69 121.653 722.69 146.342C722.69 146.821 722.467 148.484 721.731 148.74L721.731 148.964 727.714 148.964 727.714 148.708C726.751 148.229 726.751 146.79 726.751 146.31L726.751 121.397 731.776 121.397C732.731 121.397 733.919 121.397 734.397 122.836L735.352 117.815C734.874 118.04 734.621 118.04 734.397 118.04Z" fill="#004898" fill-rule="evenodd" fill-opacity="1" transform="matrix(1.01077 0 0 1 -973.943 240.037)"/><path d="M654.381 132.654 654.381 132.654C658.218 131.471 659.657 129.073 659.657 125.235 659.657 124.755 659.434 122.836 658.474 121.173 657.291 119.511 655.852 118.071 651.759 118.071L641.94 118.071 640.981 118.071 640.981 118.295C641.685 118.519 641.94 119.958 641.94 120.694L641.94 146.342C641.94 146.821 641.717 148.261 640.981 148.74L640.981 148.964 646.961 148.964 651.759 148.964C655.116 148.964 660.873 148.261 660.873 140.329 660.617 135.788 658.922 133.134 654.381 132.654ZM645.746 121.397 651.247 121.397C654.605 121.397 656.044 123.54 656.044 125.938 656.044 128.816 654.605 130.736 651.502 130.736L645.746 130.736 645.746 121.397ZM651.023 145.127 645.522 145.127 645.522 134.349 649.584 134.349C653.645 134.349 656.523 135.308 656.523 140.106 656.779 142.249 655.34 145.127 651.023 145.127Z" fill="#004898" fill-rule="evenodd" fill-opacity="1" transform="matrix(1.01077 0 0 1 -973.943 240.037)"/><path d="M702.991 118.04 693.877 118.04 692.437 118.04 692.437 118.263C693.62 118.967 693.877 120.662 693.877 122.325L693.877 123.763 693.877 123.988 693.877 146.022C693.877 146.501 693.653 147.941 692.917 148.421L692.917 148.644 698.897 148.644 698.897 148.421C697.938 147.941 697.938 145.798 697.938 145.798L697.938 135.021 702.959 135.021C706.061 135.021 711.594 133.582 711.594 126.642 711.625 119.478 707.084 118.04 702.991 118.04ZM702.287 131.695 697.97 131.695 697.97 121.397 703.247 121.397C704.206 121.397 707.564 121.877 707.564 126.418 707.564 131.215 703.727 131.695 702.287 131.695Z" fill="#004898" fill-rule="evenodd" fill-opacity="1" transform="matrix(1.01077 0 0 1 -973.943 240.037)"/><path d="M686.489 142.504 686.489 142.504 678.59 118.071 673.569 118.071 672.13 118.071 672.13 118.295C673.089 118.775 673.089 119.478 672.833 120.438L672.61 121.397C672.61 121.621 672.385 122.1 672.385 122.357L664.966 145.35C664.486 146.534 663.783 147.749 662.823 148.453L662.823 148.676 669.539 148.676 669.539 148.453C668.58 147.973 668.356 147.493 668.58 146.79L670.979 138.634 681.276 138.634 683.675 146.534C683.898 147.493 683.675 147.717 682.715 148.453L682.715 148.676 689.655 148.676 689.655 148.453C688.696 147.749 687.992 146.534 687.513 145.35L686.489 142.504ZM671.874 135.308 675.935 121.653 679.997 135.308 671.874 135.308Z" fill="#004898" fill-rule="evenodd" fill-opacity="1" transform="matrix(1.01077 0 0 1 -973.943 240.037)"/><path d="M868.554 118.04 864.717 118.04 863.754 118.04 863.754 118.263C864.456 118.487 864.717 119.703 864.717 120.406L864.717 146.501C864.717 147.205 864.492 148.164 863.754 148.644L863.754 148.868 869.734 148.868 869.734 148.708C869.032 148.484 868.778 147.045 868.778 146.566L868.778 120.694C868.778 120.214 869.003 118.551 869.734 118.295L869.734 118.071 868.554 118.071 868.554 118.04Z" fill="#004898" fill-rule="evenodd" fill-opacity="1" transform="matrix(1.01077 0 0 1 -973.943 240.037)"/><path d="M891.548 118.04 891.548 118.04C892.026 118.263 892.026 118.743 892.026 118.999L885.09 144.391 878.147 118.04 873.832 118.04 873.122 118.04 873.122 118.263C873.832 118.967 874.31 119.926 874.563 120.886L875.265 123.028C875.265 123.508 875.49 123.732 875.49 124.212L880.514 141.705C882.18 147.205 883.874 148.421 886.748 149.124L888.891 141.705 895.834 118.231 892.475 118.231 891.548 118.04Z" fill="#004898" fill-rule="evenodd" fill-opacity="1" transform="matrix(1.01077 0 0 1 -973.943 240.037)"/><path d="M913.326 145.127 912.848 145.127 912.624 145.127 905.203 145.127 905.203 134.573 914.796 134.573C915.273 134.573 915.983 134.797 916.236 135.533L916.236 130.991C915.759 131.215 915.273 131.215 914.796 131.215L913.13 131.215 905.232 131.215 905.232 121.397 915.31 121.397C915.788 121.397 916.265 121.621 916.968 122.58L916.968 117.783C916.75 118.007 916.49 118.007 916.265 118.007L915.563 118.007 901.431 118.007 900.468 118.007 900.468 118.231C901.17 118.455 901.431 119.894 901.431 120.374L901.431 146.246C901.431 146.95 901.206 148.164 900.468 148.389L900.468 148.613 906.448 148.613 916.265 148.613 916.968 148.613 918.408 143.112C916.461 144.646 915.02 145.127 913.326 145.127Z" fill="#004898" fill-rule="evenodd" fill-opacity="1" transform="matrix(1.01077 0 0 1 -973.943 240.037)"/><path d="M973.222 118.04 969.385 118.04 968.43 118.04 968.43 118.263C969.132 118.487 969.385 119.703 969.385 120.406L969.385 146.501C969.385 147.205 969.161 148.164 968.43 148.644L968.43 148.868 974.41 148.868 974.41 148.708C973.7 148.484 973.447 147.045 973.447 146.566L973.447 120.47C973.447 119.766 973.671 118.551 974.41 118.327L974.41 118.103 973.222 118.103 973.222 118.04Z" fill="#004898" fill-rule="evenodd" fill-opacity="1" transform="matrix(1.01077 0 0 1 -973.943 240.037)"/><path d="M1019.95 118.04 1019.95 118.04 1017.81 118.04 1017.81 118.263C1019.25 119.223 1018.99 120.662 1018.51 121.621L1013.71 132.878 1008.92 121.366 1007.95 119.223C1007.47 118.263 1006.03 118.263 1005.08 118.263L1002.2 118.263C1003.64 119.223 1003.86 120.182 1004.82 121.845L1011.54 136.94 1011.54 146.278C1011.54 146.981 1011.31 148.197 1010.57 148.421L1010.57 148.644 1011.54 148.644 1015.37 148.644 1016.34 148.644 1016.34 148.421C1015.63 148.197 1015.37 146.981 1015.37 146.278L1015.37 136.94 1021.83 122.1 1023.5 118.263 1019.91 118.263 1019.91 118.04Z" fill="#004898" fill-rule="evenodd" fill-opacity="1" transform="matrix(1.01077 0 0 1 -973.943 240.037)"/><path d="M998.135 118.04 980.897 118.04 980.419 118.04C979.941 118.04 979.717 117.815 979.239 117.815L978.052 122.836C979.014 121.653 980.195 121.653 981.635 121.653L986.435 121.653 986.435 146.086C986.435 146.086 986.435 148.229 985.473 148.708L985.473 148.932 991.453 148.932 991.453 148.708C990.75 148.484 990.497 147.045 990.497 146.566L990.497 121.397 995.514 121.397C996.477 121.397 997.657 121.173 998.135 122.836L998.36 121.397 998.36 121.173 999.062 117.815C998.874 118.04 998.613 118.04 998.135 118.04Z" fill="#004898" fill-rule="evenodd" fill-opacity="1" transform="matrix(1.01077 0 0 1 -973.943 240.037)"/><path d="M949.975 125.491C949.975 122.133 952.371 120.949 954.775 120.949 955.253 120.949 955.955 120.949 955.955 120.949L955.955 120.949C957.62 120.949 961.233 121.653 962.413 123.348L962.189 118.551C960.755 118.071 957.396 117.591 955.731 117.591L955.731 118.071 955.731 117.591C955.506 117.591 955.028 117.591 954.775 117.591 949.75 117.591 945.913 120.47 945.913 125.97 945.913 135.085 960.046 134.349 960.046 141.065 960.046 144.423 957.649 145.862 954.775 145.862L952.849 145.862C950.453 145.862 947.832 144.903 945.913 142.984L946.869 148.261C948.795 148.964 952.849 149.444 954.775 149.444 959.568 149.22 963.883 147.045 963.883 141.065 964.107 131.215 949.975 132.175 949.975 125.491Z" fill="#004898" fill-rule="evenodd" fill-opacity="1" transform="matrix(1.01077 0 0 1 -973.943 240.037)"/><path d="M857.52 118.04 854.161 118.04 853.205 118.04 853.205 118.263C853.907 118.487 854.161 120.182 854.161 120.662L854.161 143.912 842.171 118.263 836.669 118.263 835.004 118.263 835.004 118.487C836.191 119.446 836.444 120.406 836.669 121.845L836.669 146.534C836.669 147.237 836.444 148.453 835.706 148.676L835.706 148.9 836.669 148.9 840.028 148.9 840.984 148.9 840.984 148.708C840.282 148.484 840.028 147.27 840.028 146.566L840.028 122.133C840.028 122.133 844.821 132.91 849.846 143.464 852.72 149.22 857.267 148.964 857.267 148.964L857.267 120.214C857.267 119.511 857.491 118.295 858.222 118.071L858.222 117.848 857.52 118.04Z" fill="#004898" fill-rule="evenodd" fill-opacity="1" transform="matrix(1.01077 0 0 1 -973.943 240.037)"/><path d="M829.501 118.04 825.664 118.04 824.708 118.04 824.708 118.263C825.411 118.487 825.664 119.703 825.664 120.406L825.664 137.643C825.664 144.359 823.745 146.022 819.908 146.022 816.332 146.022 814.152 144.359 814.152 137.643L814.152 120.63C814.152 119.926 814.377 118.711 815.115 118.231L815.115 118.007 814.152 118.007 810.315 118.007 809.36 118.007 809.36 118.231C810.315 118.711 810.315 120.854 810.315 120.854L810.315 137.388C810.315 145.766 813.421 149.124 819.908 149.124 826.374 149.124 829.501 145.766 829.501 137.388L829.501 120.854C829.501 120.854 829.501 118.711 830.464 118.231L830.464 118.007 829.501 118.007 829.501 118.04Z" fill="#004898" fill-rule="evenodd" fill-opacity="1" transform="matrix(1.01077 0 0 1 -973.943 240.037)"/><path d="M940.157 145.127 934.402 134.573C938.463 133.613 940.635 129.776 940.635 126.418 940.635 122.58 938.014 118.263 932.483 118.263L927.943 118.263 923.882 118.263 923.172 118.263 922.217 118.263 922.217 118.487C923.172 118.967 923.172 120.406 923.172 120.886L923.172 146.054C923.172 146.054 923.172 148.197 922.217 148.676L922.217 148.9 928.197 148.9 928.197 148.708C927.234 148.229 927.234 146.086 927.234 146.086L927.234 134.829 930.34 134.829 936.798 147.045C937.5 148.708 939.194 148.708 940.86 148.708L943.741 148.708 943.741 148.484C941.852 147.27 941.113 146.79 940.157 145.127ZM926.981 131.215 926.981 121.621 931.781 121.621C935.357 121.621 936.798 124.243 936.798 126.418 936.798 128.816 935.357 131.215 931.781 131.215L926.981 131.215Z" fill="#004898" fill-rule="evenodd" fill-opacity="1" transform="matrix(1.01077 0 0 1 -973.943 240.037)"/><path d="M329.045 136.971C329.045 136.971 307.011 128.593 279.444 132.654L279.444 55.9975C300.295 49.7613 318.267 58.1402 318.267 58.1402L318.267 44.7404C318.267 44.7404 293.355 33.9631 265.34 47.8425L265.34 62.4575 265.34 149.188C296.01 138.155 325.719 150.371 325.719 150.371 368.125 166.905 391.119 158.271 391.119 158.271L391.119 138.634C391.343 138.666 371.931 150.883 329.045 136.971Z" fill="#004898" fill-rule="evenodd" fill-opacity="1" transform="matrix(1.01077 0 0 1 -973.943 240.037)"/><path d="M377.208 132.43 377.208 30.6051C377.208 30.6051 348.458 17.6531 318.267 30.829L318.267 44.7084C334.322 36.3296 351.559 37.5129 363.296 39.9114L363.296 115.129C353.222 113.466 338.608 112.73 324.248 117.272L324.248 54.0787C326.871 53.1192 330.484 51.936 333.842 50.7208 335.985 50.0172 342.701 48.3222 342.957 55.262 342.957 58.6199 342.957 60.2828 342.957 64.8561 342.957 66.0393 342.477 66.9987 341.294 67.4784 340.334 67.9581 337.232 68.4378 337.232 68.4378L337.232 74.4178C337.232 74.4178 337.456 74.4178 340.334 73.9385 342.253 73.7148 342.733 74.8978 342.733 76.8164 342.733 81.1343 342.733 89.7688 342.733 89.7688 342.733 89.7688 342.733 91.4318 341.774 92.6467 340.814 93.8304 336.976 93.8304 336.976 93.8304L336.976 99.5869C336.976 99.5869 341.517 99.3625 343.692 98.4032 344.396 98.1795 347.05 96.9646 347.754 94.8215 348.713 91.9437 348.713 79.9825 348.233 74.4504 348.009 70.8683 344.651 70.1328 344.651 70.1328 344.651 70.1328 348.233 68.4698 348.233 64.6321L348.233 52.6396C348.233 44.4846 340.558 41.8622 333.395 44.0049 325.975 45.6678 317.82 49.2816 317.82 49.2816L317.82 133.358C344.14 118.295 377.208 132.43 377.208 132.43Z" fill="#004898" fill-rule="evenodd" fill-opacity="1" transform="matrix(1.01077 0 0 1 -973.943 240.037)"/><path d="M329.045 56.733 329.045 105.375 329.045 111.132C329.045 111.132 330.708 110.652 333.842 110.172 338.863 109.212 348.201 108.509 358.531 109.693L358.531 104.895 358.531 44.0369C358.531 44.0369 355.429 43.0774 352.55 43.3333L352.55 103.712C345.132 103.489 339.151 103.936 334.833 104.416L334.833 54.8142C335.058 54.8142 331.7 55.2939 329.045 56.733Z" fill="#004898" fill-rule="evenodd" fill-opacity="1" transform="matrix(1.01077 0 0 1 -973.943 240.037)"/><path d="M1293.93 46.4354 1300.83 46.4354 1300.83 53.3432 1293.93 53.3432Z" fill="#1B75BB" fill-rule="nonzero" fill-opacity="1" transform="matrix(1.01077 0 0 1 -973.943 240.037)"/><path d="M1303.03 36.0098 1312.44 36.0098 1312.44 45.412 1303.03 45.412Z" fill="#1B75BB" fill-rule="nonzero" fill-opacity="1" transform="matrix(1.01077 0 0 1 -973.943 240.037)"/><path d="M1267.86 144.551 1267.86 136.524C1267.86 136.524 1267.25 132.302 1262.39 132.079L1219.66 132.494 1197.28 132.494C1189.38 132.494 1183.62 131.311 1180.01 128.913 1176.39 126.514 1174.6 123.668 1174.6 120.342L1174.6 65.3038C1174.6 61.8819 1176.39 59.0036 1180.01 56.6371 1183.59 54.3025 1189.34 53.1192 1197.28 53.1192L1217.27 53.0873C1221.65 42.5978 1233.07 36.6814 1254.49 36.0098L1196.74 36.2657C1170.13 36.2657 1156.82 45.9237 1156.82 65.2718L1156.82 120.31C1156.82 139.658 1170.13 149.316 1196.74 149.316L1219.66 149.316 1262.36 149.444C1264.98 149.476 1267.89 146.501 1267.86 144.551Z" fill="#1B75BB" fill-rule="nonzero" fill-opacity="1" transform="matrix(1.01077 0 0 1 -973.943 240.037)"/><path d="M1297.6 83.3404 1260.79 83.3404C1251.64 83.3404 1245.19 82.1573 1241.38 79.7587 1237.58 77.3601 1235.69 74.5141 1235.69 71.1881L1235.69 65.1119C1235.69 61.69 1237.58 58.8117 1241.38 56.4452 1245.19 54.1107 1247.74 53.3112 1260.56 53.3112L1276.78 53.3112C1279.28 53.3112 1280.97 52.2238 1281.74 50.8167 1282.51 49.4095 1282.92 47.2988 1282.92 44.5166 1282.92 41.7023 1282.54 39.5916 1281.74 38.2164 1280.97 36.8093 1279.31 36.0418 1276.81 36.0418L1261.43 36.0418C1259 36.0098 1256.67 36.0098 1254.46 36.0737 1233 36.7134 1221.58 42.6617 1217.23 53.1512 1215.79 56.6371 1215.09 60.6346 1215.09 65.1439L1215.09 71.2201C1215.09 90.5681 1230.47 100.226 1261.24 100.226L1298.05 100.226C1307.2 100.226 1313.65 101.409 1317.46 103.808 1321.26 106.206 1323.15 109.052 1323.15 112.379L1323.15 120.182C1323.15 123.604 1321.26 126.482 1317.46 128.849 1313.65 131.183 1307.2 132.367 1298.05 132.367L1263.03 132.142 1262.65 132.142 1262.36 132.142C1262.39 132.142 1262.39 132.142 1262.39 132.142 1267.25 132.367 1267.86 136.588 1267.86 136.588L1267.86 144.615C1267.89 146.598 1264.98 149.54 1262.36 149.572 1262.36 149.572 1262.36 149.572 1262.32 149.572L1262.42 149.572 1263.03 149.572 1297.28 149.156C1328.33 149.22 1343.71 139.562 1343.71 120.214L1343.71 112.41C1343.75 92.9985 1328.37 83.3404 1297.6 83.3404Z" fill="#FAAF40" fill-rule="nonzero" fill-opacity="1" transform="matrix(1.01077 0 0 1 -973.943 240.037)"/><path d="M1391.56 103.456C1389.29 103.936 1386.92 104.192 1384.46 104.192 1377.36 104.192 1373.81 101.889 1373.81 97.3157L1373.81 85.2915C1373.81 80.4625 1377.36 78.032 1384.46 78.032 1386.82 78.032 1389.12 78.2876 1391.4 78.7676L1391.4 81.5818C1388.91 80.9425 1386.6 80.6543 1384.52 80.6543 1383.53 80.6543 1382.67 80.718 1381.9 80.8143 1381.13 80.9425 1380.4 81.1343 1379.66 81.4218 1378.92 81.7099 1378.38 82.1892 1378 82.8292 1377.61 83.4685 1377.42 84.2678 1377.42 85.2278L1377.42 97.092C1377.42 100.002 1379.86 101.474 1384.69 101.474 1386.76 101.474 1389.07 101.154 1391.56 100.546L1391.56 103.456Z" fill="#1B75BB" fill-rule="nonzero" fill-opacity="1" transform="matrix(1.01077 0 0 1 -973.943 240.037)"/><path d="M1417.21 85.2915 1417.21 97.3157C1417.21 98.6913 1416.89 99.8743 1416.22 100.834 1415.54 101.793 1414.65 102.497 1413.49 102.945 1412.34 103.392 1411.23 103.712 1410.11 103.904 1408.99 104.096 1407.77 104.192 1406.49 104.192 1399.43 104.192 1395.88 101.889 1395.88 97.3157L1395.88 85.3234C1395.88 80.4943 1399.43 78.0639 1406.49 78.0639 1413.65 78.0639 1417.21 80.4943 1417.21 85.2915ZM1413.56 97.2839 1413.56 85.2278C1413.56 82.0936 1411.23 80.558 1406.52 80.558 1405.53 80.558 1404.67 80.6225 1403.9 80.7499 1403.13 80.878 1402.43 81.1018 1401.73 81.4218 1401.03 81.7418 1400.48 82.2211 1400.1 82.8611 1399.72 83.5004 1399.52 84.3004 1399.52 85.2597L1399.52 97.3157C1399.52 100.226 1401.89 101.697 1406.59 101.697 1411.23 101.634 1413.56 100.194 1413.56 97.2839Z" fill="#1B75BB" fill-rule="nonzero" fill-opacity="1" transform="matrix(1.01077 0 0 1 -973.943 240.037)"/><path d="M1450.11 103.776 1446.79 103.776 1446.79 82.3492 1446.6 82.3492 1438.44 103.776 1435.05 103.776 1426.67 82.3492 1426.48 82.3492 1426.48 103.776 1423.09 103.776 1423.09 78.4476 1428.75 78.4476 1436.87 99.5225 1437 99.5543 1444.68 78.4476 1450.14 78.4476 1450.14 103.776Z" fill="#1B75BB" fill-rule="nonzero" fill-opacity="1" transform="matrix(1.01077 0 0 1 -973.943 240.037)"/><path d="M1473.88 83.4685 1473.88 88.745C1473.88 90.9199 1473.04 92.4229 1471.35 93.3185 1469.68 94.2141 1467.29 94.6616 1464.22 94.6616L1460.45 94.6616 1460.45 103.776 1456.67 103.776 1456.67 78.4476 1464.96 78.4476C1466.01 78.4476 1466.9 78.4794 1467.64 78.5113 1468.41 78.5757 1469.21 78.7031 1470.04 78.8957 1470.87 79.0876 1471.57 79.375 1472.05 79.7269 1472.57 80.0787 1472.98 80.558 1473.33 81.198 1473.68 81.8373 1473.88 82.5729 1473.88 83.4685ZM1470.17 88.5213 1470.17 83.9159C1470.17 83.2129 1469.97 82.6374 1469.62 82.1892 1469.27 81.7418 1468.73 81.4218 1468.05 81.2299 1467.38 81.038 1466.81 80.9425 1466.36 80.9099 1465.91 80.878 1465.34 80.8462 1464.67 80.8462L1460.41 80.8462 1460.41 92.2948 1464.73 92.2948C1466.23 92.2948 1467.51 92.0074 1468.57 91.4636 1469.65 90.8881 1470.17 89.9288 1470.17 88.5213Z" fill="#1B75BB" fill-rule="nonzero" fill-opacity="1" transform="matrix(1.01077 0 0 1 -973.943 240.037)"/><path d="M1498.69 78.4794 1498.69 97.3157C1498.69 101.889 1495.4 104.192 1488.78 104.192 1487.47 104.192 1486.29 104.096 1485.23 103.936 1484.17 103.776 1483.15 103.456 1482.16 103.009 1481.14 102.561 1480.33 101.857 1479.79 100.898 1479.22 99.9381 1478.93 98.755 1478.93 97.3483L1478.93 78.5113 1482.54 78.5113 1482.54 97.3157C1482.54 98.9788 1483.08 100.13 1484.21 100.738 1485.32 101.377 1486.86 101.666 1488.84 101.666 1490.82 101.666 1492.36 101.346 1493.42 100.738 1494.5 100.098 1495.05 98.9788 1495.05 97.3157L1495.05 78.5113 1498.69 78.5113Z" fill="#1B75BB" fill-rule="nonzero" fill-opacity="1" transform="matrix(1.01077 0 0 1 -973.943 240.037)"/><path d="M1523.89 81.1343 1515.35 81.1343 1515.35 103.808 1511.52 103.808 1511.52 81.1343 1502.94 81.1343 1502.94 78.4794 1523.89 78.4794 1523.89 81.1343Z" fill="#1B75BB" fill-rule="nonzero" fill-opacity="1" transform="matrix(1.01077 0 0 1 -973.943 240.037)"/><path d="M1545.51 103.776 1528.12 103.776 1528.12 78.4476 1545.12 78.4476 1545.12 81.1018 1531.89 81.1018 1531.89 89.385 1543.81 89.385 1543.81 92.0392 1531.89 92.0392 1531.89 101.122 1545.51 101.122 1545.51 103.776Z" fill="#1B75BB" fill-rule="nonzero" fill-opacity="1" transform="matrix(1.01077 0 0 1 -973.943 240.037)"/><path d="M1570.07 103.776 1565.43 103.776 1558.18 92.9667 1554.5 92.9667 1554.5 103.776 1550.72 103.776 1550.72 78.4476 1559.61 78.4476C1562.78 78.4476 1565.05 78.7676 1566.42 79.4069 1567.8 80.0469 1568.5 81.3899 1568.5 83.4048L1568.5 87.7857C1568.5 89.3532 1567.87 90.5362 1566.58 91.3036 1565.31 92.1029 1563.77 92.4867 1561.95 92.4867L1570.07 103.776ZM1564.73 87.3383 1564.73 83.8204C1564.73 81.9336 1563.1 80.9743 1559.81 80.9743L1554.5 80.9743 1554.5 90.5043 1559.45 90.5043C1561.25 90.5043 1562.59 90.2806 1563.42 89.8325 1564.32 89.385 1564.73 88.5532 1564.73 87.3383Z" fill="#1B75BB" fill-rule="nonzero" fill-opacity="1" transform="matrix(1.01077 0 0 1 -973.943 240.037)"/><path d="M1600.36 95.2053 1600.36 97.0283C1600.36 99.7462 1599.59 101.601 1598.06 102.625 1596.52 103.648 1594.12 104.16 1590.89 104.16 1588.81 104.16 1586.23 103.936 1583.15 103.52L1583.15 100.354C1586.23 100.994 1588.88 101.314 1591.11 101.314 1592.91 101.314 1594.28 101.122 1595.24 100.706 1596.2 100.29 1596.68 99.4906 1596.68 98.2758L1596.68 94.9816C1596.68 93.926 1596.36 93.1585 1595.75 92.7111 1595.15 92.2629 1594.06 92.0392 1592.46 92.0392L1589.48 92.0392C1586.93 92.0392 1585.17 91.5274 1584.14 90.5043 1583.15 89.4806 1582.64 87.9776 1582.64 85.9627L1582.64 83.9485C1582.64 81.9336 1583.34 80.4625 1584.75 79.5032 1586.16 78.5439 1588.78 78.0639 1592.59 78.0639 1594.41 78.0639 1596.59 78.2239 1599.11 78.4794L1599.11 81.3262C1596.23 80.878 1593.96 80.6543 1592.33 80.6543 1589.9 80.6543 1588.3 80.9099 1587.5 81.3899 1586.7 81.8692 1586.32 82.6692 1586.32 83.8204L1586.32 86.6983C1586.32 87.5939 1586.64 88.2339 1587.25 88.6176 1587.85 89.0332 1588.97 89.225 1590.57 89.225L1593.61 89.225C1596.23 89.225 1598.02 89.705 1598.95 90.6643 1599.91 91.6555 1600.36 93.1585 1600.36 95.2053Z" fill="#1B75BB" fill-rule="nonzero" fill-opacity="1" transform="matrix(1.01077 0 0 1 -973.943 240.037)"/><path d="M1622.74 103.456C1620.47 103.936 1618.1 104.192 1615.64 104.192 1608.55 104.192 1604.99 101.889 1604.99 97.3157L1604.99 85.2915C1604.99 80.4625 1608.55 78.032 1615.64 78.032 1618.01 78.032 1620.31 78.2876 1622.59 78.7676L1622.59 81.5818C1620.09 80.9425 1617.79 80.6543 1615.71 80.6543 1614.72 80.6543 1613.85 80.718 1613.09 80.8143 1612.32 80.9425 1611.58 81.1343 1610.85 81.4218 1610.11 81.7099 1609.57 82.1892 1609.18 82.8292 1608.8 83.4685 1608.61 84.2678 1608.61 85.2278L1608.61 97.092C1608.61 100.002 1611.04 101.474 1615.87 101.474 1617.94 101.474 1620.25 101.154 1622.74 100.546L1622.74 103.456Z" fill="#1B75BB" fill-rule="nonzero" fill-opacity="1" transform="matrix(1.01077 0 0 1 -973.943 240.037)"/><path d="M1631.57 103.776 1627.8 103.776 1627.8 78.4476 1631.57 78.4476 1631.57 103.776Z" fill="#1B75BB" fill-rule="nonzero" fill-opacity="1" transform="matrix(1.01077 0 0 1 -973.943 240.037)"/><path d="M1655.52 103.776 1638.13 103.776 1638.13 78.4476 1655.14 78.4476 1655.14 81.1018 1641.9 81.1018 1641.9 89.385 1653.83 89.385 1653.83 92.0392 1641.9 92.0392 1641.9 101.122 1655.52 101.122 1655.52 103.776Z" fill="#1B75BB" fill-rule="nonzero" fill-opacity="1" transform="matrix(1.01077 0 0 1 -973.943 240.037)"/><path d="M1682.42 103.776 1677.85 103.776 1664.06 82.5092 1664.06 103.776 1660.73 103.776 1660.73 78.4476 1665.31 78.4476 1679.09 99.3625 1679.09 78.4476 1682.42 78.4476 1682.42 103.776Z" fill="#1B75BB" fill-rule="nonzero" fill-opacity="1" transform="matrix(1.01077 0 0 1 -973.943 240.037)"/><path d="M1705.95 103.456C1703.69 103.936 1701.32 104.192 1698.86 104.192 1691.76 104.192 1688.21 101.889 1688.21 97.3157L1688.21 85.2915C1688.21 80.4625 1691.76 78.032 1698.86 78.032 1701.23 78.032 1703.53 78.2876 1705.79 78.7676L1705.79 81.5818C1703.3 80.9425 1701 80.6543 1698.92 80.6543 1697.93 80.6543 1697.06 80.718 1696.3 80.8143 1695.53 80.9425 1694.8 81.1343 1694.06 81.4218 1693.33 81.7099 1692.78 82.1892 1692.39 82.8292 1692.01 83.4685 1691.82 84.2678 1691.82 85.2278L1691.82 97.092C1691.82 100.002 1694.25 101.474 1699.08 101.474 1701.16 101.474 1703.46 101.154 1705.95 100.546L1705.95 103.456Z" fill="#1B75BB" fill-rule="nonzero" fill-opacity="1" transform="matrix(1.01077 0 0 1 -973.943 240.037)"/><path d="M1728.38 103.776 1710.98 103.776 1710.98 78.4476 1727.99 78.4476 1727.99 81.1018 1714.75 81.1018 1714.75 89.385 1726.68 89.385 1726.68 92.0392 1714.75 92.0392 1714.75 101.122 1728.38 101.122 1728.38 103.776Z" fill="#1B75BB" fill-rule="nonzero" fill-opacity="1" transform="matrix(1.01077 0 0 1 -973.943 240.037)"/><path d="M1392.8 45.5719 1392.8 55.166C1392.8 59.0995 1389.77 61.0504 1383.72 61.0504L1375.06 61.0504 1375.06 39.3358 1383.69 39.3358C1389.77 39.3677 1392.8 41.4145 1392.8 45.5719ZM1389.67 55.102 1389.67 45.54C1389.67 44.7084 1389.51 44.0369 1389.16 43.4932 1388.84 42.9496 1388.36 42.5338 1387.76 42.278 1387.15 42.0221 1386.5 41.8302 1385.87 41.7343 1385.23 41.6383 1384.46 41.5744 1383.63 41.5744L1378.29 41.5744 1378.29 58.8438 1383.47 58.8438C1387.63 58.8438 1389.67 57.5965 1389.67 55.102Z" fill="#6D6E70" fill-rule="nonzero" fill-opacity="1" transform="matrix(1.01077 0 0 1 -973.943 240.037)"/><path d="M1412.67 61.0504 1397.76 61.0504 1397.76 39.3358 1412.34 39.3358 1412.34 41.6063 1400.99 41.6063 1400.99 48.706 1411.23 48.706 1411.23 50.9765 1400.99 50.9765 1400.99 58.7797 1412.67 58.7797 1412.67 61.0504Z" fill="#6D6E70" fill-rule="nonzero" fill-opacity="1" transform="matrix(1.01077 0 0 1 -973.943 240.037)"/><path d="M1431.88 43.6211 1431.88 48.1304C1431.88 49.9852 1431.18 51.2964 1429.74 52.0639 1428.31 52.8314 1426.26 53.2152 1423.64 53.2152L1420.4 53.2152 1420.4 61.0504 1417.17 61.0504 1417.17 39.3358 1424.27 39.3358C1425.17 39.3358 1425.94 39.3677 1426.58 39.3997 1427.21 39.4317 1427.92 39.5596 1428.63 39.7195 1429.36 39.8794 1429.94 40.1352 1430.35 40.4231 1430.8 40.7109 1431.15 41.1267 1431.47 41.6703 1431.72 42.246 1431.88 42.8856 1431.88 43.6211ZM1428.72 47.9704 1428.72 44.0369C1428.72 43.4292 1428.56 42.9496 1428.24 42.5338 1427.92 42.15 1427.47 41.8622 1426.9 41.7023 1426.32 41.5424 1425.84 41.4465 1425.45 41.4145 1425.07 41.3825 1424.59 41.3505 1423.98 41.3505L1420.34 41.3505 1420.34 51.1365 1424.05 51.1365C1425.33 51.1365 1426.45 50.9126 1427.34 50.4329 1428.27 49.9852 1428.72 49.1537 1428.72 47.9704Z" fill="#6D6E70" fill-rule="nonzero" fill-opacity="1" transform="matrix(1.01077 0 0 1 -973.943 240.037)"/><path d="M1452.16 61.0504 1448.77 61.0504 1446.31 54.4625 1437 54.4625 1434.57 61.0504 1431.38 61.0504 1440.01 39.3358 1443.75 39.3358 1452.16 61.0504ZM1445.51 52.2238 1441.83 42.4378 1441.54 42.4378 1437.86 52.2238 1445.51 52.2238Z" fill="#6D6E70" fill-rule="nonzero" fill-opacity="1" transform="matrix(1.01077 0 0 1 -973.943 240.037)"/><path d="M1472.05 61.0504 1468.08 61.0504 1461.85 51.7761 1458.72 51.7761 1458.72 61.0504 1455.49 61.0504 1455.49 39.3358 1463.1 39.3358C1465.82 39.3358 1467.77 39.6236 1468.95 40.1672 1470.13 40.7109 1470.71 41.8622 1470.71 43.5891L1470.71 47.3308C1470.71 48.674 1470.17 49.6654 1469.08 50.369 1467.99 51.0406 1466.65 51.3923 1465.12 51.3923L1472.05 61.0504ZM1467.48 46.9471 1467.48 43.9409C1467.48 42.3099 1466.07 41.5104 1463.25 41.5104L1458.72 41.5104 1458.72 49.6654 1462.97 49.6654C1464.51 49.6654 1465.66 49.4735 1466.39 49.0897 1467.1 48.706 1467.48 48.0024 1467.48 46.9471Z" fill="#6D6E70" fill-rule="nonzero" fill-opacity="1" transform="matrix(1.01077 0 0 1 -973.943 240.037)"/><path d="M1491.88 41.6383 1484.55 41.6383 1484.55 61.0824 1481.3 61.0824 1481.3 41.6383 1473.94 41.6383 1473.94 39.3677 1491.91 39.3677 1491.91 41.6383Z" fill="#6D6E70" fill-rule="nonzero" fill-opacity="1" transform="matrix(1.01077 0 0 1 -973.943 240.037)"/><path d="M1518.68 61.0504 1515.83 61.0504 1515.83 42.6937 1515.67 42.6937 1508.67 61.0504 1505.76 61.0504 1498.56 42.6937 1498.4 42.6937 1498.4 61.0504 1495.49 61.0504 1495.49 39.3358 1500.35 39.3358 1507.32 57.4047 1507.43 57.4366 1514.01 39.3358 1518.68 39.3358 1518.68 61.0504Z" fill="#6D6E70" fill-rule="nonzero" fill-opacity="1" transform="matrix(1.01077 0 0 1 -973.943 240.037)"/><path d="M1539.21 61.0504 1524.31 61.0504 1524.31 39.3358 1538.89 39.3358 1538.89 41.6063 1527.54 41.6063 1527.54 48.706 1537.77 48.706 1537.77 50.9765 1527.54 50.9765 1527.54 58.7797 1539.21 58.7797 1539.21 61.0504Z" fill="#6D6E70" fill-rule="nonzero" fill-opacity="1" transform="matrix(1.01077 0 0 1 -973.943 240.037)"/><path d="M1562.24 61.0504 1558.34 61.0504 1546.54 42.8216 1546.54 61.0504 1543.69 61.0504 1543.69 39.3358 1547.59 39.3358 1559.39 57.2767 1559.39 39.3358 1562.24 39.3358 1562.24 61.0504Z" fill="#6D6E70" fill-rule="nonzero" fill-opacity="1" transform="matrix(1.01077 0 0 1 -973.943 240.037)"/><path d="M1583.82 41.6383 1576.5 41.6383 1576.5 61.0824 1573.24 61.0824 1573.24 41.6383 1565.88 41.6383 1565.88 39.3677 1583.86 39.3677 1583.86 41.6383Z" fill="#6D6E70" fill-rule="nonzero" fill-opacity="1" transform="matrix(1.01077 0 0 1 -973.943 240.037)"/><path d="M1612.8 45.2201 1612.8 55.5178C1612.8 56.7011 1612.51 57.6924 1611.94 58.524 1611.36 59.3554 1610.59 59.9631 1609.6 60.3468 1608.61 60.7306 1607.65 61.0184 1606.69 61.1783 1605.73 61.3382 1604.71 61.4021 1603.59 61.4021 1597.51 61.4021 1594.51 59.4513 1594.51 55.5178L1594.51 45.2521C1594.51 41.0947 1597.54 39.0159 1603.59 39.0159 1609.76 39.0159 1612.8 41.0947 1612.8 45.2201ZM1609.66 55.4858 1609.66 45.1562C1609.66 42.4698 1607.65 41.1267 1603.65 41.1267 1602.82 41.1267 1602.05 41.1906 1601.42 41.2865 1600.77 41.3825 1600.13 41.5744 1599.53 41.8622 1598.92 42.15 1598.47 42.5658 1598.12 43.1094 1597.8 43.6531 1597.61 44.3567 1597.61 45.1562L1597.61 55.4858C1597.61 57.9802 1599.62 59.2275 1603.65 59.2275 1607.68 59.2275 1609.66 57.9802 1609.66 55.4858Z" fill="#6D6E70" fill-rule="nonzero" fill-opacity="1" transform="matrix(1.01077 0 0 1 -973.943 240.037)"/><path d="M1632.75 41.6383 1621.08 41.6383 1621.08 48.7379 1631.64 48.7379 1631.64 51.0085 1621.08 51.0085 1621.08 61.0824 1617.85 61.0824 1617.85 39.3677 1632.75 39.3677 1632.75 41.6383Z" fill="#6D6E70" fill-rule="nonzero" fill-opacity="1" transform="matrix(1.01077 0 0 1 -973.943 240.037)"/><path d="M1375.51 145.542 1377.23 145.542 1377.23 143.623 1382.64 143.623 1382.64 145.287 1384.36 145.287 1384.36 135.628 1375.51 135.628 1375.51 145.542ZM1382.64 137.228 1382.64 141.929 1377.23 141.929 1377.23 137.228 1382.64 137.228Z" fill="#1B75BB" fill-rule="nonzero" fill-opacity="1" transform="matrix(1.01077 0 0 1 -973.943 240.037)"/><path d="M1393.38 118.807 1391.53 118.807 1391.53 128.337 1385.29 128.337 1385.29 130.096 1391.53 130.096 1391.53 146.086 1393.38 146.086 1393.38 130.096 1400.87 130.096 1400.87 128.337 1393.38 128.337Z" fill="#1B75BB" fill-rule="nonzero" fill-opacity="1" transform="matrix(1.01077 0 0 1 -973.943 240.037)"/><path d="M1374.93 127.538 1384.52 127.538 1384.52 129.168 1374.93 129.168Z" fill="#1B75BB" fill-rule="nonzero" fill-opacity="1" transform="matrix(1.01077 0 0 1 -973.943 240.037)"/><path d="M1374.93 131.631 1384.52 131.631 1384.52 133.23 1374.93 133.23Z" fill="#1B75BB" fill-rule="nonzero" fill-opacity="1" transform="matrix(1.01077 0 0 1 -973.943 240.037)"/><path d="M1386 123.572 1380.4 123.572 1381.42 122.836 1381.33 122.644C1380.59 121.269 1379.69 119.99 1378.67 118.871L1378.54 118.711 1377.11 119.638 1377.29 119.862C1378.29 121.046 1379.09 122.292 1379.69 123.572L1373.68 123.572 1373.68 125.203 1386.03 125.203 1386.03 123.572Z" fill="#1B75BB" fill-rule="nonzero" fill-opacity="1" transform="matrix(1.01077 0 0 1 -973.943 240.037)"/><path d="M1426.8 137.355 1431.09 137.355 1431.09 125.843 1430.28 125.843 1431.57 124.851 1431.38 124.659C1430.83 124.083 1430.23 123.54 1429.58 122.996L1435.08 122.996 1435.08 121.366 1425.78 121.366C1426.16 120.757 1426.51 120.118 1426.8 119.446L1426.9 119.191 1425.3 118.743 1425.2 118.934C1424.82 119.83 1424.21 120.789 1423.38 121.845 1422.58 122.869 1421.65 123.828 1420.6 124.627L1420.37 124.819 1421.59 125.843 1418.48 125.843 1419.76 124.883 1419.6 124.691C1419.13 124.115 1418.58 123.572 1418.04 123.028L1422.29 123.028 1422.29 121.397 1414.8 121.397C1415.16 120.789 1415.51 120.118 1415.8 119.478L1415.9 119.223 1414.3 118.775 1414.2 118.967C1413.75 120.086 1413.02 121.301 1412 122.58 1411.03 123.86 1409.88 125.011 1408.61 126.035L1408.38 126.226 1409.66 127.313 1409.82 127.186C1411.03 126.194 1412.22 124.979 1413.31 123.636 1413.47 123.444 1413.6 123.252 1413.72 123.06L1415.7 123.06C1416.67 123.955 1417.5 124.883 1418.23 125.81L1418.29 125.906 1413.05 125.906 1413.05 137.42 1417.33 137.42C1417.3 138.059 1417.24 138.666 1417.14 139.21L1408.95 139.21 1408.95 140.841 1416.6 140.841C1416.53 140.937 1416.51 141.001 1416.44 141.065 1415.9 141.8 1415.03 142.44 1413.85 142.984 1412.63 143.56 1411 144.039 1409.05 144.423L1408.73 144.487 1409.59 145.99 1409.76 145.958C1411.9 145.51 1413.65 144.935 1415.03 144.231 1416.4 143.623 1417.4 142.824 1418.04 141.929 1418.27 141.64 1418.45 141.257 1418.61 140.841L1425.17 140.841 1425.17 145.958 1426.9 145.958 1426.9 140.841 1435.63 140.841 1435.63 139.21 1426.9 139.21 1426.9 137.355ZM1421.84 125.81C1422.8 125.043 1423.7 124.115 1424.59 123.028L1427.16 123.028C1428.24 123.923 1429.23 124.851 1430.03 125.778L1430.1 125.843 1421.78 125.843 1421.84 125.81ZM1425.07 137.355 1425.07 139.146 1418.9 139.146C1418.97 138.634 1419.03 138.027 1419.06 137.355L1425.07 137.355ZM1429.36 134.029 1429.36 135.725 1414.78 135.725 1414.78 134.029 1429.36 134.029ZM1429.36 130.736 1429.36 132.399 1414.78 132.399 1414.78 130.736 1429.36 130.736ZM1429.36 127.473 1429.36 129.104 1414.78 129.104 1414.78 127.473 1429.36 127.473Z" fill="#1B75BB" fill-rule="nonzero" fill-opacity="1" transform="matrix(1.01077 0 0 1 -973.943 240.037)"/><path d="M1468.92 140.746C1468.82 142.152 1468.66 143.112 1468.47 143.592 1468.41 143.752 1468.28 143.912 1468.15 143.912 1467.7 143.912 1466.9 143.464 1465.5 141.353 1465.34 141.129 1465.18 140.873 1465.01 140.586 1466.11 139.562 1467.1 138.411 1467.96 137.131L1468.12 136.908 1466.68 136.076 1466.55 136.268C1465.88 137.26 1465.12 138.219 1464.28 139.05 1463.83 138.123 1463.45 137.1 1463.1 135.98L1470.55 135.98 1470.55 134.477 1467.9 134.477C1467.19 133.55 1466.39 132.718 1465.56 132.015 1466.55 131.887 1467.48 131.727 1468.31 131.503 1468.63 132.079 1468.92 132.718 1469.14 133.358L1469.23 133.645 1470.49 132.75 1470.42 132.559C1469.75 130.896 1468.89 129.36 1467.9 127.953L1467.77 127.761 1466.55 128.657 1466.72 128.849C1467 129.201 1467.29 129.616 1467.54 130.064 1466.72 130.287 1465.78 130.416 1464.76 130.512 1465.5 129.616 1466.2 128.624 1466.87 127.57 1467.87 126.035 1468.66 124.531 1469.21 123.092L1469.3 122.869 1467.83 122.26 1467.74 122.485C1467.38 123.316 1467 124.147 1466.52 125.011 1465.72 125.107 1464.89 125.203 1464.06 125.299 1464.51 124.691 1464.92 124.02 1465.3 123.316 1465.95 122.197 1466.45 121.077 1466.84 120.054L1466.9 119.83 1465.4 119.126 1465.3 119.383C1464.92 120.502 1464.41 121.621 1463.8 122.74 1463.29 123.668 1462.71 124.595 1462.05 125.426 1461.82 125.458 1461.56 125.458 1461.34 125.491L1461.21 125.491C1461.08 123.54 1461.02 121.397 1460.99 119.063L1460.99 118.807 1459.26 118.807 1459.26 119.063C1459.26 120.438 1459.29 121.749 1459.32 122.996L1458.11 122.485 1458.01 122.709C1457.69 123.476 1457.31 124.275 1456.89 125.043 1456.16 125.171 1455.39 125.299 1454.62 125.395 1455.01 124.819 1455.39 124.18 1455.78 123.444 1456.41 122.292 1456.89 121.206 1457.27 120.182L1457.34 119.958 1455.84 119.254 1455.74 119.511C1455.36 120.63 1454.88 121.749 1454.27 122.836 1453.76 123.763 1453.18 124.659 1452.58 125.555L1451.94 125.586 1451.94 124.563 1449.19 124.563 1449.19 118.775 1447.46 118.775 1447.46 124.563 1443.72 124.563 1443.72 126.194 1447.23 126.194C1446.98 128.145 1446.5 130.096 1445.89 131.982 1445.13 134.317 1444.26 136.268 1443.34 137.867L1443.24 138.059 1444.65 139.274 1444.81 139.018C1445.7 137.355 1446.44 135.628 1446.98 133.933 1447.17 133.422 1447.33 132.846 1447.49 132.27L1447.49 146.086 1449.22 146.086 1449.22 129.744C1449.93 131.056 1450.5 132.43 1450.91 133.87L1451.01 134.189 1452.58 133.102 1452.51 132.942C1452.45 132.782 1452.42 132.654 1452.35 132.494L1452.51 132.494C1454.72 132.43 1456.64 132.207 1458.17 131.759 1458.33 132.175 1458.49 132.622 1458.62 133.102L1458.69 133.358 1460.29 132.878 1460.22 132.654C1459.71 131.056 1459 129.584 1458.04 128.305L1457.92 128.145 1456.48 128.784C1456.7 128.465 1456.89 128.177 1457.12 127.857 1458.04 126.45 1458.78 125.107 1459.39 123.828 1459.58 128.241 1460.03 131.823 1460.79 134.509L1460.83 134.605 1456.67 134.605C1456.77 134.062 1456.83 133.518 1456.89 132.91L1456.93 132.654 1455.1 132.654 1455.07 132.878C1455.01 133.453 1454.94 134.029 1454.85 134.605L1450.72 134.605 1450.72 136.108 1454.62 136.108C1454.49 136.684 1454.37 137.228 1454.24 137.739 1453.79 139.306 1453.18 140.681 1452.51 141.8 1451.84 142.888 1451.08 143.752 1450.18 144.391L1449.98 144.519 1450.82 145.958 1451.04 145.798C1452.1 145.095 1453.02 144.071 1453.82 142.824 1454.49 141.769 1455.07 140.489 1455.58 139.018 1456.77 139.754 1457.95 140.649 1459.14 141.64L1459.32 141.8 1460.25 140.521 1460.09 140.361C1459 139.37 1457.63 138.347 1456.03 137.323 1456.12 136.908 1456.22 136.46 1456.32 136.012L1461.18 136.012C1461.66 137.58 1462.23 139.018 1462.84 140.266 1462.49 140.586 1462.07 140.905 1461.66 141.161 1460.03 142.249 1457.85 143.272 1455.2 144.167L1454.94 144.263 1455.71 145.734 1455.91 145.67C1458.75 144.711 1461.08 143.623 1462.81 142.44 1463.1 142.249 1463.39 142.024 1463.67 141.769 1463.86 142.057 1464.06 142.376 1464.25 142.664 1465.78 144.775 1467.03 145.798 1468.08 145.798 1468.73 145.798 1469.27 145.51 1469.65 144.998 1470.13 144.327 1470.45 143.08 1470.61 141.257L1470.65 141.065 1468.92 140.489 1468.92 140.746ZM1449.19 126.226 1451.78 126.226 1452.06 127.121 1452.26 127.121C1453.5 127.026 1454.75 126.898 1455.96 126.674 1455.87 126.834 1455.78 126.962 1455.68 127.121 1454.85 128.369 1453.92 129.648 1452.87 130.831L1451.94 130.831 1452.19 132.175C1451.68 130.831 1451.08 129.584 1450.37 128.433L1450.24 128.209 1449.16 128.913 1449.16 126.226ZM1456.61 128.944C1456.89 129.36 1457.18 129.808 1457.47 130.256 1456.7 130.447 1455.84 130.607 1454.91 130.704 1455.46 130.096 1455.96 129.424 1456.45 128.721L1456.61 128.944ZM1462.23 132.239C1463.2 132.207 1464.09 132.175 1464.96 132.079L1463.99 132.75 1464.22 132.942C1464.8 133.422 1465.3 133.933 1465.78 134.477L1462.55 134.477C1462.49 134.222 1462.43 133.965 1462.33 133.678 1462.2 133.23 1462.1 132.75 1462.01 132.27L1462.23 132.239ZM1461.5 126.994 1461.69 126.994C1463 126.898 1464.31 126.77 1465.59 126.578 1465.53 126.674 1465.46 126.802 1465.4 126.898 1464.63 128.145 1463.74 129.393 1462.75 130.607L1461.76 130.607C1461.56 129.328 1461.4 127.857 1461.28 126.258L1461.5 126.994Z" fill="#1B75BB" fill-rule="nonzero" fill-opacity="1" transform="matrix(1.01077 0 0 1 -973.943 240.037)"/><path d="M1490.31 129.712C1492.23 131.023 1494.05 132.654 1495.81 134.573L1496.01 134.797 1497.22 133.262 1497.06 133.102C1495.33 131.279 1493.42 129.712 1491.34 128.401L1491.14 128.273 1490.06 129.552 1490.31 129.712Z" fill="#1B75BB" fill-rule="nonzero" fill-opacity="1" transform="matrix(1.01077 0 0 1 -973.943 240.037)"/><path d="M1497.16 127.73 1497.35 127.953 1498.56 126.386 1498.4 126.226C1496.74 124.499 1494.86 122.964 1492.81 121.653L1492.61 121.525 1491.5 122.804 1491.72 122.964C1493.64 124.275 1495.47 125.875 1497.16 127.73Z" fill="#1B75BB" fill-rule="nonzero" fill-opacity="1" transform="matrix(1.01077 0 0 1 -973.943 240.037)"/><path d="M1501.22 135.692 1501.22 118.903 1499.36 118.903 1499.36 135.98 1488.04 137.931 1488.14 139.658 1499.36 137.739 1499.36 146.086 1501.22 146.086 1501.22 137.42 1505.47 136.716 1505.31 134.989Z" fill="#1B75BB" fill-rule="nonzero" fill-opacity="1" transform="matrix(1.01077 0 0 1 -973.943 240.037)"/><path d="M1488.27 135.884 1489.83 134.797 1489.74 134.605C1488.91 132.75 1487.89 131.056 1486.63 129.552L1486.51 129.393 1485.36 130.16 1485.36 128.337 1490.35 128.337 1490.35 126.706 1485.36 126.706 1485.36 122.357C1486.83 121.973 1488.27 121.557 1489.61 121.046L1489.87 120.949 1489.13 119.383 1488.93 119.446C1485.87 120.502 1482.48 121.301 1478.84 121.813L1478.55 121.845 1479.22 123.572 1479.41 123.54C1480.88 123.316 1482.29 123.028 1483.63 122.74L1483.63 126.706 1478.64 126.706 1478.64 128.337 1483.34 128.337C1482.99 130 1482.41 131.631 1481.62 133.23 1480.59 135.213 1479.47 136.908 1478.26 138.283L1478.1 138.474 1479.5 139.722 1479.66 139.53C1480.88 138.091 1481.87 136.62 1482.57 135.148 1482.95 134.445 1483.31 133.71 1483.63 132.878L1483.63 146.054 1485.36 146.054 1485.36 130.607C1486.54 132.175 1487.5 133.87 1488.17 135.596L1488.27 135.884Z" fill="#1B75BB" fill-rule="nonzero" fill-opacity="1" transform="matrix(1.01077 0 0 1 -973.943 240.037)"/><path d="M1527.41 138.699C1530.35 137.803 1532.94 136.684 1535.12 135.373L1535.25 135.308 1535.25 133.902 1518.49 133.902 1518.49 135.533 1531.63 135.533C1530.16 136.172 1528.5 136.716 1526.74 137.228 1526.64 137.036 1526.48 136.844 1526.32 136.652L1526.19 136.524 1524.76 137.195 1524.95 137.451C1525.3 137.899 1525.55 138.411 1525.78 138.986L1513.53 138.986 1513.53 140.586 1526.29 140.586C1526.45 141.257 1526.52 142.024 1526.52 142.856 1526.52 143.879 1526.32 144.039 1526.26 144.071 1526.16 144.135 1526 144.199 1525.62 144.199 1524.76 144.199 1523.77 143.975 1522.62 143.495L1522.23 143.335 1522.42 145.255 1522.58 145.318C1523.77 145.734 1524.88 145.926 1525.94 145.926 1526.61 145.926 1527.15 145.766 1527.54 145.447 1528.02 145.031 1528.24 144.167 1528.24 142.856 1528.24 142.152 1528.15 141.385 1527.99 140.586L1540.17 140.586 1540.17 138.986 1527.54 138.986C1527.47 138.826 1527.44 138.763 1527.41 138.699Z" fill="#1B75BB" fill-rule="nonzero" fill-opacity="1" transform="matrix(1.01077 0 0 1 -973.943 240.037)"/><path d="M1516.15 132.462 1537.49 132.462 1537.49 135.405 1539.18 135.405 1539.18 130.863 1537.29 130.863 1537.87 120.278 1530.99 120.278 1530.99 121.909 1536.05 121.909 1535.92 123.796 1530.86 123.796 1530.86 125.458 1535.85 125.458 1535.76 127.25 1530.38 127.25 1530.38 128.881 1535.69 128.881 1535.57 130.896 1529.62 130.896 1530.67 129.776 1530.51 129.616C1529.91 129.009 1529.23 128.433 1528.56 127.857 1529.17 127.281 1529.71 126.61 1530.22 125.906L1530.35 125.746 1529.71 125.075 1530.7 123.988 1530.54 123.828C1529.97 123.284 1529.39 122.772 1528.75 122.292 1529.46 121.621 1530.09 120.886 1530.67 120.054L1530.8 119.894 1529.75 118.711 1529.55 118.967C1528.98 119.798 1528.31 120.566 1527.51 121.301 1526.61 120.662 1525.69 120.022 1524.76 119.446L1524.56 119.319 1523.61 120.502 1523.83 120.662C1524.63 121.173 1525.42 121.717 1526.26 122.325 1525.4 122.932 1524.44 123.508 1523.38 123.988L1523.29 124.02 1523.29 123.763 1517.82 123.763 1517.79 122.644C1519.7 122.292 1521.49 121.717 1523.12 120.917L1523.38 120.789 1522.42 119.254 1522.26 119.351C1520.41 120.15 1518.42 120.726 1516.32 121.077L1516.09 121.109 1516.35 130.831 1514.43 130.831 1514.43 135.373 1516.15 135.373 1516.15 132.462ZM1524.09 130.831C1525.27 130.287 1526.36 129.648 1527.34 128.881 1528.02 129.456 1528.69 130.096 1529.36 130.767L1529.43 130.831 1524.06 130.831 1524.09 130.831ZM1523.32 124.307 1524.02 125.395 1524.22 125.299C1525.42 124.723 1526.55 124.02 1527.54 123.252 1528.05 123.732 1528.6 124.243 1529.14 124.787L1529.1 124.819C1528.6 125.523 1528.02 126.194 1527.31 126.866 1526.52 126.29 1525.71 125.715 1524.88 125.203L1524.69 125.075 1523.73 126.29 1523.95 126.418C1524.66 126.834 1525.37 127.313 1526.07 127.857 1525.24 128.497 1524.31 129.041 1523.25 129.52L1523 129.648 1523.83 130.863 1517.91 130.863 1517.88 128.753 1523.48 128.753 1523.48 127.121 1517.85 127.121 1517.82 125.458 1523.25 125.458 1523.25 124.307Z" fill="#1B75BB" fill-rule="nonzero" fill-opacity="1" transform="matrix(1.01077 0 0 1 -973.943 240.037)"/><path d="M1572.98 136.94 1573.17 137.163 1574.39 135.628 1574.26 135.468C1572.25 133.102 1569.98 131.023 1567.55 129.296L1567.39 129.168 1566.24 130.384 1566.46 130.544C1567.32 131.183 1568.18 131.95 1569.08 132.75 1565.09 133.102 1561.37 133.358 1557.95 133.518 1559.94 132.494 1561.89 131.343 1563.67 130.096 1566.55 128.081 1568.79 126.226 1570.33 124.595L1570.52 124.403 1568.76 122.964 1568.6 123.156C1567.32 124.563 1565.82 126.002 1564.16 127.378 1561.98 127.473 1559.58 127.538 1557.03 127.601 1558.82 126.035 1560.38 124.372 1561.73 122.677 1562.3 122.612 1562.88 122.549 1563.51 122.452 1566.94 121.973 1570.07 121.301 1572.85 120.438L1573.21 120.342 1571.96 118.807 1571.8 118.871C1569.18 119.67 1566.27 120.278 1563.13 120.726 1559.74 121.206 1555.43 121.589 1550.28 121.909L1549.9 121.941 1550.79 123.668 1550.95 123.668C1553.6 123.54 1556.38 123.348 1559.17 123.06 1557.85 124.659 1556.32 126.226 1554.53 127.73L1552.13 127.73 1552.45 129.456 1552.64 129.456C1556.19 129.456 1559.26 129.36 1561.86 129.201 1561.79 129.264 1561.7 129.328 1561.63 129.393 1559.1 131.087 1556.64 132.559 1554.34 133.773 1552.7 133.837 1551.14 133.87 1549.7 133.87L1549.41 133.87 1549.74 135.725 1549.95 135.725C1553.86 135.628 1557.6 135.468 1561.09 135.276L1561.09 142.632C1561.09 143.176 1560.93 143.879 1559.58 143.879 1558.66 143.879 1557.69 143.719 1556.74 143.4L1556.38 143.272 1556.54 145.287 1556.7 145.318C1557.6 145.574 1558.56 145.702 1559.58 145.702 1562.33 145.702 1562.91 144.199 1562.91 142.952L1562.91 135.117C1565.59 134.925 1568.22 134.701 1570.71 134.413 1571.41 135.148 1572.22 136.012 1572.98 136.94Z" fill="#1B75BB" fill-rule="nonzero" fill-opacity="1" transform="matrix(1.01077 0 0 1 -973.943 240.037)"/><path d="M1574.45 142.024C1572.22 139.882 1569.69 137.995 1566.91 136.428L1566.71 136.332 1565.63 137.611 1565.88 137.771C1568.44 139.338 1570.91 141.289 1573.24 143.56L1573.43 143.752 1574.61 142.184 1574.45 142.024Z" fill="#1B75BB" fill-rule="nonzero" fill-opacity="1" transform="matrix(1.01077 0 0 1 -973.943 240.037)"/><path d="M1557.57 137.547 1556.51 136.012 1556.29 136.236C1553.99 138.794 1551.62 140.713 1549.32 141.992L1549.09 142.12 1549.99 143.815 1550.21 143.687C1552.86 142.152 1555.3 140.169 1557.44 137.739L1557.57 137.547Z" fill="#1B75BB" fill-rule="nonzero" fill-opacity="1" transform="matrix(1.01077 0 0 1 -973.943 240.037)"/></g></g></g></g></g></g></g></g></g></svg>